  0
SECTION
  2
HEADER
  9
$ANGBASE
  50
0.0
  9
$ANGDIR
  70
1
  9
$MEASUREMENT
  70
1
  0
ENDSEC
  0
SECTION
  2
TABLES
  0
TABLE
  2
LTYPE
  70
4
  0
LTYPE
  5
40F
  2
CONTINUOUS
  70
0
  3
Solid line
  72
65
  73
0
  40
0.0
  0
LTYPE
  5
410
  2
DASHDOT
 70
0
  3
Dash Dot ____ _ ____ _
 72
65
 73
4
 40
2.0
 49
1.25
 49
-0.25
 49
0.25
 49
-0.25
  0
LTYPE
  5
411
  2
DASHED
 70
0
  3
Dashed __ __ __ __ __
 72
65
 73
2
 40
0.75
 49
0.5
 49
-0.25
  0
LTYPE
  5
43B
  2
DOTTED
 70
0
  3
Dotted .  .  .  .
 72
65
 73
2
 40
0.2
 49
0.0
 49
-0.2
  0
ENDTAB
  0
TABLE
  2
STYLE
  70
4
  0
STYLE
  2
KICAD
  70
0
  40
0
  41
1
  42
1
  50
0
  71
0
  3
isocp.shx
  0
STYLE
  2
KICADB
  70
0
  40
0
  41
1
  42
1
  50
0
  71
0
  3
isocp.shx
  0
STYLE
  2
KICADI
  70
0
  40
0
  41
1
  42
1
  50
15
  71
0
  3
isocp.shx
  0
STYLE
  2
KICADBI
  70
0
  40
0
  41
1
  42
1
  50
15
  71
0
  3
isocp.shx
  0
ENDTAB
  0
TABLE
  2
LAYER
  70
1
  0
LAYER
  2
BLACK
  70
0
  62
7
  6
CONTINUOUS
  0
ENDTAB
  0
ENDSEC
  0
SECTION
  2
ENTITIES
0
LINE
8
BLACK
6
CONTINUOUS
10
127.104
20
-85.2576
11
127.294
21
-85.3312
0
LINE
8
BLACK
6
CONTINUOUS
10
127.294
20
-85.3312
11
127.468
21
-85.4386
0
LINE
8
BLACK
6
CONTINUOUS
10
127.468
20
-85.4386
11
127.618
21
-85.576
0
LINE
8
BLACK
6
CONTINUOUS
10
127.618
20
-85.576
11
127.741
21
-85.7387
0
LINE
8
BLACK
6
CONTINUOUS
10
127.741
20
-85.7387
11
127.832
21
-85.9212
0
LINE
8
BLACK
6
CONTINUOUS
10
127.832
20
-85.9212
11
127.888
21
-86.1173
0
LINE
8
BLACK
6
CONTINUOUS
10
127.888
20
-86.1173
11
127.907
21
-86.3204
0
LINE
8
BLACK
6
CONTINUOUS
10
127.907
20
-86.3204
11
127.888
21
-86.5234
0
LINE
8
BLACK
6
CONTINUOUS
10
127.888
20
-86.5234
11
127.832
21
-86.7196
0
LINE
8
BLACK
6
CONTINUOUS
10
127.832
20
-86.7196
11
127.741
21
-86.9021
0
LINE
8
BLACK
6
CONTINUOUS
10
127.741
20
-86.9021
11
127.618
21
-87.0648
0
LINE
8
BLACK
6
CONTINUOUS
10
127.618
20
-87.0648
11
127.468
21
-87.2022
0
LINE
8
BLACK
6
CONTINUOUS
10
127.468
20
-87.2022
11
127.294
21
-87.3095
0
LINE
8
BLACK
6
CONTINUOUS
10
127.294
20
-87.3095
11
127.104
21
-87.3832
0
LINE
8
BLACK
6
CONTINUOUS
10
127.104
20
-87.3832
11
126.904
21
-87.4207
0
LINE
8
BLACK
6
CONTINUOUS
10
126.904
20
-87.4207
11
126.7
21
-87.4207
0
LINE
8
BLACK
6
CONTINUOUS
10
126.7
20
-87.4207
11
126.499
21
-87.3832
0
LINE
8
BLACK
6
CONTINUOUS
10
126.499
20
-87.3832
11
126.309
21
-87.3095
0
LINE
8
BLACK
6
CONTINUOUS
10
126.309
20
-87.3095
11
126.136
21
-87.2022
0
LINE
8
BLACK
6
CONTINUOUS
10
126.136
20
-87.2022
11
125.985
21
-87.0648
0
LINE
8
BLACK
6
CONTINUOUS
10
125.985
20
-87.0648
11
125.862
21
-86.9021
0
LINE
8
BLACK
6
CONTINUOUS
10
125.862
20
-86.9021
11
125.771
21
-86.7196
0
LINE
8
BLACK
6
CONTINUOUS
10
125.771
20
-86.7196
11
125.715
21
-86.5234
0
LINE
8
BLACK
6
CONTINUOUS
10
125.715
20
-86.5234
11
125.697
21
-86.3204
0
LINE
8
BLACK
6
CONTINUOUS
10
125.697
20
-86.3204
11
125.715
21
-86.1173
0
LINE
8
BLACK
6
CONTINUOUS
10
125.715
20
-86.1173
11
125.771
21
-85.9212
0
LINE
8
BLACK
6
CONTINUOUS
10
125.771
20
-85.9212
11
125.862
21
-85.7387
0
LINE
8
BLACK
6
CONTINUOUS
10
125.862
20
-85.7387
11
125.985
21
-85.576
0
LINE
8
BLACK
6
CONTINUOUS
10
125.985
20
-85.576
11
126.136
21
-85.4386
0
LINE
8
BLACK
6
CONTINUOUS
10
126.136
20
-85.4386
11
126.309
21
-85.3312
0
LINE
8
BLACK
6
CONTINUOUS
10
126.309
20
-85.3312
11
126.499
21
-85.2576
0
LINE
8
BLACK
6
CONTINUOUS
10
126.499
20
-85.2576
11
126.7
21
-85.2201
0
LINE
8
BLACK
6
CONTINUOUS
10
126.7
20
-85.2201
11
126.904
21
-85.2201
0
LINE
8
BLACK
6
CONTINUOUS
10
126.904
20
-85.2201
11
127.104
21
-85.2576
0
LINE
8
BLACK
6
CONTINUOUS
10
125.721
20
-86.5225
11
125.776
21
-86.7176
0
LINE
8
BLACK
6
CONTINUOUS
10
125.776
20
-86.7176
11
125.867
21
-86.8993
0
LINE
8
BLACK
6
CONTINUOUS
10
125.867
20
-86.8993
11
125.989
21
-87.0612
0
LINE
8
BLACK
6
CONTINUOUS
10
125.989
20
-87.0612
11
126.139
21
-87.198
0
LINE
8
BLACK
6
CONTINUOUS
10
126.139
20
-87.198
11
126.311
21
-87.3048
0
LINE
8
BLACK
6
CONTINUOUS
10
126.311
20
-87.3048
11
126.501
21
-87.3781
0
LINE
8
BLACK
6
CONTINUOUS
10
126.501
20
-87.3781
11
126.7
21
-87.4154
0
LINE
8
BLACK
6
CONTINUOUS
10
126.7
20
-87.4154
11
126.903
21
-87.4154
0
LINE
8
BLACK
6
CONTINUOUS
10
126.903
20
-87.4154
11
127.103
21
-87.3781
0
LINE
8
BLACK
6
CONTINUOUS
10
127.103
20
-87.3781
11
127.292
21
-87.3048
0
LINE
8
BLACK
6
CONTINUOUS
10
127.292
20
-87.3048
11
127.464
21
-87.198
0
LINE
8
BLACK
6
CONTINUOUS
10
127.464
20
-87.198
11
127.614
21
-87.0612
0
LINE
8
BLACK
6
CONTINUOUS
10
127.614
20
-87.0612
11
127.737
21
-86.8993
0
LINE
8
BLACK
6
CONTINUOUS
10
127.737
20
-86.8993
11
127.827
21
-86.7176
0
LINE
8
BLACK
6
CONTINUOUS
10
127.827
20
-86.7176
11
127.883
21
-86.5225
0
LINE
8
BLACK
6
CONTINUOUS
10
127.883
20
-86.5225
11
127.901
21
-86.3204
0
LINE
8
BLACK
6
CONTINUOUS
10
127.901
20
-86.3204
11
127.883
21
-86.1183
0
LINE
8
BLACK
6
CONTINUOUS
10
127.883
20
-86.1183
11
127.827
21
-85.9231
0
LINE
8
BLACK
6
CONTINUOUS
10
127.827
20
-85.9231
11
127.737
21
-85.7415
0
LINE
8
BLACK
6
CONTINUOUS
10
127.737
20
-85.7415
11
127.614
21
-85.5795
0
LINE
8
BLACK
6
CONTINUOUS
10
127.614
20
-85.5795
11
127.464
21
-85.4428
0
LINE
8
BLACK
6
CONTINUOUS
10
127.464
20
-85.4428
11
127.292
21
-85.336
0
LINE
8
BLACK
6
CONTINUOUS
10
127.292
20
-85.336
11
127.103
21
-85.2627
0
LINE
8
BLACK
6
CONTINUOUS
10
127.103
20
-85.2627
11
126.903
21
-85.2254
0
LINE
8
BLACK
6
CONTINUOUS
10
126.903
20
-85.2254
11
126.7
21
-85.2254
0
LINE
8
BLACK
6
CONTINUOUS
10
126.7
20
-85.2254
11
126.501
21
-85.2627
0
LINE
8
BLACK
6
CONTINUOUS
10
126.501
20
-85.2627
11
126.311
21
-85.336
0
LINE
8
BLACK
6
CONTINUOUS
10
126.311
20
-85.336
11
126.139
21
-85.4428
0
LINE
8
BLACK
6
CONTINUOUS
10
126.139
20
-85.4428
11
125.989
21
-85.5795
0
LINE
8
BLACK
6
CONTINUOUS
10
125.989
20
-85.5795
11
125.867
21
-85.7415
0
LINE
8
BLACK
6
CONTINUOUS
10
125.867
20
-85.7415
11
125.776
21
-85.9231
0
LINE
8
BLACK
6
CONTINUOUS
10
125.776
20
-85.9231
11
125.721
21
-86.1183
0
LINE
8
BLACK
6
CONTINUOUS
10
125.721
20
-86.1183
11
125.702
21
-86.3204
0
LINE
8
BLACK
6
CONTINUOUS
10
125.702
20
-86.3204
11
125.721
21
-86.5225
0
LINE
8
BLACK
6
CONTINUOUS
10
140.201
20
-85.2576
11
140.391
21
-85.3312
0
LINE
8
BLACK
6
CONTINUOUS
10
140.391
20
-85.3312
11
140.564
21
-85.4386
0
LINE
8
BLACK
6
CONTINUOUS
10
140.564
20
-85.4386
11
140.715
21
-85.576
0
LINE
8
BLACK
6
CONTINUOUS
10
140.715
20
-85.576
11
140.838
21
-85.7387
0
LINE
8
BLACK
6
CONTINUOUS
10
140.838
20
-85.7387
11
140.929
21
-85.9212
0
LINE
8
BLACK
6
CONTINUOUS
10
140.929
20
-85.9212
11
140.985
21
-86.1173
0
LINE
8
BLACK
6
CONTINUOUS
10
140.985
20
-86.1173
11
141.004
21
-86.3204
0
LINE
8
BLACK
6
CONTINUOUS
10
141.004
20
-86.3204
11
140.985
21
-86.5234
0
LINE
8
BLACK
6
CONTINUOUS
10
140.985
20
-86.5234
11
140.929
21
-86.7196
0
LINE
8
BLACK
6
CONTINUOUS
10
140.929
20
-86.7196
11
140.838
21
-86.9021
0
LINE
8
BLACK
6
CONTINUOUS
10
140.838
20
-86.9021
11
140.715
21
-87.0648
0
LINE
8
BLACK
6
CONTINUOUS
10
140.715
20
-87.0648
11
140.564
21
-87.2022
0
LINE
8
BLACK
6
CONTINUOUS
10
140.564
20
-87.2022
11
140.391
21
-87.3095
0
LINE
8
BLACK
6
CONTINUOUS
10
140.391
20
-87.3095
11
140.201
21
-87.3832
0
LINE
8
BLACK
6
CONTINUOUS
10
140.201
20
-87.3832
11
140.001
21
-87.4207
0
LINE
8
BLACK
6
CONTINUOUS
10
140.001
20
-87.4207
11
139.797
21
-87.4207
0
LINE
8
BLACK
6
CONTINUOUS
10
139.797
20
-87.4207
11
139.596
21
-87.3832
0
LINE
8
BLACK
6
CONTINUOUS
10
139.596
20
-87.3832
11
139.406
21
-87.3095
0
LINE
8
BLACK
6
CONTINUOUS
10
139.406
20
-87.3095
11
139.233
21
-87.2022
0
LINE
8
BLACK
6
CONTINUOUS
10
139.233
20
-87.2022
11
139.082
21
-87.0648
0
LINE
8
BLACK
6
CONTINUOUS
10
139.082
20
-87.0648
11
138.959
21
-86.9021
0
LINE
8
BLACK
6
CONTINUOUS
10
138.959
20
-86.9021
11
138.868
21
-86.7196
0
LINE
8
BLACK
6
CONTINUOUS
10
138.868
20
-86.7196
11
138.812
21
-86.5234
0
LINE
8
BLACK
6
CONTINUOUS
10
138.812
20
-86.5234
11
138.794
21
-86.3204
0
LINE
8
BLACK
6
CONTINUOUS
10
138.794
20
-86.3204
11
138.812
21
-86.1173
0
LINE
8
BLACK
6
CONTINUOUS
10
138.812
20
-86.1173
11
138.868
21
-85.9212
0
LINE
8
BLACK
6
CONTINUOUS
10
138.868
20
-85.9212
11
138.959
21
-85.7387
0
LINE
8
BLACK
6
CONTINUOUS
10
138.959
20
-85.7387
11
139.082
21
-85.576
0
LINE
8
BLACK
6
CONTINUOUS
10
139.082
20
-85.576
11
139.233
21
-85.4386
0
LINE
8
BLACK
6
CONTINUOUS
10
139.233
20
-85.4386
11
139.406
21
-85.3312
0
LINE
8
BLACK
6
CONTINUOUS
10
139.406
20
-85.3312
11
139.596
21
-85.2576
0
LINE
8
BLACK
6
CONTINUOUS
10
139.596
20
-85.2576
11
139.797
21
-85.2201
0
LINE
8
BLACK
6
CONTINUOUS
10
139.797
20
-85.2201
11
140.001
21
-85.2201
0
LINE
8
BLACK
6
CONTINUOUS
10
140.001
20
-85.2201
11
140.201
21
-85.2576
0
LINE
8
BLACK
6
CONTINUOUS
10
138.818
20
-86.5225
11
138.873
21
-86.7176
0
LINE
8
BLACK
6
CONTINUOUS
10
138.873
20
-86.7176
11
138.964
21
-86.8993
0
LINE
8
BLACK
6
CONTINUOUS
10
138.964
20
-86.8993
11
139.086
21
-87.0612
0
LINE
8
BLACK
6
CONTINUOUS
10
139.086
20
-87.0612
11
139.236
21
-87.198
0
LINE
8
BLACK
6
CONTINUOUS
10
139.236
20
-87.198
11
139.408
21
-87.3048
0
LINE
8
BLACK
6
CONTINUOUS
10
139.408
20
-87.3048
11
139.598
21
-87.3781
0
LINE
8
BLACK
6
CONTINUOUS
10
139.598
20
-87.3781
11
139.797
21
-87.4154
0
LINE
8
BLACK
6
CONTINUOUS
10
139.797
20
-87.4154
11
140
21
-87.4154
0
LINE
8
BLACK
6
CONTINUOUS
10
140
20
-87.4154
11
140.2
21
-87.3781
0
LINE
8
BLACK
6
CONTINUOUS
10
140.2
20
-87.3781
11
140.389
21
-87.3048
0
LINE
8
BLACK
6
CONTINUOUS
10
140.389
20
-87.3048
11
140.561
21
-87.198
0
LINE
8
BLACK
6
CONTINUOUS
10
140.561
20
-87.198
11
140.711
21
-87.0612
0
LINE
8
BLACK
6
CONTINUOUS
10
140.711
20
-87.0612
11
140.834
21
-86.8993
0
LINE
8
BLACK
6
CONTINUOUS
10
140.834
20
-86.8993
11
140.924
21
-86.7176
0
LINE
8
BLACK
6
CONTINUOUS
10
140.924
20
-86.7176
11
140.98
21
-86.5225
0
LINE
8
BLACK
6
CONTINUOUS
10
140.98
20
-86.5225
11
140.998
21
-86.3204
0
LINE
8
BLACK
6
CONTINUOUS
10
140.998
20
-86.3204
11
140.98
21
-86.1183
0
LINE
8
BLACK
6
CONTINUOUS
10
140.98
20
-86.1183
11
140.924
21
-85.9231
0
LINE
8
BLACK
6
CONTINUOUS
10
140.924
20
-85.9231
11
140.834
21
-85.7415
0
LINE
8
BLACK
6
CONTINUOUS
10
140.834
20
-85.7415
11
140.711
21
-85.5795
0
LINE
8
BLACK
6
CONTINUOUS
10
140.711
20
-85.5795
11
140.561
21
-85.4428
0
LINE
8
BLACK
6
CONTINUOUS
10
140.561
20
-85.4428
11
140.389
21
-85.336
0
LINE
8
BLACK
6
CONTINUOUS
10
140.389
20
-85.336
11
140.2
21
-85.2627
0
LINE
8
BLACK
6
CONTINUOUS
10
140.2
20
-85.2627
11
140
21
-85.2254
0
LINE
8
BLACK
6
CONTINUOUS
10
140
20
-85.2254
11
139.797
21
-85.2254
0
LINE
8
BLACK
6
CONTINUOUS
10
139.797
20
-85.2254
11
139.598
21
-85.2627
0
LINE
8
BLACK
6
CONTINUOUS
10
139.598
20
-85.2627
11
139.408
21
-85.336
0
LINE
8
BLACK
6
CONTINUOUS
10
139.408
20
-85.336
11
139.236
21
-85.4428
0
LINE
8
BLACK
6
CONTINUOUS
10
139.236
20
-85.4428
11
139.086
21
-85.5795
0
LINE
8
BLACK
6
CONTINUOUS
10
139.086
20
-85.5795
11
138.964
21
-85.7415
0
LINE
8
BLACK
6
CONTINUOUS
10
138.964
20
-85.7415
11
138.873
21
-85.9231
0
LINE
8
BLACK
6
CONTINUOUS
10
138.873
20
-85.9231
11
138.818
21
-86.1183
0
LINE
8
BLACK
6
CONTINUOUS
10
138.818
20
-86.1183
11
138.799
21
-86.3204
0
LINE
8
BLACK
6
CONTINUOUS
10
138.799
20
-86.3204
11
138.818
21
-86.5225
0
LINE
8
BLACK
6
CONTINUOUS
10
141.089
20
-48.1954
11
141.279
21
-48.2103
0
LINE
8
BLACK
6
CONTINUOUS
10
141.279
20
-48.2103
11
141.465
21
-48.2548
0
LINE
8
BLACK
6
CONTINUOUS
10
141.465
20
-48.2548
11
141.641
21
-48.3278
0
LINE
8
BLACK
6
CONTINUOUS
10
141.641
20
-48.3278
11
141.804
21
-48.4275
0
LINE
8
BLACK
6
CONTINUOUS
10
141.804
20
-48.4275
11
141.949
21
-48.5514
0
LINE
8
BLACK
6
CONTINUOUS
10
141.949
20
-48.5514
11
142.073
21
-48.6964
0
LINE
8
BLACK
6
CONTINUOUS
10
142.073
20
-48.6964
11
142.172
21
-48.8591
0
LINE
8
BLACK
6
CONTINUOUS
10
142.172
20
-48.8591
11
142.245
21
-49.0353
0
LINE
8
BLACK
6
CONTINUOUS
10
142.245
20
-49.0353
11
142.29
21
-49.2208
0
LINE
8
BLACK
6
CONTINUOUS
10
142.29
20
-49.2208
11
142.305
21
-49.411
0
LINE
8
BLACK
6
CONTINUOUS
10
142.305
20
-49.411
11
142.305
21
-49.411
0
LINE
8
BLACK
6
CONTINUOUS
10
142.305
20
-49.411
11
142.305
21
-87.511
0
LINE
8
BLACK
6
CONTINUOUS
10
142.305
20
-87.511
11
142.29
21
-87.7012
0
LINE
8
BLACK
6
CONTINUOUS
10
142.29
20
-87.7012
11
142.245
21
-87.8867
0
LINE
8
BLACK
6
CONTINUOUS
10
142.245
20
-87.8867
11
142.172
21
-88.0629
0
LINE
8
BLACK
6
CONTINUOUS
10
142.172
20
-88.0629
11
142.073
21
-88.2255
0
LINE
8
BLACK
6
CONTINUOUS
10
142.073
20
-88.2255
11
141.949
21
-88.3706
0
LINE
8
BLACK
6
CONTINUOUS
10
141.949
20
-88.3706
11
141.804
21
-88.4945
0
LINE
8
BLACK
6
CONTINUOUS
10
141.804
20
-88.4945
11
141.641
21
-88.5941
0
LINE
8
BLACK
6
CONTINUOUS
10
141.641
20
-88.5941
11
141.465
21
-88.6671
0
LINE
8
BLACK
6
CONTINUOUS
10
141.465
20
-88.6671
11
141.279
21
-88.7116
0
LINE
8
BLACK
6
CONTINUOUS
10
141.279
20
-88.7116
11
141.089
21
-88.7266
0
LINE
8
BLACK
6
CONTINUOUS
10
141.089
20
-88.7266
11
141.089
21
-88.7266
0
LINE
8
BLACK
6
CONTINUOUS
10
141.089
20
-88.7266
11
125.611
21
-88.7266
0
LINE
8
BLACK
6
CONTINUOUS
10
125.611
20
-88.7266
11
125.611
21
-88.7266
0
LINE
8
BLACK
6
CONTINUOUS
10
125.611
20
-88.7266
11
125.611
21
-88.7266
0
LINE
8
BLACK
6
CONTINUOUS
10
125.611
20
-88.7266
11
125.421
21
-88.7117
0
LINE
8
BLACK
6
CONTINUOUS
10
125.421
20
-88.7117
11
125.235
21
-88.6672
0
LINE
8
BLACK
6
CONTINUOUS
10
125.235
20
-88.6672
11
125.059
21
-88.5942
0
LINE
8
BLACK
6
CONTINUOUS
10
125.059
20
-88.5942
11
124.896
21
-88.4945
0
LINE
8
BLACK
6
CONTINUOUS
10
124.896
20
-88.4945
11
124.751
21
-88.3706
0
LINE
8
BLACK
6
CONTINUOUS
10
124.751
20
-88.3706
11
124.628
21
-88.2256
0
LINE
8
BLACK
6
CONTINUOUS
10
124.628
20
-88.2256
11
124.528
21
-88.0629
0
LINE
8
BLACK
6
CONTINUOUS
10
124.528
20
-88.0629
11
124.455
21
-87.8867
0
LINE
8
BLACK
6
CONTINUOUS
10
124.455
20
-87.8867
11
124.41
21
-87.7012
0
LINE
8
BLACK
6
CONTINUOUS
10
124.41
20
-87.7012
11
124.395
21
-87.511
0
LINE
8
BLACK
6
CONTINUOUS
10
124.395
20
-87.511
11
124.395
21
-87.511
0
LINE
8
BLACK
6
CONTINUOUS
10
124.395
20
-87.511
11
124.395
21
-49.411
0
LINE
8
BLACK
6
CONTINUOUS
10
124.395
20
-49.411
11
124.41
21
-49.2208
0
LINE
8
BLACK
6
CONTINUOUS
10
124.41
20
-49.2208
11
124.455
21
-49.0353
0
LINE
8
BLACK
6
CONTINUOUS
10
124.455
20
-49.0353
11
124.528
21
-48.8591
0
LINE
8
BLACK
6
CONTINUOUS
10
124.528
20
-48.8591
11
124.628
21
-48.6965
0
LINE
8
BLACK
6
CONTINUOUS
10
124.628
20
-48.6965
11
124.751
21
-48.5514
0
LINE
8
BLACK
6
CONTINUOUS
10
124.751
20
-48.5514
11
124.897
21
-48.4276
0
LINE
8
BLACK
6
CONTINUOUS
10
124.897
20
-48.4276
11
125.059
21
-48.3279
0
LINE
8
BLACK
6
CONTINUOUS
10
125.059
20
-48.3279
11
125.235
21
-48.2549
0
LINE
8
BLACK
6
CONTINUOUS
10
125.235
20
-48.2549
11
125.421
21
-48.2104
0
LINE
8
BLACK
6
CONTINUOUS
10
125.421
20
-48.2104
11
125.611
21
-48.1954
0
LINE
8
BLACK
6
CONTINUOUS
10
125.611
20
-48.1954
11
125.611
21
-48.1954
0
LINE
8
BLACK
6
CONTINUOUS
10
125.611
20
-48.1954
11
141.089
21
-48.1954
0
LINE
8
BLACK
6
CONTINUOUS
10
141.089
20
-48.2454
11
125.611
21
-48.2454
0
LINE
8
BLACK
6
CONTINUOUS
10
125.611
20
-48.2454
11
125.611
21
-48.2454
0
LINE
8
BLACK
6
CONTINUOUS
10
125.611
20
-48.2454
11
125.611
21
-48.2454
0
LINE
8
BLACK
6
CONTINUOUS
10
125.611
20
-48.2454
11
125.611
21
-48.2454
0
LINE
8
BLACK
6
CONTINUOUS
10
125.611
20
-48.2454
11
125.509
21
-48.2454
0
LINE
8
BLACK
6
CONTINUOUS
10
125.509
20
-48.2454
11
125.308
21
-48.2808
0
LINE
8
BLACK
6
CONTINUOUS
10
125.308
20
-48.2808
11
125.117
21
-48.3506
0
LINE
8
BLACK
6
CONTINUOUS
10
125.117
20
-48.3506
11
124.94
21
-48.4525
0
LINE
8
BLACK
6
CONTINUOUS
10
124.94
20
-48.4525
11
124.784
21
-48.5836
0
LINE
8
BLACK
6
CONTINUOUS
10
124.784
20
-48.5836
11
124.653
21
-48.7399
0
LINE
8
BLACK
6
CONTINUOUS
10
124.653
20
-48.7399
11
124.551
21
-48.9165
0
LINE
8
BLACK
6
CONTINUOUS
10
124.551
20
-48.9165
11
124.481
21
-49.1081
0
LINE
8
BLACK
6
CONTINUOUS
10
124.481
20
-49.1081
11
124.445
21
-49.309
0
LINE
8
BLACK
6
CONTINUOUS
10
124.445
20
-49.309
11
124.445
21
-49.411
0
LINE
8
BLACK
6
CONTINUOUS
10
124.445
20
-49.411
11
124.445
21
-49.411
0
LINE
8
BLACK
6
CONTINUOUS
10
124.445
20
-49.411
11
124.445
21
-87.511
0
LINE
8
BLACK
6
CONTINUOUS
10
124.445
20
-87.511
11
124.445
21
-87.5111
0
LINE
8
BLACK
6
CONTINUOUS
10
124.445
20
-87.5111
11
124.445
21
-87.613
0
LINE
8
BLACK
6
CONTINUOUS
10
124.445
20
-87.613
11
124.481
21
-87.8139
0
LINE
8
BLACK
6
CONTINUOUS
10
124.481
20
-87.8139
11
124.551
21
-88.0055
0
LINE
8
BLACK
6
CONTINUOUS
10
124.551
20
-88.0055
11
124.653
21
-88.1822
0
LINE
8
BLACK
6
CONTINUOUS
10
124.653
20
-88.1822
11
124.784
21
-88.3384
0
LINE
8
BLACK
6
CONTINUOUS
10
124.784
20
-88.3384
11
124.94
21
-88.4695
0
LINE
8
BLACK
6
CONTINUOUS
10
124.94
20
-88.4695
11
125.117
21
-88.5715
0
LINE
8
BLACK
6
CONTINUOUS
10
125.117
20
-88.5715
11
125.308
21
-88.6412
0
LINE
8
BLACK
6
CONTINUOUS
10
125.308
20
-88.6412
11
125.509
21
-88.6766
0
LINE
8
BLACK
6
CONTINUOUS
10
125.509
20
-88.6766
11
125.611
21
-88.6766
0
LINE
8
BLACK
6
CONTINUOUS
10
125.611
20
-88.6766
11
125.611
21
-88.6766
0
LINE
8
BLACK
6
CONTINUOUS
10
125.611
20
-88.6766
11
141.089
21
-88.6766
0
LINE
8
BLACK
6
CONTINUOUS
10
141.089
20
-88.6766
11
141.089
21
-88.6766
0
LINE
8
BLACK
6
CONTINUOUS
10
141.089
20
-88.6766
11
141.191
21
-88.6766
0
LINE
8
BLACK
6
CONTINUOUS
10
141.191
20
-88.6766
11
141.392
21
-88.6412
0
LINE
8
BLACK
6
CONTINUOUS
10
141.392
20
-88.6412
11
141.584
21
-88.5714
0
LINE
8
BLACK
6
CONTINUOUS
10
141.584
20
-88.5714
11
141.76
21
-88.4695
0
LINE
8
BLACK
6
CONTINUOUS
10
141.76
20
-88.4695
11
141.917
21
-88.3384
0
LINE
8
BLACK
6
CONTINUOUS
10
141.917
20
-88.3384
11
142.048
21
-88.1821
0
LINE
8
BLACK
6
CONTINUOUS
10
142.048
20
-88.1821
11
142.15
21
-88.0055
0
LINE
8
BLACK
6
CONTINUOUS
10
142.15
20
-88.0055
11
142.219
21
-87.8138
0
LINE
8
BLACK
6
CONTINUOUS
10
142.219
20
-87.8138
11
142.255
21
-87.613
0
LINE
8
BLACK
6
CONTINUOUS
10
142.255
20
-87.613
11
142.255
21
-87.511
0
LINE
8
BLACK
6
CONTINUOUS
10
142.255
20
-87.511
11
142.255
21
-87.511
0
LINE
8
BLACK
6
CONTINUOUS
10
142.255
20
-87.511
11
142.255
21
-49.411
0
LINE
8
BLACK
6
CONTINUOUS
10
142.255
20
-49.411
11
142.255
21
-49.4109
0
LINE
8
BLACK
6
CONTINUOUS
10
142.255
20
-49.4109
11
142.255
21
-49.309
0
LINE
8
BLACK
6
CONTINUOUS
10
142.255
20
-49.309
11
142.219
21
-49.1081
0
LINE
8
BLACK
6
CONTINUOUS
10
142.219
20
-49.1081
11
142.15
21
-48.9165
0
LINE
8
BLACK
6
CONTINUOUS
10
142.15
20
-48.9165
11
142.048
21
-48.7398
0
LINE
8
BLACK
6
CONTINUOUS
10
142.048
20
-48.7398
11
141.917
21
-48.5836
0
LINE
8
BLACK
6
CONTINUOUS
10
141.917
20
-48.5836
11
141.76
21
-48.4525
0
LINE
8
BLACK
6
CONTINUOUS
10
141.76
20
-48.4525
11
141.584
21
-48.3505
0
LINE
8
BLACK
6
CONTINUOUS
10
141.584
20
-48.3505
11
141.392
21
-48.2808
0
LINE
8
BLACK
6
CONTINUOUS
10
141.392
20
-48.2808
11
141.191
21
-48.2454
0
LINE
8
BLACK
6
CONTINUOUS
10
141.191
20
-48.2454
11
141.089
21
-48.2454
  0
ENDSEC
  0
EOF
