<?xml version="1.0" encoding="UTF-8" standalone="no"?>
<svg
   version="1.1"
   width="297.0022mm"
   height="210.0072mm"
   viewBox="0.0000 0.0000 297.0022 210.0072"
   id="svg659"
   sodipodi:docname="Orthumb39_mid.svg"
   inkscape:version="1.3 (0e150ed6c4, 2023-07-21)"
   xmlns:inkscape="http://www.inkscape.org/namespaces/inkscape"
   xmlns:sodipodi="http://sodipodi.sourceforge.net/DTD/sodipodi-0.dtd"
   xmlns="http://www.w3.org/2000/svg"
   xmlns:svg="http://www.w3.org/2000/svg"
   xmlns:rdf="http://www.w3.org/1999/02/22-rdf-syntax-ns#"
   xmlns:cc="http://creativecommons.org/ns#"
   xmlns:dc="http://purl.org/dc/elements/1.1/">
  <defs
     id="defs659" />
  <sodipodi:namedview
     id="namedview659"
     pagecolor="#ffffff"
     bordercolor="#000000"
     borderopacity="0.25"
     inkscape:showpageshadow="2"
     inkscape:pageopacity="0.0"
     inkscape:pagecheckerboard="0"
     inkscape:deskcolor="#d1d1d1"
     inkscape:document-units="mm"
     inkscape:zoom="0.65512046"
     inkscape:cx="580.046"
     inkscape:cy="412.90116"
     inkscape:window-width="1920"
     inkscape:window-height="1009"
     inkscape:window-x="-8"
     inkscape:window-y="-8"
     inkscape:window-maximized="1"
     inkscape:current-layer="svg659" />
  <title
     id="title1">SVG Image created as Orthumb39.kicadqqqq_pcb-Edge_Cuts.svg date 2023/10/27 22:26:38 </title>
  <desc
     id="desc1">Image generated by PCBNEW </desc>
  <g
     style="fill:#000000; fill-opacity:1.0000;stroke:#000000; stroke-opacity:1.0000; stroke-linecap:round; stroke-linejoin:round;"
     transform="translate(0 0) scale(1 1)"
     id="g1" />
  <g
     style="fill:#000000; fill-opacity:0.0;  stroke:#000000; stroke-width:0.0000; stroke-opacity:1;  stroke-linecap:round; stroke-linejoin:round;"
     id="g2" />
  <path
     id="path656"
     style="fill:#ff0000;fill-opacity:0;stroke:#ff0000;stroke-width:0.1;stroke-linecap:round;stroke-linejoin:round;stroke-opacity:1"
     d="m 197.6437,123.825 a 8.1297,8.1297 0 0 0 5.7489,-2.3812 M 28.575,50.0062 v 2.3813 M 41.0766,77.986 v 3.5719 M 28.575,90.4876 h 2.9766 M 30.9562,104.775 H 42.8625 M 31.5516,69.0563 H 45.2438 M 35.1235,100.6079 V 97.036 m 9.525,-19.05 h -3.5719 m 68.4609,64.889 h 47.625 M 31.5516,52.3875 v -2.3812 m 0,21.4313 v -2.3813 m 0,8.9297 v -2.3812 m 17.0597,31.5514 a 8.1301,8.1301 0 0 0 -5.7488,-2.3812 m 3.5719,-31.5515 h -1.7859 m 135.3402,52.9827 -17.0774,14.2876 m 72.8324,-35.7188 a 2.3813,2.3813 0 0 0 2.3813,-2.3813 M 28.575,52.3875 h 2.9766 m 9.525,48.2204 h -5.9531 m 182.9652,6.5483 -14.6961,14.2876 M 31.5516,94.6548 H 28.575 m 0,-4.1672 V 75.6048 M 44.6485,73.2235 V 77.986 M 41.0766,62.5079 h -5.9531 m 0,19.05 V 77.986 m 122.039,64.889 a 8.1302,8.1302 0 0 0 5.7488,-2.3812 M 28.575,71.4376 h 2.9766 M 45.2438,54.1735 V 58.936 M 31.5516,56.5547 H 28.575 m 209.55,45.839 V 50.0062 M 197.6437,123.825 H 185.7375 M 31.5516,88.1063 H 46.4344 M 41.0766,58.936 v 3.5719 M 45.2438,58.936 H 41.0766 M 238.125,50.0063 A 2.3813,2.3813 0 0 0 235.7437,47.625 M 44.6485,97.036 h -3.5719 m -9.525,-38.1 v -2.3813 m 55.1597,69.6515 17.0774,14.2876 M 45.2438,66.6751 v 2.3812 m 1.1906,19.05 v 4.1672 M 35.1235,77.986 h -3.5719 m 0,-2.3812 H 28.575 M 41.0766,97.036 v 3.5719 M 30.9562,47.625 A 2.3813,2.3813 0 0 0 28.575,50.0062 M 69.0562,123.825 H 80.9625 M 46.4344,92.2735 H 44.6485 M 41.0766,81.5579 H 35.1235 M 46.4344,54.1735 h -1.1906 m 1.1906,-4.1672 v 4.1672 m 57.3543,86.3203 a 8.1301,8.1301 0 0 0 5.7488,2.3812 M 48.6113,107.1562 63.3074,121.4438 M 35.1235,97.036 h -3.5719 m 3.5719,-38.1 h -3.5719 m 14.8828,10.1203 v 4.1672 M 31.5516,90.4876 v -2.3813 m 31.7558,33.3375 a 8.1301,8.1301 0 0 0 5.7488,2.3812 m 116.6813,0 a 8.13,8.13 0 0 0 -5.7488,2.3812 M 47.625,69.0563 H 46.4344 M 28.575,102.3937 a 2.3813,2.3813 0 0 0 2.3812,2.3813 M 47.625,69.0563 A 2.3813,2.3813 0 1 0 45.2438,66.6751 M 31.5516,50.0063 h 14.8828 m 40.2769,76.1999 a 8.1301,8.1301 0 0 0 -5.7488,-2.3812 m 142.875,-19.05 h 11.9062 m -11.9062,0 a 8.1301,8.1301 0 0 0 -5.7488,2.3812 M 28.575,56.5547 v 14.8829 m 0,23.2172 v 7.7389 M 235.7437,47.625 H 30.9562 m 0.5954,49.411 V 94.6548 M 44.6485,92.2735 V 97.036 M 35.1235,62.5079 V 58.936" />
  <g
     id="g656"
     style="fill:#ff0000;fill-opacity:0;stroke:#ff0000;stroke-width:0.1;stroke-linecap:round;stroke-linejoin:round;stroke-opacity:1" />
  <g
     id="g657"
     style="fill:#ff0000;fill-opacity:0;stroke:#ff0000;stroke-width:0.1;stroke-linecap:round;stroke-linejoin:round;stroke-opacity:1" />
  <g
     id="g658"
     style="fill:#ff0000;fill-opacity:0;stroke:#ff0000;stroke-width:0.1;stroke-linecap:round;stroke-linejoin:round;stroke-opacity:1" />
  <g
     inkscape:groupmode="layer"
     id="layer1"
     inkscape:label="Layer 1">
    <path
       id="path655"
       style="display:inline;fill:#ff0000;fill-opacity:0;stroke:#ff0000;stroke-width:0.1;stroke-linecap:round;stroke-linejoin:round;stroke-opacity:1"
       d="m 82.7485,77.986 h -3.5719 m 5.3578,-4.7625 H 82.7485 M 69.6516,71.4376 v -2.3813 m 9.525,8.9297 v 3.5719 m 3.5719,-8.3344 v 4.7625 m -13.0969,0 v -2.3812 m 14.8828,-6.5485 v 4.1672 m -5.3578,8.3344 H 73.2235 M 69.6516,69.0563 H 84.5344 M 73.2235,77.986 h -3.5719 m -2.9765,-6.5484 h 2.9765 m 3.5719,10.1203 V 77.986 m -6.5484,-2.3812 v -4.1672 m 2.9765,4.1672 h -2.9765" />
    <path
       id="path521"
       style="display:inline;fill:#ff0000;fill-opacity:0;stroke:#ff0000;stroke-width:0.1;stroke-linecap:round;stroke-linejoin:round;stroke-opacity:1"
       d="m 66.6751,94.6548 v -4.1672 m 2.9765,6.5484 v -2.3812 m 9.525,5.9531 H 73.2235 M 69.6516,90.4876 v -2.3813 m -2.9765,2.3813 h 2.9765 m 13.0969,6.5484 h -3.5719 m 5.3578,-8.9297 v 4.1672 M 73.2235,97.036 h -3.5719 m 3.5719,3.5719 V 97.036 m 9.525,-4.7625 v 4.7625 m -3.5719,0 v 3.5719 m -9.525,-12.5016 h 14.8828 m 0,4.1672 h -1.7859 m -13.0969,2.3813 h -2.9765" />
    <circle
       cx="66.675102"
       cy="104.7751"
       r="2.3813"
       id="circle488"
       style="display:inline;fill:#ff0000;fill-opacity:0;stroke:#ff0000;stroke-width:0.1;stroke-linecap:round;stroke-linejoin:round;stroke-opacity:1" />
    <path
       id="path623"
       style="display:inline;fill:#ff0000;fill-opacity:0;stroke:#ff0000;stroke-width:0.1;stroke-linecap:round;stroke-linejoin:round;stroke-opacity:1"
       d="m 52.9829,107.7517 v -5.9532 m 8.3343,0 v 5.9532 m 0,0 h -8.3343 m 0,-5.9532 h 8.3343" />
    <path
       id="path588"
       style="display:inline;fill:#ff0000;fill-opacity:0;stroke:#ff0000;stroke-width:0.1;stroke-linecap:round;stroke-linejoin:round;stroke-opacity:1"
       d="M 54.1735,100.6079 V 97.036 m 9.525,0 h -3.5719 m 3.5719,-4.7625 V 97.036 M 50.6016,88.1063 H 65.4844 M 50.6016,94.6548 H 47.625 m 17.8594,-6.5485 v 4.1672 M 47.625,94.6548 v -4.1672 m 12.5016,10.1203 H 54.1735 M 50.6016,97.036 v -2.3812 m 0,-4.1672 v -2.3813 m -2.9766,2.3813 h 2.9766 m 3.5719,6.5484 h -3.5719 m 14.8828,-4.7625 h -1.7859 m -3.5719,4.7625 v 3.5719" />
    <path
       id="path638"
       style="display:inline;fill:#ff0000;fill-opacity:0;stroke:#ff0000;stroke-width:0.1;stroke-linecap:round;stroke-linejoin:round;stroke-opacity:1"
       d="m 50.6016,50.0063 h 14.8828 m -1.7859,8.9297 h -3.5719 m 3.5719,-4.7625 V 58.936 M 47.625,56.5547 v -4.1672 m 12.5016,6.5485 v 3.5719 m -9.525,-10.1204 v -2.3812 m -2.9766,2.3812 h 2.9766 m 3.5719,10.1204 V 58.936 m 0,0 h -3.5719 m 0,0 v -2.3813 m 14.8828,-2.3812 h -1.7859 m -3.5719,8.3344 H 54.1735 M 65.4844,50.0063 v 4.1672 M 50.6016,56.5547 H 47.625" />
    <path
       id="path631"
       style="display:inline;fill:#ff0000;fill-opacity:0;stroke:#ff0000;stroke-width:0.1;stroke-linecap:round;stroke-linejoin:round;stroke-opacity:1"
       d="m 66.6751,56.5547 v -4.1672 m 2.9765,-2.3812 H 84.5344 M 73.2235,62.5079 V 58.936 m -3.5719,0 v -2.3813 m 0,0 h -2.9765 m 17.8593,-2.3812 h -1.7859 m 0,0 V 58.936 M 69.6516,52.3875 v -2.3812 m 3.5719,8.9297 h -3.5719 m 9.525,3.5719 H 73.2235 M 66.6751,52.3875 h 2.9765 m 13.0969,6.5485 h -3.5719 m 5.3578,-8.9297 v 4.1672 m -5.3578,4.7625 v 3.5719" />
    <path
       id="path600"
       style="display:inline;fill:#ff0000;fill-opacity:0;stroke:#ff0000;stroke-width:0.1;stroke-linecap:round;stroke-linejoin:round;stroke-opacity:1"
       d="M 101.7985,58.936 H 98.2266 M 85.7251,52.3875 h 2.9765 m 14.8829,1.786 h -1.786 m -16.0734,2.3812 v -4.1672 m 2.9765,4.1672 h -2.9765 m 6.5484,2.3813 h -3.5719 m 9.525,3.5719 H 92.2735 M 88.7016,58.936 v -2.3813 m 3.5719,5.9532 V 58.936 m 9.525,-4.7625 v 4.7625 m 1.786,-8.9297 v 4.1672 M 88.7016,50.0063 h 14.8829 m -5.3579,8.9297 v 3.5719 m -9.525,-10.1204 v -2.3812" />
    <path
       id="path535"
       style="display:inline;fill:#ff0000;fill-opacity:0;stroke:#ff0000;stroke-width:0.1;stroke-linecap:round;stroke-linejoin:round;stroke-opacity:1"
       d="m 117.2767,58.936 v 3.5719 m 3.5718,-8.3344 v 4.7625 m -16.0734,-2.3813 v -4.1672 m 2.9766,-2.3812 h 14.8828 m -5.3578,12.5016 h -5.9532 m 0,-3.5719 h -3.5718 m -2.9766,-6.5485 h 2.9766 m 14.8828,-2.3812 v 4.1672 m -1.786,4.7625 h -3.5718 m -5.9532,3.5719 V 58.936 m -3.5718,-2.3813 h -2.9766 m 2.9766,2.3813 v -2.3813 m 0,-4.1672 v -2.3812 m 14.8828,4.1672 h -1.786" />
    <path
       id="path569"
       style="display:inline;fill:#ff0000;fill-opacity:0;stroke:#ff0000;stroke-width:0.1;stroke-linecap:round;stroke-linejoin:round;stroke-opacity:1"
       d="m 103.5845,92.2735 h -1.786 M 88.7016,88.1063 h 14.8829 m -5.3579,8.9297 v 3.5719 m -9.525,-3.5719 v -2.3812 m 13.0969,2.3812 h -3.5719 m -5.9531,0 h -3.5719 m 14.8829,-8.9297 v 4.1672 m -11.311,8.3344 V 97.036 m -3.5719,-2.3812 h -2.9765 m 2.9765,-4.1672 v -2.3813 m 9.525,12.5016 h -5.9531 m -6.5484,-5.9531 v -4.1672 m 0,0 h 2.9765 m 13.0969,1.7859 v 4.7625" />
    <path
       id="path646"
       style="display:inline;fill:#ff0000;fill-opacity:0;stroke:#ff0000;stroke-width:0.1;stroke-linecap:round;stroke-linejoin:round;stroke-opacity:1"
       d="m 104.7751,90.4876 h 2.9766 m 14.8828,1.7859 h -1.786 m -13.0968,4.7625 v -2.3812 m 0,-4.1672 v -2.3813 m -2.9766,6.5485 v -4.1672 m 16.0734,6.5484 h -3.5718 m 0,0 v 3.5719 m -9.525,-5.9531 h -2.9766 m 6.5484,2.3812 h -3.5718 m 14.8828,-8.9297 v 4.1672 m -14.8828,-4.1672 h 14.8828 m -1.786,4.1672 v 4.7625 m -9.525,3.5719 V 97.036 m 5.9532,3.5719 h -5.9532" />
    <path
       id="path615"
       style="display:inline;fill:#ff0000;fill-opacity:0;stroke:#ff0000;stroke-width:0.1;stroke-linecap:round;stroke-linejoin:round;stroke-opacity:1"
       d="m 69.6516,107.1563 h 14.8828 m -17.8593,2.3813 h 2.9765 m 14.8828,-2.3813 v 4.1672 m -5.3578,8.3344 h -5.9531 m -3.5719,-10.1203 v -2.3813 m 13.0969,4.1672 v 4.7625 m -13.0969,-2.3812 h -2.9765 m 16.0734,2.3812 h -3.5719 m -5.9531,3.5719 v -3.5719 m 0,0 h -3.5719 m 0,0 v -2.3812 m -2.9765,0 v -4.1672 m 12.5015,6.5484 v 3.5719 m 5.3578,-8.3344 h -1.7859" />
    <path
       id="circle37"
       style="display:inline;fill:#ff0000;fill-opacity:0;stroke:#ff0000;stroke-width:0.1;stroke-linecap:round;stroke-linejoin:round"
       d="m 103.5845,133.3501 a 2.3813,2.3813 0 0 1 -2.3813,2.3813 2.3813,2.3813 0 0 1 -2.381299,-2.3813 2.3813,2.3813 0 0 1 2.381299,-2.3813 2.3813,2.3813 0 0 1 2.3813,2.3813 z" />
    <path
       id="path579"
       style="display:inline;fill:#ff0000;fill-opacity:0;stroke:#ff0000;stroke-width:0.1;stroke-linecap:round;stroke-linejoin:round;stroke-opacity:1"
       d="m 125.611,119.6579 v -10.7156 m 2.9766,10.7156 h -2.9766 m 2.9766,-10.7156 v 10.7156 m -2.9766,-10.7156 h 2.9766" />
    <path
       id="path618"
       style="display:inline;fill:#ff0000;fill-opacity:0;stroke:#ff0000;stroke-width:0.1;stroke-linecap:round;stroke-linejoin:round;stroke-opacity:1"
       d="m 141.0892,108.9423 h -2.9766 m 0,10.7156 h 2.9766 m -2.9766,-10.7156 v 10.7156 m 2.9766,0 v -10.7156" />
    <path
       id="path637"
       style="display:inline;fill:#ff0000;fill-opacity:0;stroke:#ff0000;stroke-width:0.1;stroke-linecap:round;stroke-linejoin:round;stroke-opacity:1"
       d="m 126.8017,128.5876 v -2.3812 m 14.8828,4.1671 h -1.7859 m -13.0969,4.7626 v -2.3813 m 9.525,2.3813 v 3.5718 m -12.5016,-10.1203 h 2.9766 m 13.0969,1.7859 v 4.7626 m -13.0969,-8.9297 h 14.8828 m -5.3578,12.5015 h -5.9532 m 0,-3.5718 h -3.5718 m -2.9766,-2.3813 v -4.1672 m 6.5484,10.1203 v -3.5718 m 11.311,-8.9297 v 4.1671 m -14.8828,2.3813 h -2.9766 m 16.0735,2.3813 h -3.5719" />
    <path
       id="path568"
       style="display:inline;fill:#ff0000;fill-opacity:0;stroke:#ff0000;stroke-width:0.1;stroke-linecap:round;stroke-linejoin:round;stroke-opacity:1"
       d="m 108.9423,120.8485 h -8.3344 m 0,5.9532 h 7.1438 m 13.0968,3.5718 v 4.7626 m -3.5718,0 v 3.5718 m -9.525,-3.5718 v -2.3813 m 1.1906,-6.5484 h 13.6922 m -22.0266,-5.3579 v 5.9532 m 16.6688,11.9062 h -5.9532 m 0,-3.5718 h -3.5718 m 13.0968,0 h -3.5718 m -12.5016,-6.5485 h 2.9766 m 3.5718,10.1203 v -3.5718 m -2.3812,-8.9297 v -5.3579 m 13.6922,5.3579 v 4.1671 m 0,0 h -1.786 m -13.0968,-1.7859 v -1.7859 m -2.9766,5.9531 v -4.1672 m 2.9766,4.1672 h -2.9766" />
    <path
       id="path566"
       style="display:inline;fill:#ff0000;fill-opacity:0;stroke:#ff0000;stroke-width:0.1;stroke-linecap:round;stroke-linejoin:round;stroke-opacity:1"
       d="m 126.8017,51.1969 v 30.9563 m -2.3813,-30.9563 h 2.3813 m -2.3813,30.9563 V 51.1969 m 2.3813,30.9563 h -2.3813" />
    <path
       id="path503"
       style="display:inline;fill:#ff0000;fill-opacity:0;stroke:#ff0000;stroke-width:0.1;stroke-linecap:round;stroke-linejoin:round;stroke-opacity:1"
       d="m 123.8251,89.2969 v -5.9531 m 19.05,0 v 5.9531 m 0,0 h -5.9531 m 0,0 v -2.9765 m -7.1438,2.9765 h -5.9531 m 5.9531,-2.9765 v 2.9765 m -5.9531,-5.9531 h 19.05 m -5.9531,2.9766 h -7.1438" />
    <path
       id="path635"
       style="display:inline;fill:#ff0000;fill-opacity:0;stroke:#ff0000;stroke-width:0.1;stroke-linecap:round;stroke-linejoin:round;stroke-opacity:1"
       d="m 177.9986,58.936 h -3.5719 m 5.3578,-8.9297 v 4.1672 m -1.7859,0 v 4.7625 m 1.7859,-4.7625 h -1.7859 m -16.0735,2.3812 v -4.1672 m 2.9766,0 v -2.3812 m 0,6.5484 h -2.9766 m 2.9766,2.3813 v -2.3813 m 0,-6.5484 h 14.8828 m -11.3109,8.9297 h -3.5719 m -2.9766,-6.5485 h 2.9766 m 3.5719,10.1204 V 58.936 m 5.9531,3.5719 h -5.9531 m 5.9531,-3.5719 v 3.5719" />
    <path
       id="path634"
       style="display:inline;fill:#ff0000;fill-opacity:0;stroke:#ff0000;stroke-width:0.1;stroke-linecap:round;stroke-linejoin:round;stroke-opacity:1"
       d="m 197.0486,58.936 h -3.5719 m -9.525,-6.5485 v -2.3812 m 14.8828,4.1672 h -1.7859 m -13.0969,2.3812 h -2.9765 m 0,-4.1672 h 2.9765 m 0,-2.3812 h 14.8828 M 187.5236,62.5079 V 58.936 m 5.9531,3.5719 h -5.9531 m -6.5484,-5.9532 v -4.1672 m 2.9765,6.5485 v -2.3813 m 14.8828,-6.5484 v 4.1672 m -5.3578,4.7625 v 3.5719 m 3.5719,-8.3344 v 4.7625 m -9.525,0 h -3.5719" />
    <path
       id="path653"
       style="display:inline;fill:#ff0000;fill-opacity:0;stroke:#ff0000;stroke-width:0.1;stroke-linecap:round;stroke-linejoin:round;stroke-opacity:1"
       d="M 187.5236,81.5579 V 77.986 m 11.3109,-4.7625 h -1.7859 m -3.5719,8.3344 h -5.9531 m -3.5719,-10.1203 v -2.3813 m 0,6.5485 h -2.9765 m 2.9765,-6.5485 h 14.8828 m -17.8593,6.5485 v -4.1672 m 16.0734,6.5484 h -3.5719 m -9.525,0 v -2.3812 m 13.0969,-2.3813 v 4.7625 m 1.7859,-8.9297 v 4.1672 m -5.3578,4.7625 v 3.5719 m -5.9531,-3.5719 h -3.5719 m -2.9765,-6.5484 h 2.9765" />
    <path
       id="path608"
       style="display:inline;fill:#ff0000;fill-opacity:0;stroke:#ff0000;stroke-width:0.1;stroke-linecap:round;stroke-linejoin:round;stroke-opacity:1"
       d="m 203.0017,52.3875 v -2.3812 m 13.0969,8.9297 h -3.5719 m -12.5015,-2.3813 v -4.1672 m 12.5015,10.1204 h -5.9531 m 11.311,-8.3344 h -1.786 m -13.0969,4.7625 v -2.3813 m -2.9765,-4.1672 h 2.9765 m 13.0969,1.786 v 4.7625 m -3.5719,0 v 3.5719 m -9.525,-5.9532 h -2.9765 m 17.8594,-6.5484 v 4.1672 m -11.311,4.7625 h -3.5719 m 3.5719,3.5719 V 58.936 m -3.5719,-8.9297 h 14.8829" />
    <path
       id="path589"
       style="display:inline;fill:#ff0000;fill-opacity:0;stroke:#ff0000;stroke-width:0.1;stroke-linecap:round;stroke-linejoin:round;stroke-opacity:1"
       d="m 222.0517,58.936 v -2.3813 m 9.5251,5.9532 h -5.9532 m 11.311,-12.5016 v 4.1672 m -14.8829,-1.786 v -2.3812 m 13.0969,8.9297 h -3.5718 m -5.9532,3.5719 V 58.936 m -3.5719,-8.9297 h 14.8829 m -14.8829,6.5484 h -2.9765 m 6.5484,2.3813 h -3.5719 m -2.9765,-6.5485 h 2.9765 m 13.0969,1.786 v 4.7625 m -16.0734,-2.3813 v -4.1672 m 17.8594,1.786 h -1.786 m -3.5718,4.7625 v 3.5719" />
    <path
       id="path654"
       style="display:inline;fill:#ff0000;fill-opacity:0;stroke:#ff0000;stroke-width:0.1;stroke-linecap:round;stroke-linejoin:round;stroke-opacity:1"
       d="m 236.9346,92.2735 h -1.786 m -13.0969,-4.1672 h 14.8829 m -17.8594,6.5485 v -4.1672 m 6.5484,10.1203 V 97.036 m -3.5719,0 v -2.3812 m 3.5719,2.3812 h -3.5719 m 0,-2.3812 h -2.9765 m 16.0734,2.3812 h -3.5718 m 0,0 v 3.5719 m 3.5718,-8.3344 v 4.7625 m -16.0734,-6.5484 h 2.9765 m 0,0 v -2.3813 m 9.5251,12.5016 h -5.9532 m 11.311,-12.5016 v 4.1672" />
    <path
       id="path630"
       style="display:inline;fill:#ff0000;fill-opacity:0;stroke:#ff0000;stroke-width:0.1;stroke-linecap:round;stroke-linejoin:round;stroke-opacity:1"
       d="m 206.5736,97.036 h -3.5719 m 3.5719,3.5719 V 97.036 m -3.5719,-6.5484 v -2.3813 m 14.8829,4.1672 h -1.786 m -13.0969,2.3813 h -2.9765 m 16.0734,-2.3813 v 4.7625 m 1.786,-8.9297 v 4.1672 m -17.8594,2.3813 v -4.1672 m 12.5015,6.5484 v 3.5719 m -9.525,-3.5719 v -2.3812 m 13.0969,2.3812 h -3.5719 m 0,3.5719 h -5.9531 m -6.5484,-10.1203 h 2.9765 m 0,-2.3813 h 14.8829" />
    <path
       id="path620"
       style="display:inline;fill:#ff0000;fill-opacity:0;stroke:#ff0000;stroke-width:0.1;stroke-linecap:round;stroke-linejoin:round;stroke-opacity:1"
       d="m 205.383,101.7985 h 8.3344 m 0,5.9532 h -8.3344 m 0,0 v -5.9532 m 8.3344,0 v 5.9532" />
    <path
       id="path610"
       style="display:inline;fill:#ff0000;fill-opacity:0;stroke:#ff0000;stroke-width:0.1;stroke-linecap:round;stroke-linejoin:round;stroke-opacity:1"
       d="m 197.0486,97.036 h -3.5719 m -12.5015,-2.3812 v -4.1672 m 17.8593,-2.3813 v 4.1672 m -14.8828,2.3813 h -2.9765 m 6.5484,2.3812 h -3.5719 m 9.525,0 v 3.5719 m -9.525,-12.5016 h 14.8828 m -17.8593,2.3813 h 2.9765 m 13.0969,1.7859 v 4.7625 m -13.0969,-6.5484 v -2.3813 m 14.8828,4.1672 h -1.7859 m -9.525,8.3344 V 97.036 m 5.9531,3.5719 h -5.9531 m -3.5719,-3.5719 v -2.3812" />
    <path
       id="path609"
       style="display:inline;fill:#ff0000;fill-opacity:0;stroke:#ff0000;stroke-width:0.1;stroke-linecap:round;stroke-linejoin:round;stroke-opacity:1"
       d="m 177.9986,97.036 h -3.5719 m 5.3578,-4.7625 h -1.7859 m -13.0969,-1.7859 v -2.3813 m 9.525,8.9297 v 3.5719 m -5.9531,0 V 97.036 m -6.5485,-2.3812 v -4.1672 m 2.9766,-2.3813 h 14.8828 m -14.8828,8.9297 v -2.3812 m 0,0 h -2.9766 m 12.5016,5.9531 h -5.9531 m -6.5485,-10.1203 h 2.9766 m 3.5719,6.5484 h -3.5719 m 14.8828,-8.9297 v 4.1672 m -1.7859,0 v 4.7625" />
    <path
       id="path613"
       style="display:inline;fill:#ff0000;fill-opacity:0;stroke:#ff0000;stroke-width:0.1;stroke-linecap:round;stroke-linejoin:round;stroke-opacity:1"
       d="m 198.8345,111.3235 h -1.7859 m 1.7859,-4.1672 v 4.1672 m -14.8828,-4.1672 h 13.6922 m -0.5953,8.9297 h -3.5719 m 3.5719,-4.7625 v 4.7625 m 1.7859,-8.9297 h 1.1907 m -12.5016,12.5016 v -3.5719 m -3.5719,-6.5484 v -2.3813 m 13.6922,-2.3812 v 2.3812 m 2.3813,1e-4 a 2.3813,2.3813 0 1 0 -2.3813,-2.3813 m -16.6687,4.7625 h 2.9765 m 3.5719,6.5484 h -3.5719 m 0,-2.3812 h -2.9765 m 2.9765,2.3812 v -2.3812 m 9.525,5.9531 h -5.9531 m 5.9531,-3.5719 v 3.5719 m -12.5015,-5.9531 v -4.1672" />
    <path
       id="path563"
       style="display:inline;fill:#ff0000;fill-opacity:0;stroke:#ff0000;stroke-width:0.1;stroke-linecap:round;stroke-linejoin:round;stroke-opacity:1"
       d="m 155.3767,100.6079 h -5.9531 m -6.5485,-5.9531 v -4.1672 m 2.9766,6.5484 v -2.3812 m 3.5719,2.3812 h -3.5719 m 0,-2.3812 h -2.9766 m 2.9766,-4.1672 v -2.3813 m 14.8828,4.1672 h -1.7859 m -3.5719,4.7625 v 3.5719 M 142.8751,90.4876 h 2.9766 m 13.0969,1.7859 v 4.7625 m 1.7859,-8.9297 v 4.1672 m -1.7859,4.7625 h -3.5719 m -5.9531,3.5719 V 97.036 m -3.5719,-8.9297 h 14.8828" />
    <circle
       cx="165.49699"
       cy="133.3501"
       r="2.3813"
       id="circle14"
       style="display:inline;fill:#ff0000;fill-opacity:0;stroke:#ff0000;stroke-width:0.1;stroke-linecap:round;stroke-linejoin:round;stroke-opacity:1" />
    <path
       id="path652"
       style="display:inline;fill:#ff0000;fill-opacity:0;stroke:#ff0000;stroke-width:0.1;stroke-linecap:round;stroke-linejoin:round;stroke-opacity:1"
       d="m 142.8751,132.7548 v -4.1672 m 2.9766,0 v -2.3812 m 13.0969,8.9297 h -3.5719 m -5.9531,0 h -3.5719 m 0,0 v -2.3813 m -2.9766,-4.1672 h 2.9766 m 20.2406,-7.7391 v 5.9532 m -8.3344,-0.5953 v -5.3579 m 2.9766,9.525 h -1.7859 m 0,0 v 4.7626 m 7.1437,-8.3344 h -5.3578 m -14.8828,-0.5953 h 11.9062 m 2.9766,0.5953 v 3.5718 m -14.8828,2.3813 h -2.9766 m 6.5485,5.9531 v -3.5718 m 8.3343,-14.2876 h 8.3344 m -10.7156,17.8594 h -5.9531 m 5.9531,-3.5718 v 3.5718" />
    <path
       id="path647"
       style="display:inline;fill:#ff0000;fill-opacity:0;stroke:#ff0000;stroke-width:0.1;stroke-linecap:round;stroke-linejoin:round;stroke-opacity:1"
       d="m 107.7517,116.086 v -2.3812 m 14.8828,-6.5485 v 4.1672 m -11.311,4.7625 h -3.5718 m 0,-6.5484 v -2.3813 m -2.9766,6.5485 v -4.1672 m 12.5016,10.1203 h -5.9532 m -3.5718,-12.5016 h 14.8828 m -1.786,8.9297 h -3.5718 m 0,0 v 3.5719 m -9.525,-5.9531 h -2.9766 m 6.5484,5.9531 v -3.5719 m 11.311,-4.7625 h -1.786 m 0,0 v 4.7625 m -16.0734,-6.5484 h 2.9766" />
    <path
       id="path554"
       style="display:inline;fill:#ff0000;fill-opacity:0;stroke:#ff0000;stroke-width:0.1;stroke-linecap:round;stroke-linejoin:round;stroke-opacity:1"
       d="m 91.0829,101.7985 h 8.3344 m -10.7157,11.9063 h -2.9765 m 16.0734,2.3812 h -3.5719 m 5.3579,-4.7625 h -1.786 m -16.0734,2.3813 v -4.1672 m 16.6687,-2.3813 v -2.3812 m 1.1907,2.3812 h 1.1906 m -6.5485,8.9297 v 3.5719 m 1.1907,-12.5016 h 2.9765 m 2.3813,1e-4 a 2.3813,2.3813 0 1 0 -2.3813,-2.3813 m -13.6922,4.7625 v -2.3813 m 0,8.9297 v -2.3812 m 13.0969,-2.3813 v 4.7625 m -9.525,3.5719 v -3.5719 m 7.1438,-14.2875 v 5.3578 m 4.1672,0 v 4.1672 m -11.311,4.7625 h -3.5719 m 2.3813,-8.9297 v -5.3578 m -5.3578,7.7391 h 2.9765 m 0,-2.3813 h 2.3813 m 7.1437,12.5016 h -5.9531" />
    <path
       id="path651"
       style="display:inline;fill:#ff0000;fill-opacity:0;stroke:#ff0000;stroke-width:0.1;stroke-linecap:round;stroke-linejoin:round;stroke-opacity:1"
       d="m 52.9829,63.6985 v 5.3578 m -2.3813,0 v 2.3813 m 13.0969,1.7859 h 1.7859 m 0,-4.1672 h -4.1672 m -1.1906,8.9297 h 3.5719 m 1.7859,-4.7625 V 69.0563 M 60.1266,81.5579 V 77.986 m 1.1906,-8.9297 V 63.6985 M 47.625,71.4376 v 4.1672 m 2.9766,-4.1672 H 47.625 M 61.3172,63.6985 H 52.9829 M 50.6016,77.986 h 3.5719 M 47.625,75.6048 h 2.9766 m 13.0969,2.3812 v -4.7625 m -9.525,4.7625 v 3.5719 M 52.9829,69.0563 h -2.3813 m 0,6.5485 v 2.3812 m 3.5719,3.5719 h 5.9531" />
    <path
       id="path650"
       style="display:inline;fill:#ff0000;fill-opacity:0;stroke:#ff0000;stroke-width:0.1;stroke-linecap:round;stroke-linejoin:round;stroke-opacity:1"
       d="m 117.2767,77.986 v 3.5719 M 104.7751,71.4376 h 2.9766 m 3.5718,10.1203 V 77.986 m 11.311,-4.7625 h -1.786 m -13.0968,4.7625 v -2.3812 m 9.525,5.9531 h -5.9532 m 9.525,-3.5719 h -3.5718 m -12.5016,-2.3812 v -4.1672 m 2.9766,4.1672 h -2.9766 m 6.5484,2.3812 h -3.5718 m 14.8828,-8.9297 v 4.1672 m -1.786,0 v 4.7625 m -13.0968,-8.9297 h 14.8828 m -14.8828,2.3813 v -2.3813" />
    <path
       id="path576"
       style="display:inline;fill:#ff0000;fill-opacity:0;stroke:#ff0000;stroke-width:0.1;stroke-linecap:round;stroke-linejoin:round;stroke-opacity:1"
       d="m 104.7751,69.0564 a 2.3813,2.3813 0 1 0 -2.3813,-2.3813 m -13.6922,4.7625 v -2.3813 m 10.7157,0 v -5.3578 m 2.3812,14.2875 H 98.2266 M 85.7251,75.6048 v -4.1672 m 2.9765,6.5484 V 75.6048 M 99.4173,63.6985 h -8.3344 m 13.6922,5.3578 h -1.1906 m -1.786,4.1672 v 4.7625 m -3.5719,0 v 3.5719 m 1.1907,-12.5016 h 2.9765 M 92.2735,81.5579 V 77.986 m 11.311,-8.9297 v 4.1672 M 88.7016,69.0563 h 2.3813 m 12.5016,4.1672 h -1.786 M 85.7251,71.4376 h 2.9765 m 0,4.1672 h -2.9765 m 16.6687,-8.9297 v 2.3812 M 91.0829,63.6985 v 5.3578 m 1.1906,8.9297 h -3.5719 m 9.525,3.5719 h -5.9531" />
    <path
       id="path642"
       style="display:inline;fill:#ff0000;fill-opacity:0;stroke:#ff0000;stroke-width:0.1;stroke-linecap:round;stroke-linejoin:round;stroke-opacity:1"
       d="m 179.7845,107.1563 v 4.1672 m -14.8828,2.3813 h -2.9766 m 12.5016,2.3812 v 3.5719 m 5.3578,-8.3344 h -1.7859 m -2.3813,-4.1672 v -5.3578 m -13.6922,7.7391 h 2.9766 m 13.0969,1.7859 v 4.7625 m 0,0 h -3.5719 m -5.9531,3.5719 v -3.5719 m 7.1437,-8.9297 h 4.1672 m -17.8594,6.5485 v -4.1672 m 13.6922,-7.7391 h -8.3343 m 0,0 v 5.3578 m 7.1437,12.5016 h -5.9531 m -1.1906,-12.5016 h -2.3813 m 0,8.9297 v -2.3812 m 3.5719,2.3812 h -3.5719 m 0,-6.5484 v -2.3813" />
    <path
       id="path636"
       style="display:inline;fill:#ff0000;fill-opacity:0;stroke:#ff0000;stroke-width:0.1;stroke-linecap:round;stroke-linejoin:round;stroke-opacity:1"
       d="m 161.9251,107.1563 a 2.3812,2.3812 0 1 0 -2.3812,-2.3812 m -10.1203,14.8828 v -3.5719 m -3.5719,-6.5484 v -2.3813 m 3.5719,8.9297 h -3.5719 m -2.9766,-6.5484 h 2.9766 m 0,6.5484 v -2.3812 m 14.8828,-6.5485 v 4.1672 m -1.1906,-6.5484 v 2.3812 m -0.5953,8.9297 h -3.5719 m 0,0 v 3.5719 m 3.5719,-8.3344 v 4.7625 m 1.7859,-8.9297 h 1.1906 m -6.5484,12.5016 h -5.9531 m -3.5719,-5.9531 h -2.9766 m 0,0 v -4.1672 m 17.8594,1.7859 h -1.7859 m -13.0969,-4.1672 h 13.6922" />
    <path
       id="path593"
       style="display:inline;fill:#ff0000;fill-opacity:0;stroke:#ff0000;stroke-width:0.1;stroke-linecap:round;stroke-linejoin:round;stroke-opacity:1"
       d="m 236.9346,73.2235 h -1.786 m -9.525,4.7625 h -3.5719 m 0,-8.9297 h 14.8829 m -17.8594,6.5485 v -4.1672 m 16.0734,1.7859 v 4.7625 m -9.525,3.5719 V 77.986 m 9.525,0 h -3.5718 m 0,0 v 3.5719 m 0,0 h -5.9532 m -3.5719,-5.9531 h -2.9765 m 2.9765,2.3812 v -2.3812 m -2.9765,-4.1672 h 2.9765 m 0,0 v -2.3813 m 14.8829,0 v 4.1672" />
    <path
       id="path614"
       style="display:inline;fill:#ff0000;fill-opacity:0;stroke:#ff0000;stroke-width:0.1;stroke-linecap:round;stroke-linejoin:round;stroke-opacity:1"
       d="M 206.5736,81.5579 V 77.986 m 5.9531,3.5719 h -5.9531 m 9.525,-3.5719 h -3.5719 m -12.5015,-2.3812 v -4.1672 m 16.0734,1.7859 v 4.7625 m 1.786,-4.7625 h -1.786 m -13.0969,2.3813 h -2.9765 m 19.05,-6.5484 a 2.3813,2.3813 0 1 0 -2.3813,-2.3813 m 0,0 v 2.3812 M 205.383,63.6985 h 8.3344 M 203.0017,77.986 v -2.3812 m 10.7157,-11.9063 v 5.3578 m 0,0 h 2.9765 m 1.1907,0 v 4.1672 M 205.383,69.0563 h -2.3813 m 14.8829,0 h 1.1906 m -13.6922,0 v -5.3578 m 7.1437,14.2875 v 3.5719 m -9.525,-10.1203 v -2.3813 m 3.5719,8.9297 h -3.5719 m -2.9765,-6.5484 h 2.9765" />
    <path
       id="path640"
       style="display:inline;fill:#ff0000;fill-opacity:0;stroke:#ff0000;stroke-width:0.1;stroke-linecap:round;stroke-linejoin:round;stroke-opacity:1"
       d="m 161.9251,71.4376 h 2.9766 m 0,0 v -2.3813 m 9.525,8.9297 v 3.5719 m -5.9531,-3.5719 h -3.5719 m 10.7156,-14.2875 v 5.3578 m -8.3343,0 h -2.3813 m 10.7156,0 h 4.1672 m 0,4.1672 h -1.7859 m -13.0969,4.7625 v -2.3812 m 9.525,5.9531 h -5.9531 M 167.283,69.0563 v -5.3578 m 10.7156,14.2875 h -3.5719 m -12.5016,-2.3812 v -4.1672 m 16.0735,1.7859 v 4.7625 m -9.525,3.5719 V 77.986 m 11.3109,-8.9297 v 4.1672 m -12.5015,-9.525 h 8.3343 m -10.7156,11.9063 h -2.9766" />
    <path
       id="path644"
       style="display:inline;fill:#ff0000;fill-opacity:0;stroke:#ff0000;stroke-width:0.1;stroke-linecap:round;stroke-linejoin:round;stroke-opacity:1"
       d="m 158.9486,54.1735 v 4.7625 m 1.7859,10.1203 h 1.1906 M 145.8517,52.3875 v -2.3812 m -5.9531,32.1469 V 51.1969 m 5.9531,5.3578 h -3.5719 m 3.5719,19.0501 h -3.5719 m 0,0 v 6.5484 M 158.9486,58.936 h -3.5719 m -9.525,12.5016 v -2.3813 m 13.0969,8.9297 h -3.5719 m 0,-19.05 v 3.5719 m -9.525,-12.5016 h 14.8828 m 0,23.2172 h -1.7859 m -9.525,8.3344 V 77.986 m -3.5719,0 v -2.3812 m 0,-16.6688 v -2.3813 m 9.525,25.0032 h -5.9531 m 10.1203,-14.8828 v 2.3812 m -10.1203,8.9297 h -3.5719 m 3.5719,-15.4781 V 58.936 m 11.3109,-4.7625 h -1.7859 m -16.6688,17.2641 h 3.5719 m 13.0969,1.7859 v 4.7625 m 2.9765,-8.9297 a 2.3812,2.3812 0 1 0 -2.3812,-2.3812 M 149.4236,58.936 h -3.5719 m -3.5719,-6.5485 h 3.5719 m 9.525,25.5985 v 3.5719 M 142.2798,71.4376 V 56.5547 m 18.4547,12.5016 v 4.1672 m 0,-23.2172 v 4.1672 m -5.3578,8.3344 h -5.9531 m -7.1438,19.6453 h -2.3812 m 2.3812,-29.7657 v -1.1906 m 3.5719,17.8594 h 13.6922 M 139.8986,51.1969 h 2.3812" />
  </g>
  <metadata
     id="metadata659">
    <rdf:RDF>
      <cc:Work
         rdf:about="">
        <dc:title>SVG Image created as Orthumb39.kicadqqqq_pcb-Edge_Cuts.svg date 2023/10/27 22:26:38 </dc:title>
      </cc:Work>
    </rdf:RDF>
  </metadata>
  <text
     xml:space="preserve"
     style="font-size:4.9389px;fill:#000000;fill-opacity:1;fill-rule:evenodd;stroke:#000000;stroke-width:0.264583"
     x="30.515923"
     y="32.044212"
     id="text157"><tspan
       sodipodi:role="line"
       id="tspan157"
       style="fill:#000000;fill-opacity:1;stroke:#000000;stroke-width:0.264583"
       x="30.515923"
       y="32.044212">Width:209.55mm</tspan><tspan
       sodipodi:role="line"
       style="fill:#000000;fill-opacity:1;stroke:#000000;stroke-width:0.264583"
       x="30.515923"
       y="38.217838"
       id="tspan158">Height:95.25mm</tspan></text>
  <text
     xml:space="preserve"
     style="font-size:4.9389px;white-space:pre;inline-size:59.0272;display:inline;fill:#ff0000;fill-opacity:1;fill-rule:evenodd;stroke:#ff0000;stroke-width:0.264583"
     x="112.51472"
     y="12.420456"
     id="text159"
     transform="translate(-12.225066,20.171718)"><tspan
       x="112.51472"
       y="12.420456"
       id="tspan2">Redcolor Cutting</tspan></text>
</svg>
