<?xml version="1.0" encoding="UTF-8" standalone="no"?>
<svg
   version="1.1"
   width="297.0022mm"
   height="210.0072mm"
   viewBox="0.0000 0.0000 297.0022 210.0072"
   id="svg241"
   sodipodi:docname="Orthumb39_top.svg"
   inkscape:version="1.3 (0e150ed6c4, 2023-07-21)"
   xmlns:inkscape="http://www.inkscape.org/namespaces/inkscape"
   xmlns:sodipodi="http://sodipodi.sourceforge.net/DTD/sodipodi-0.dtd"
   xmlns="http://www.w3.org/2000/svg"
   xmlns:svg="http://www.w3.org/2000/svg"
   xmlns:rdf="http://www.w3.org/1999/02/22-rdf-syntax-ns#"
   xmlns:cc="http://creativecommons.org/ns#"
   xmlns:dc="http://purl.org/dc/elements/1.1/">
  <defs
     id="defs241" />
  <sodipodi:namedview
     id="namedview241"
     pagecolor="#ffffff"
     bordercolor="#000000"
     borderopacity="0.25"
     inkscape:showpageshadow="2"
     inkscape:pageopacity="0.0"
     inkscape:pagecheckerboard="0"
     inkscape:deskcolor="#d1d1d1"
     inkscape:document-units="mm"
     inkscape:zoom="0.65512046"
     inkscape:cx="349.55403"
     inkscape:cy="307.57702"
     inkscape:window-width="1920"
     inkscape:window-height="1009"
     inkscape:window-x="-8"
     inkscape:window-y="-8"
     inkscape:window-maximized="1"
     inkscape:current-layer="layer1" />
  <title
     id="title1">SVG Image created as topOrthumb39-Edge_Cuts.svg date 2023/11/01 21:47:40 </title>
  <desc
     id="desc1">Image generated by PCBNEW </desc>
  <g
     style="fill:#000000; fill-opacity:1.0000;stroke:#000000; stroke-opacity:1.0000; stroke-linecap:round; stroke-linejoin:round;"
     transform="translate(0 0) scale(1 1)"
     id="g1" />
  <g
     style="fill:#000000; fill-opacity:0.0;  stroke:#000000; stroke-width:0.0000; stroke-opacity:1;  stroke-linecap:round; stroke-linejoin:round;"
     id="g2" />
  <path
     id="path43"
     style="fill:#000000;fill-opacity:0;stroke:#ff0000;stroke-width:0.15;stroke-linecap:round;stroke-linejoin:round;stroke-opacity:1"
     d="m 197.6437,123.825 a 8.1297,8.1297 0 0 0 5.7489,-2.3812 M 30.9562,104.775 h 11.9063 m 66.675,38.1 h 47.625 M 48.6113,107.1562 a 8.1301,8.1301 0 0 0 -5.7488,-2.3812 m 137.1262,21.4312 -17.0774,14.2876 m 72.8324,-35.7188 a 2.3813,2.3813 0 0 0 2.3813,-2.3813 m -20.0363,4.7625 -14.6961,14.2876 m -46.2301,21.4312 a 8.1302,8.1302 0 0 0 5.7488,-2.3812 M 238.125,102.3937 V 50.0062 M 197.6437,123.825 H 185.7375 M 142.8751,48.8157 V 89.2969 M 238.125,50.0063 a 2.3813,2.3813 0 0 0 -2.3813,-2.3813 m -111.9185,1.1907 a 1.1907,1.1907 0 0 0 -1.1907,-1.1907 m -35.9232,78.5812 17.0774,14.2876 M 122.6345,47.625 H 30.9562 m 0,0 a 2.3813,2.3813 0 0 0 -2.3812,2.3812 m 40.4812,73.8188 h 11.9063 m 22.8262,16.6688 a 8.1301,8.1301 0 0 0 5.7488,2.3812 m 34.5282,-95.25 h 91.678 m -187.1324,59.5312 14.6961,14.2876 m 80.7583,-73.8187 a 1.1906,1.1906 0 0 0 -1.1906,1.1906 m -79.5677,72.6281 a 8.1301,8.1301 0 0 0 5.7488,2.3812 m 73.8189,-34.5281 h -19.05 m 61.9124,34.5281 a 8.13,8.13 0 0 0 -5.7488,2.3812 M 28.575,102.3937 a 2.3813,2.3813 0 0 0 2.3812,2.3813 M 123.8251,89.2969 V 48.8157 m -37.1138,77.3905 a 8.1301,8.1301 0 0 0 -5.7488,-2.3812 m 142.875,-19.05 h 11.9062 m -11.9062,0 a 8.1301,8.1301 0 0 0 -5.7488,2.3812 M 28.575,50.0062 v 52.3875" />
  <g
     id="g199"
     style="fill:#000000;fill-opacity:0;stroke:#ff0000;stroke-width:0.15;stroke-linecap:round;stroke-linejoin:round;stroke-opacity:1" />
  <g
     id="g200"
     style="fill:#000000;fill-opacity:0;stroke:#ff0000;stroke-width:0.15;stroke-linecap:round;stroke-linejoin:round;stroke-opacity:1" />
  <g
     id="g201"
     style="fill:#000000;fill-opacity:0;stroke:#ff0000;stroke-width:0.15;stroke-linecap:round;stroke-linejoin:round;stroke-opacity:1" />
  <g
     id="g202"
     style="fill:#000000;fill-opacity:0;stroke:#ff0000;stroke-width:0.15;stroke-linecap:round;stroke-linejoin:round;stroke-opacity:1" />
  <g
     id="g203"
     style="fill:#000000;fill-opacity:0;stroke:#ff0000;stroke-width:0.15;stroke-linecap:round;stroke-linejoin:round;stroke-opacity:1" />
  <g
     id="g204"
     style="fill:#000000;fill-opacity:0;stroke:#ff0000;stroke-width:0.15;stroke-linecap:round;stroke-linejoin:round;stroke-opacity:1" />
  <g
     id="g205"
     style="fill:#000000;fill-opacity:0;stroke:#ff0000;stroke-width:0.15;stroke-linecap:round;stroke-linejoin:round;stroke-opacity:1" />
  <g
     id="g206"
     style="fill:#000000;fill-opacity:0;stroke:#ff0000;stroke-width:0.15;stroke-linecap:round;stroke-linejoin:round;stroke-opacity:1" />
  <g
     id="g207"
     style="fill:#000000;fill-opacity:0;stroke:#ff0000;stroke-width:0.15;stroke-linecap:round;stroke-linejoin:round;stroke-opacity:1" />
  <g
     id="g208"
     style="fill:#000000;fill-opacity:0;stroke:#ff0000;stroke-width:0.15;stroke-linecap:round;stroke-linejoin:round;stroke-opacity:1" />
  <g
     id="g209"
     style="fill:#000000;fill-opacity:0;stroke:#ff0000;stroke-width:0.15;stroke-linecap:round;stroke-linejoin:round;stroke-opacity:1" />
  <g
     id="g210"
     style="fill:#000000;fill-opacity:0;stroke:#ff0000;stroke-width:0.15;stroke-linecap:round;stroke-linejoin:round;stroke-opacity:1" />
  <g
     id="g211"
     style="fill:#000000;fill-opacity:0;stroke:#ff0000;stroke-width:0.15;stroke-linecap:round;stroke-linejoin:round;stroke-opacity:1" />
  <g
     id="g212"
     style="fill:#000000;fill-opacity:0;stroke:#ff0000;stroke-width:0.15;stroke-linecap:round;stroke-linejoin:round;stroke-opacity:1" />
  <g
     id="g213"
     style="fill:#000000;fill-opacity:0;stroke:#ff0000;stroke-width:0.15;stroke-linecap:round;stroke-linejoin:round;stroke-opacity:1" />
  <g
     id="g214"
     style="fill:#000000;fill-opacity:0;stroke:#ff0000;stroke-width:0.15;stroke-linecap:round;stroke-linejoin:round;stroke-opacity:1" />
  <g
     id="g215"
     style="fill:#000000;fill-opacity:0;stroke:#ff0000;stroke-width:0.15;stroke-linecap:round;stroke-linejoin:round;stroke-opacity:1" />
  <g
     id="g216"
     style="fill:#000000;fill-opacity:0;stroke:#ff0000;stroke-width:0.15;stroke-linecap:round;stroke-linejoin:round;stroke-opacity:1" />
  <g
     id="g217"
     style="fill:#000000;fill-opacity:0;stroke:#ff0000;stroke-width:0.15;stroke-linecap:round;stroke-linejoin:round;stroke-opacity:1" />
  <g
     id="g218"
     style="fill:#000000;fill-opacity:0;stroke:#ff0000;stroke-width:0.15;stroke-linecap:round;stroke-linejoin:round;stroke-opacity:1" />
  <g
     id="g219"
     style="fill:#000000;fill-opacity:0;stroke:#ff0000;stroke-width:0.15;stroke-linecap:round;stroke-linejoin:round;stroke-opacity:1" />
  <g
     id="g220"
     style="fill:#000000;fill-opacity:0;stroke:#ff0000;stroke-width:0.15;stroke-linecap:round;stroke-linejoin:round;stroke-opacity:1" />
  <g
     id="g221"
     style="fill:#000000;fill-opacity:0;stroke:#ff0000;stroke-width:0.15;stroke-linecap:round;stroke-linejoin:round;stroke-opacity:1" />
  <g
     id="g222"
     style="fill:#000000;fill-opacity:0;stroke:#ff0000;stroke-width:0.15;stroke-linecap:round;stroke-linejoin:round;stroke-opacity:1" />
  <g
     id="g223"
     style="fill:#000000;fill-opacity:0;stroke:#ff0000;stroke-width:0.15;stroke-linecap:round;stroke-linejoin:round;stroke-opacity:1" />
  <g
     id="g224"
     style="fill:#000000;fill-opacity:0;stroke:#ff0000;stroke-width:0.15;stroke-linecap:round;stroke-linejoin:round;stroke-opacity:1" />
  <g
     id="g225"
     style="fill:#000000;fill-opacity:0;stroke:#ff0000;stroke-width:0.15;stroke-linecap:round;stroke-linejoin:round;stroke-opacity:1" />
  <g
     id="g226"
     style="fill:#000000;fill-opacity:0;stroke:#ff0000;stroke-width:0.15;stroke-linecap:round;stroke-linejoin:round;stroke-opacity:1" />
  <g
     id="g227"
     style="fill:#000000;fill-opacity:0;stroke:#ff0000;stroke-width:0.15;stroke-linecap:round;stroke-linejoin:round;stroke-opacity:1" />
  <g
     id="g228"
     style="fill:#000000;fill-opacity:0;stroke:#ff0000;stroke-width:0.15;stroke-linecap:round;stroke-linejoin:round;stroke-opacity:1" />
  <g
     id="g229"
     style="fill:#000000;fill-opacity:0;stroke:#ff0000;stroke-width:0.15;stroke-linecap:round;stroke-linejoin:round;stroke-opacity:1" />
  <g
     id="g230"
     style="fill:#000000;fill-opacity:0;stroke:#ff0000;stroke-width:0.15;stroke-linecap:round;stroke-linejoin:round;stroke-opacity:1" />
  <g
     id="g231"
     style="fill:#000000;fill-opacity:0;stroke:#ff0000;stroke-width:0.15;stroke-linecap:round;stroke-linejoin:round;stroke-opacity:1" />
  <g
     id="g232"
     style="fill:#000000;fill-opacity:0;stroke:#ff0000;stroke-width:0.15;stroke-linecap:round;stroke-linejoin:round;stroke-opacity:1" />
  <g
     id="g233"
     style="fill:#000000;fill-opacity:0;stroke:#ff0000;stroke-width:0.15;stroke-linecap:round;stroke-linejoin:round;stroke-opacity:1" />
  <g
     id="g234"
     style="fill:#000000;fill-opacity:0;stroke:#ff0000;stroke-width:0.15;stroke-linecap:round;stroke-linejoin:round;stroke-opacity:1" />
  <g
     id="g235"
     style="fill:#000000;fill-opacity:0;stroke:#ff0000;stroke-width:0.15;stroke-linecap:round;stroke-linejoin:round;stroke-opacity:1" />
  <g
     id="g236"
     style="fill:#000000;fill-opacity:0;stroke:#ff0000;stroke-width:0.15;stroke-linecap:round;stroke-linejoin:round;stroke-opacity:1" />
  <g
     id="g237"
     style="fill:#000000;fill-opacity:0;stroke:#ff0000;stroke-width:0.15;stroke-linecap:round;stroke-linejoin:round;stroke-opacity:1" />
  <g
     id="g238"
     style="fill:#000000;fill-opacity:0;stroke:#ff0000;stroke-width:0.15;stroke-linecap:round;stroke-linejoin:round;stroke-opacity:1" />
  <g
     id="g239"
     style="fill:#000000;fill-opacity:0;stroke:#ff0000;stroke-width:0.15;stroke-linecap:round;stroke-linejoin:round;stroke-opacity:1" />
  <g
     id="g240"
     style="fill:#000000;fill-opacity:0;stroke:#ff0000;stroke-width:0.15;stroke-linecap:round;stroke-linejoin:round;stroke-opacity:1" />
  <g
     inkscape:groupmode="layer"
     id="layer1"
     inkscape:label="inner"
     style="display:inline">
    <circle
       cx="161.92509"
       cy="66.675102"
       r="2.2"
       id="circle24"
       style="display:inline;fill:#000000;fill-opacity:0;stroke:#ff0000;stroke-width:0.15;stroke-linecap:round;stroke-linejoin:round;stroke-opacity:1" />
    <circle
       cx="219.0752"
       cy="66.675102"
       r="2.2"
       id="circle7"
       style="fill:#000000;fill-opacity:0;stroke:#ff0000;stroke-width:0.15;stroke-linecap:round;stroke-linejoin:round;stroke-opacity:1" />
    <circle
       cx="161.92509"
       cy="104.7751"
       r="2.2"
       id="circle40"
       style="fill:#000000;fill-opacity:0;stroke:#ff0000;stroke-width:0.15;stroke-linecap:round;stroke-linejoin:round;stroke-opacity:1" />
    <circle
       cx="200.02521"
       cy="104.7751"
       r="2.2"
       id="circle36"
       style="fill:#000000;fill-opacity:0;stroke:#ff0000;stroke-width:0.15;stroke-linecap:round;stroke-linejoin:round;stroke-opacity:1" />
    <circle
       cx="165.49699"
       cy="133.3501"
       r="2.2"
       id="circle38"
       style="fill:#000000;fill-opacity:0;stroke:#ff0000;stroke-width:0.15;stroke-linecap:round;stroke-linejoin:round;stroke-opacity:1" />
    <circle
       cx="104.7751"
       cy="66.675102"
       r="2.2"
       id="circle20"
       style="fill:#000000;fill-opacity:0;stroke:#ff0000;stroke-width:0.15;stroke-linecap:round;stroke-linejoin:round;stroke-opacity:1" />
    <circle
       cx="104.7751"
       cy="104.7751"
       r="2.2"
       id="circle21"
       style="fill:#000000;fill-opacity:0;stroke:#ff0000;stroke-width:0.15;stroke-linecap:round;stroke-linejoin:round;stroke-opacity:1" />
    <circle
       cx="101.2032"
       cy="133.3501"
       r="2.2"
       id="circle18"
       style="fill:#000000;fill-opacity:0;stroke:#ff0000;stroke-width:0.15;stroke-linecap:round;stroke-linejoin:round;stroke-opacity:1" />
    <circle
       cx="66.675102"
       cy="104.7751"
       r="2.2"
       id="circle19"
       style="fill:#000000;fill-opacity:0;stroke:#ff0000;stroke-width:0.15;stroke-linecap:round;stroke-linejoin:round;stroke-opacity:1" />
    <circle
       cx="47.625"
       cy="66.675102"
       r="2.2"
       id="circle22"
       style="fill:#000000;fill-opacity:0;stroke:#ff0000;stroke-width:0.15;stroke-linecap:round;stroke-linejoin:round;stroke-opacity:1" />
    <path
       id="path195"
       style="fill:#000000;fill-opacity:0;stroke:#ff0000;stroke-width:0.15;stroke-linecap:round;stroke-linejoin:round;stroke-opacity:1"
       d="M 102.3,83.25 H 88.2 m 14.1,-14.1 v 14.1 m -14.1,0 v -14.1 m 0,0 h 14.1" />
    <path
       id="path191"
       style="fill:#000000;fill-opacity:0;stroke:#ff0000;stroke-width:0.15;stroke-linecap:round;stroke-linejoin:round;stroke-opacity:1"
       d="M 102.3,64.2 H 88.2 m 14.1,-14.1 v 14.1 m -14.1,0 V 50.1 m 0,0 h 14.1" />
    <path
       id="path111"
       style="fill:#000000;fill-opacity:0;stroke:#ff0000;stroke-width:0.15;stroke-linecap:round;stroke-linejoin:round;stroke-opacity:1"
       d="m 121.35,64.2 h -14.1 m 14.1,-14.1 v 14.1 m -14.1,0 V 50.1 m 0,0 h 14.1" />
    <path
       id="path175"
       style="fill:#000000;fill-opacity:0;stroke:#ff0000;stroke-width:0.15;stroke-linecap:round;stroke-linejoin:round;stroke-opacity:1"
       d="m 121.35,83.25 h -14.1 m 14.1,-14.1 v 14.1 m -14.1,0 v -14.1 m 0,0 h 14.1" />
    <path
       id="path151"
       style="fill:#000000;fill-opacity:0;stroke:#ff0000;stroke-width:0.15;stroke-linecap:round;stroke-linejoin:round;stroke-opacity:1"
       d="m 83.25,64.2 h -14.1 m 14.1,-14.1 v 14.1 m -14.1,0 V 50.1 m 0,0 h 14.1" />
    <path
       id="path91"
       style="fill:#000000;fill-opacity:0;stroke:#ff0000;stroke-width:0.15;stroke-linecap:round;stroke-linejoin:round;stroke-opacity:1"
       d="m 83.25,83.25 h -14.1 m 14.1,-14.1 v 14.1 m -14.1,0 v -14.1 m 0,0 h 14.1" />
    <path
       id="path67"
       style="fill:#000000;fill-opacity:0;stroke:#ff0000;stroke-width:0.15;stroke-linecap:round;stroke-linejoin:round;stroke-opacity:1"
       d="M 102.3,102.3 H 88.2 m 14.1,-14.1 v 14.1 m -14.1,0 V 88.2 m 0,0 h 14.1" />
    <path
       id="path147"
       style="fill:#000000;fill-opacity:0;stroke:#ff0000;stroke-width:0.15;stroke-linecap:round;stroke-linejoin:round;stroke-opacity:1"
       d="m 83.25,102.3 h -14.1 m 14.1,-14.1 v 14.1 m -14.1,0 V 88.2 m 0,0 h 14.1" />
    <path
       id="path159"
       style="fill:#000000;fill-opacity:0;stroke:#ff0000;stroke-width:0.15;stroke-linecap:round;stroke-linejoin:round;stroke-opacity:1"
       d="m 83.25,121.35 h -14.1 m 14.1,-14.1 v 14.1 m -14.1,0 v -14.1 m 0,0 h 14.1" />
    <path
       id="path183"
       style="fill:#000000;fill-opacity:0;stroke:#ff0000;stroke-width:0.15;stroke-linecap:round;stroke-linejoin:round;stroke-opacity:1"
       d="M 102.3,121.35 H 88.2 m 14.1,-14.1 v 14.1 m -14.1,0 v -14.1 m 0,0 h 14.1" />
    <path
       id="path127"
       style="fill:#000000;fill-opacity:0;stroke:#ff0000;stroke-width:0.15;stroke-linecap:round;stroke-linejoin:round;stroke-opacity:1"
       d="M 64.2,102.3 H 50.1 M 64.2,88.2 v 14.1 m -14.1,0 V 88.2 m 0,0 h 14.1" />
    <path
       id="path103"
       style="fill:#000000;fill-opacity:0;stroke:#ff0000;stroke-width:0.15;stroke-linecap:round;stroke-linejoin:round;stroke-opacity:1"
       d="M 64.2,83.25 H 50.1 m 14.1,-14.1 v 14.1 m -14.1,0 v -14.1 m 0,0 h 14.1" />
    <path
       id="path171"
       style="fill:#000000;fill-opacity:0;stroke:#ff0000;stroke-width:0.15;stroke-linecap:round;stroke-linejoin:round;stroke-opacity:1"
       d="M 64.2,64.2 H 50.1 M 64.2,50.1 v 14.1 m -14.1,0 V 50.1 m 0,0 h 14.1" />
    <path
       id="path167"
       style="fill:#000000;fill-opacity:0;stroke:#ff0000;stroke-width:0.15;stroke-linecap:round;stroke-linejoin:round;stroke-opacity:1"
       d="m 121.35,102.3 h -14.1 m 14.1,-14.1 v 14.1 m -14.1,0 V 88.2 m 0,0 h 14.1" />
    <path
       id="path119"
       style="fill:#000000;fill-opacity:0;stroke:#ff0000;stroke-width:0.15;stroke-linecap:round;stroke-linejoin:round;stroke-opacity:1"
       d="m 121.35,121.35 h -14.1 m 14.1,-14.1 v 14.1 m -14.1,0 v -14.1 m 0,0 h 14.1" />
    <path
       id="path55"
       style="fill:#000000;fill-opacity:0;stroke:#ff0000;stroke-width:0.15;stroke-linecap:round;stroke-linejoin:round;stroke-opacity:1"
       d="m 45.15,64.2 h -14.1 m 14.1,-14.1 v 14.1 m -14.1,0 V 50.1 m 0,0 h 14.1" />
    <path
       id="path155"
       style="fill:#000000;fill-opacity:0;stroke:#ff0000;stroke-width:0.15;stroke-linecap:round;stroke-linejoin:round;stroke-opacity:1"
       d="m 45.15,83.25 h -14.1 m 14.1,-14.1 v 14.1 m -14.1,0 v -14.1 m 0,0 h 14.1" />
    <path
       id="path87"
       style="fill:#000000;fill-opacity:0;stroke:#ff0000;stroke-width:0.15;stroke-linecap:round;stroke-linejoin:round;stroke-opacity:1"
       d="m 45.15,102.3 h -14.1 m 14.1,-14.1 v 14.1 m -14.1,0 V 88.2 m 0,0 h 14.1" />
    <path
       id="path42"
       style="fill:#000000;fill-opacity:0;stroke:#ff0000;stroke-width:0.15;stroke-linecap:round;stroke-linejoin:round;stroke-opacity:1"
       d="m 141.6845,98.822 -1.7859,3.5718 M 125.0157,98.822 v -2.3813 m 0,0 1.786,-3.5719 m 13.0969,0 1.7859,3.5719 m -1.7859,5.9531 h -13.0969 m 14.8828,-5.9531 v 2.3813 m -14.8828,-5.9532 h 13.0969 m -13.0969,9.525 -1.786,-3.5718" />
    <path
       id="path40"
       style="fill:#000000;fill-opacity:0;stroke:#ff0000;stroke-width:0.15;stroke-linecap:round;stroke-linejoin:round;stroke-opacity:1"
       d="m 141.6845,105.9657 v 16.6688 m -16.6688,-16.6688 h 16.6688 m 0,16.6688 h -16.6688 m 0,0 v -16.6688" />
    <path
       id="path75"
       style="fill:#000000;fill-opacity:0;stroke:#ff0000;stroke-width:0.15;stroke-linecap:round;stroke-linejoin:round;stroke-opacity:1"
       d="m 121.35,140.4 h -14.1 m 14.1,-14.1 v 14.1 m -14.1,0 v -14.1 m 0,0 h 14.1" />
    <path
       id="path63"
       style="fill:#000000;fill-opacity:0;stroke:#ff0000;stroke-width:0.15;stroke-linecap:round;stroke-linejoin:round;stroke-opacity:1"
       d="m 140.4,140.4 h -14.1 m 14.1,-14.1 v 14.1 m -14.1,0 v -14.1 m 0,0 h 14.1" />
    <path
       id="path163"
       style="fill:#000000;fill-opacity:0;stroke:#ff0000;stroke-width:0.15;stroke-linecap:round;stroke-linejoin:round;stroke-opacity:1"
       d="m 159.45,140.4 h -14.1 m 14.1,-14.1 v 14.1 m -14.1,0 v -14.1 m 0,0 h 14.1" />
    <path
       id="path115"
       style="fill:#000000;fill-opacity:0;stroke:#ff0000;stroke-width:0.15;stroke-linecap:round;stroke-linejoin:round;stroke-opacity:1"
       d="m 159.45,121.35 h -14.1 m 14.1,-14.1 v 14.1 m -14.1,0 v -14.1 m 0,0 h 14.1" />
    <path
       id="path179"
       style="fill:#000000;fill-opacity:0;stroke:#ff0000;stroke-width:0.15;stroke-linecap:round;stroke-linejoin:round;stroke-opacity:1"
       d="m 159.45,102.3 h -14.1 m 14.1,-14.1 v 14.1 m -14.1,0 V 88.2 m 0,0 h 14.1" />
    <path
       id="path199"
       style="fill:#000000;fill-opacity:0;stroke:#ff0000;stroke-width:0.15;stroke-linecap:round;stroke-linejoin:round;stroke-opacity:1"
       d="m 159.45,83.25 h -14.1 m 14.1,-14.1 v 14.1 m -14.1,0 v -14.1 m 0,0 h 14.1" />
    <path
       id="path51"
       style="fill:#000000;fill-opacity:0;stroke:#ff0000;stroke-width:0.15;stroke-linecap:round;stroke-linejoin:round;stroke-opacity:1"
       d="m 159.45,64.2 h -14.1 m 14.1,-14.1 v 14.1 m -14.1,0 V 50.1 m 0,0 h 14.1" />
    <path
       id="path59"
       style="fill:#000000;fill-opacity:0;stroke:#ff0000;stroke-width:0.15;stroke-linecap:round;stroke-linejoin:round;stroke-opacity:1"
       d="m 178.5,64.2 h -14.1 m 14.1,-14.1 v 14.1 m -14.1,0 V 50.1 m 0,0 h 14.1" />
    <path
       id="path83"
       style="fill:#000000;fill-opacity:0;stroke:#ff0000;stroke-width:0.15;stroke-linecap:round;stroke-linejoin:round;stroke-opacity:1"
       d="m 178.5,83.25 h -14.1 m 14.1,-14.1 v 14.1 m -14.1,0 v -14.1 m 0,0 h 14.1" />
    <path
       id="path123"
       style="fill:#000000;fill-opacity:0;stroke:#ff0000;stroke-width:0.15;stroke-linecap:round;stroke-linejoin:round;stroke-opacity:1"
       d="m 178.5,102.3 h -14.1 m 14.1,-14.1 v 14.1 m -14.1,0 V 88.2 m 0,0 h 14.1" />
    <path
       id="path99"
       style="display:inline;fill:#000000;fill-opacity:0;stroke:#ff0000;stroke-width:0.15;stroke-linecap:round;stroke-linejoin:round;stroke-opacity:1"
       d="m 178.5,121.35 h -14.1 m 14.1,-14.1 v 14.1 m -14.1,0 v -14.1 m 0,0 h 14.1" />
    <path
       id="path135"
       style="fill:#000000;fill-opacity:0;stroke:#ff0000;stroke-width:0.15;stroke-linecap:round;stroke-linejoin:round;stroke-opacity:1"
       d="m 197.55,64.2 h -14.1 m 14.1,-14.1 v 14.1 m -14.1,0 V 50.1 m 0,0 h 14.1" />
    <path
       id="path131"
       style="fill:#000000;fill-opacity:0;stroke:#ff0000;stroke-width:0.15;stroke-linecap:round;stroke-linejoin:round;stroke-opacity:1"
       d="m 216.6,64.2 h -14.1 m 14.1,-14.1 v 14.1 m -14.1,0 V 50.1 m 0,0 h 14.1" />
    <path
       id="path71"
       style="fill:#000000;fill-opacity:0;stroke:#ff0000;stroke-width:0.15;stroke-linecap:round;stroke-linejoin:round;stroke-opacity:1"
       d="m 235.65,64.2 h -14.1 m 14.1,-14.1 v 14.1 m -14.1,0 V 50.1 m 0,0 h 14.1" />
    <path
       id="path47"
       style="fill:#000000;fill-opacity:0;stroke:#ff0000;stroke-width:0.15;stroke-linecap:round;stroke-linejoin:round;stroke-opacity:1"
       d="m 197.55,83.25 h -14.1 m 14.1,-14.1 v 14.1 m -14.1,0 v -14.1 m 0,0 h 14.1" />
    <path
       id="path139"
       style="fill:#000000;fill-opacity:0;stroke:#ff0000;stroke-width:0.15;stroke-linecap:round;stroke-linejoin:round;stroke-opacity:1"
       d="m 216.6,83.25 h -14.1 m 14.1,-14.1 v 14.1 m -14.1,0 v -14.1 m 0,0 h 14.1" />
    <path
       id="path79"
       style="fill:#000000;fill-opacity:0;stroke:#ff0000;stroke-width:0.15;stroke-linecap:round;stroke-linejoin:round;stroke-opacity:1"
       d="m 235.65,83.25 h -14.1 m 14.1,-14.1 v 14.1 m -14.1,0 v -14.1 m 0,0 h 14.1" />
    <path
       id="path107"
       style="fill:#000000;fill-opacity:0;stroke:#ff0000;stroke-width:0.15;stroke-linecap:round;stroke-linejoin:round;stroke-opacity:1"
       d="m 197.55,102.3 h -14.1 m 14.1,-14.1 v 14.1 m -14.1,0 V 88.2 m 0,0 h 14.1" />
    <path
       id="path143"
       style="fill:#000000;fill-opacity:0;stroke:#ff0000;stroke-width:0.15;stroke-linecap:round;stroke-linejoin:round;stroke-opacity:1"
       d="m 216.6,102.3 h -14.1 m 14.1,-14.1 v 14.1 m -14.1,0 V 88.2 m 0,0 h 14.1" />
    <path
       id="path187"
       style="fill:#000000;fill-opacity:0;stroke:#ff0000;stroke-width:0.15;stroke-linecap:round;stroke-linejoin:round;stroke-opacity:1"
       d="m 235.65,102.3 h -14.1 m 14.1,-14.1 v 14.1 m -14.1,0 V 88.2 m 0,0 h 14.1" />
    <path
       id="path95"
       style="fill:#000000;fill-opacity:0;stroke:#ff0000;stroke-width:0.15;stroke-linecap:round;stroke-linejoin:round;stroke-opacity:1"
       d="m 197.55,121.35 h -14.1 m 14.1,-14.1 v 14.1 m -14.1,0 v -14.1 m 0,0 h 14.1" />
    <text
       xml:space="preserve"
       style="font-size:4.9389px;fill:#000000;fill-opacity:1;fill-rule:evenodd;stroke:#000000;stroke-width:0.264583"
       x="31.71476"
       y="34.048965"
       id="text157"><tspan
         sodipodi:role="line"
         id="tspan157"
         style="fill:#000000;fill-opacity:1;stroke:#000000;stroke-width:0.264583"
         x="31.71476"
         y="34.048965">Width:209.55mm</tspan><tspan
         sodipodi:role="line"
         style="fill:#000000;fill-opacity:1;stroke:#000000;stroke-width:0.264583"
         x="31.71476"
         y="40.222591"
         id="tspan158">Height:95.25mm</tspan></text>
    <text
       xml:space="preserve"
       style="font-size:4.9389px;white-space:pre;inline-size:59.0272;display:inline;fill:#ff0000;fill-opacity:1;fill-rule:evenodd;stroke:#ff0000;stroke-width:0.264583"
       x="112.51472"
       y="12.420456"
       id="text159"
       transform="translate(-11.026229,22.176468)"><tspan
         x="112.51472"
         y="12.420456"
         id="tspan2">Redcolor Cutting</tspan></text>
  </g>
  <metadata
     id="metadata241">
    <rdf:RDF>
      <cc:Work
         rdf:about="">
        <dc:title>SVG Image created as topOrthumb39-Edge_Cuts.svg date 2023/11/01 21:47:40 </dc:title>
      </cc:Work>
    </rdf:RDF>
  </metadata>
</svg>
