  0
SECTION
  2
HEADER
  9
$ANGBASE
  50
0.0
  9
$ANGDIR
  70
1
  9
$MEASUREMENT
  70
1
  0
ENDSEC
  0
SECTION
  2
TABLES
  0
TABLE
  2
LTYPE
  70
4
  0
LTYPE
  5
40F
  2
CONTINUOUS
  70
0
  3
Solid line
  72
65
  73
0
  40
0.0
  0
LTYPE
  5
410
  2
DASHDOT
 70
0
  3
Dash Dot ____ _ ____ _
 72
65
 73
4
 40
2.0
 49
1.25
 49
-0.25
 49
0.25
 49
-0.25
  0
LTYPE
  5
411
  2
DASHED
 70
0
  3
Dashed __ __ __ __ __
 72
65
 73
2
 40
0.75
 49
0.5
 49
-0.25
  0
LTYPE
  5
43B
  2
DOTTED
 70
0
  3
Dotted .  .  .  .
 72
65
 73
2
 40
0.2
 49
0.0
 49
-0.2
  0
ENDTAB
  0
TABLE
  2
STYLE
  70
4
  0
STYLE
  2
KICAD
  70
0
  40
0
  41
1
  42
1
  50
0
  71
0
  3
isocp.shx
  0
STYLE
  2
KICADB
  70
0
  40
0
  41
1
  42
1
  50
0
  71
0
  3
isocp.shx
  0
STYLE
  2
KICADI
  70
0
  40
0
  41
1
  42
1
  50
15
  71
0
  3
isocp.shx
  0
STYLE
  2
KICADBI
  70
0
  40
0
  41
1
  42
1
  50
15
  71
0
  3
isocp.shx
  0
ENDTAB
  0
TABLE
  2
LAYER
  70
1
  0
LAYER
  2
BLACK
  70
0
  62
7
  6
CONTINUOUS
  0
ENDTAB
  0
ENDSEC
  0
SECTION
  2
ENTITIES
0
LINE
8
BLACK
6
CONTINUOUS
10
101.506
20
-132.287
11
101.696
21
-132.361
0
LINE
8
BLACK
6
CONTINUOUS
10
101.696
20
-132.361
11
101.869
21
-132.468
0
LINE
8
BLACK
6
CONTINUOUS
10
101.869
20
-132.468
11
102.02
21
-132.606
0
LINE
8
BLACK
6
CONTINUOUS
10
102.02
20
-132.606
11
102.143
21
-132.768
0
LINE
8
BLACK
6
CONTINUOUS
10
102.143
20
-132.768
11
102.234
21
-132.951
0
LINE
8
BLACK
6
CONTINUOUS
10
102.234
20
-132.951
11
102.289
21
-133.147
0
LINE
8
BLACK
6
CONTINUOUS
10
102.289
20
-133.147
11
102.308
21
-133.35
0
LINE
8
BLACK
6
CONTINUOUS
10
102.308
20
-133.35
11
102.289
21
-133.553
0
LINE
8
BLACK
6
CONTINUOUS
10
102.289
20
-133.553
11
102.234
21
-133.749
0
LINE
8
BLACK
6
CONTINUOUS
10
102.234
20
-133.749
11
102.143
21
-133.932
0
LINE
8
BLACK
6
CONTINUOUS
10
102.143
20
-133.932
11
102.02
21
-134.094
0
LINE
8
BLACK
6
CONTINUOUS
10
102.02
20
-134.094
11
101.869
21
-134.232
0
LINE
8
BLACK
6
CONTINUOUS
10
101.869
20
-134.232
11
101.696
21
-134.339
0
LINE
8
BLACK
6
CONTINUOUS
10
101.696
20
-134.339
11
101.506
21
-134.413
0
LINE
8
BLACK
6
CONTINUOUS
10
101.506
20
-134.413
11
101.305
21
-134.45
0
LINE
8
BLACK
6
CONTINUOUS
10
101.305
20
-134.45
11
101.101
21
-134.45
0
LINE
8
BLACK
6
CONTINUOUS
10
101.101
20
-134.45
11
100.901
21
-134.413
0
LINE
8
BLACK
6
CONTINUOUS
10
100.901
20
-134.413
11
100.711
21
-134.339
0
LINE
8
BLACK
6
CONTINUOUS
10
100.711
20
-134.339
11
100.537
21
-134.232
0
LINE
8
BLACK
6
CONTINUOUS
10
100.537
20
-134.232
11
100.387
21
-134.094
0
LINE
8
BLACK
6
CONTINUOUS
10
100.387
20
-134.094
11
100.264
21
-133.932
0
LINE
8
BLACK
6
CONTINUOUS
10
100.264
20
-133.932
11
100.173
21
-133.749
0
LINE
8
BLACK
6
CONTINUOUS
10
100.173
20
-133.749
11
100.117
21
-133.553
0
LINE
8
BLACK
6
CONTINUOUS
10
100.117
20
-133.553
11
100.098
21
-133.35
0
LINE
8
BLACK
6
CONTINUOUS
10
100.098
20
-133.35
11
100.117
21
-133.147
0
LINE
8
BLACK
6
CONTINUOUS
10
100.117
20
-133.147
11
100.173
21
-132.951
0
LINE
8
BLACK
6
CONTINUOUS
10
100.173
20
-132.951
11
100.264
21
-132.768
0
LINE
8
BLACK
6
CONTINUOUS
10
100.264
20
-132.768
11
100.387
21
-132.606
0
LINE
8
BLACK
6
CONTINUOUS
10
100.387
20
-132.606
11
100.537
21
-132.468
0
LINE
8
BLACK
6
CONTINUOUS
10
100.537
20
-132.468
11
100.711
21
-132.361
0
LINE
8
BLACK
6
CONTINUOUS
10
100.711
20
-132.361
11
100.901
21
-132.287
0
LINE
8
BLACK
6
CONTINUOUS
10
100.901
20
-132.287
11
101.101
21
-132.25
0
LINE
8
BLACK
6
CONTINUOUS
10
101.101
20
-132.25
11
101.305
21
-132.25
0
LINE
8
BLACK
6
CONTINUOUS
10
101.305
20
-132.25
11
101.506
21
-132.287
0
LINE
8
BLACK
6
CONTINUOUS
10
100.122
20
-133.552
11
100.178
21
-133.747
0
LINE
8
BLACK
6
CONTINUOUS
10
100.178
20
-133.747
11
100.268
21
-133.929
0
LINE
8
BLACK
6
CONTINUOUS
10
100.268
20
-133.929
11
100.39
21
-134.091
0
LINE
8
BLACK
6
CONTINUOUS
10
100.39
20
-134.091
11
100.54
21
-134.228
0
LINE
8
BLACK
6
CONTINUOUS
10
100.54
20
-134.228
11
100.713
21
-134.334
0
LINE
8
BLACK
6
CONTINUOUS
10
100.713
20
-134.334
11
100.902
21
-134.408
0
LINE
8
BLACK
6
CONTINUOUS
10
100.902
20
-134.408
11
101.102
21
-134.445
0
LINE
8
BLACK
6
CONTINUOUS
10
101.102
20
-134.445
11
101.305
21
-134.445
0
LINE
8
BLACK
6
CONTINUOUS
10
101.305
20
-134.445
11
101.504
21
-134.408
0
LINE
8
BLACK
6
CONTINUOUS
10
101.504
20
-134.408
11
101.693
21
-134.334
0
LINE
8
BLACK
6
CONTINUOUS
10
101.693
20
-134.334
11
101.866
21
-134.228
0
LINE
8
BLACK
6
CONTINUOUS
10
101.866
20
-134.228
11
102.016
21
-134.091
0
LINE
8
BLACK
6
CONTINUOUS
10
102.016
20
-134.091
11
102.138
21
-133.929
0
LINE
8
BLACK
6
CONTINUOUS
10
102.138
20
-133.929
11
102.229
21
-133.747
0
LINE
8
BLACK
6
CONTINUOUS
10
102.229
20
-133.747
11
102.284
21
-133.552
0
LINE
8
BLACK
6
CONTINUOUS
10
102.284
20
-133.552
11
102.303
21
-133.35
0
LINE
8
BLACK
6
CONTINUOUS
10
102.303
20
-133.35
11
102.284
21
-133.148
0
LINE
8
BLACK
6
CONTINUOUS
10
102.284
20
-133.148
11
102.229
21
-132.953
0
LINE
8
BLACK
6
CONTINUOUS
10
102.229
20
-132.953
11
102.138
21
-132.771
0
LINE
8
BLACK
6
CONTINUOUS
10
102.138
20
-132.771
11
102.016
21
-132.609
0
LINE
8
BLACK
6
CONTINUOUS
10
102.016
20
-132.609
11
101.866
21
-132.472
0
LINE
8
BLACK
6
CONTINUOUS
10
101.866
20
-132.472
11
101.693
21
-132.366
0
LINE
8
BLACK
6
CONTINUOUS
10
101.693
20
-132.366
11
101.504
21
-132.292
0
LINE
8
BLACK
6
CONTINUOUS
10
101.504
20
-132.292
11
101.305
21
-132.255
0
LINE
8
BLACK
6
CONTINUOUS
10
101.305
20
-132.255
11
101.102
21
-132.255
0
LINE
8
BLACK
6
CONTINUOUS
10
101.102
20
-132.255
11
100.902
21
-132.292
0
LINE
8
BLACK
6
CONTINUOUS
10
100.902
20
-132.292
11
100.713
21
-132.366
0
LINE
8
BLACK
6
CONTINUOUS
10
100.713
20
-132.366
11
100.54
21
-132.472
0
LINE
8
BLACK
6
CONTINUOUS
10
100.54
20
-132.472
11
100.39
21
-132.609
0
LINE
8
BLACK
6
CONTINUOUS
10
100.39
20
-132.609
11
100.268
21
-132.771
0
LINE
8
BLACK
6
CONTINUOUS
10
100.268
20
-132.771
11
100.178
21
-132.953
0
LINE
8
BLACK
6
CONTINUOUS
10
100.178
20
-132.953
11
100.122
21
-133.148
0
LINE
8
BLACK
6
CONTINUOUS
10
100.122
20
-133.148
11
100.103
21
-133.35
0
LINE
8
BLACK
6
CONTINUOUS
10
100.103
20
-133.35
11
100.122
21
-133.552
0
LINE
8
BLACK
6
CONTINUOUS
10
165.799
20
-132.287
11
165.989
21
-132.361
0
LINE
8
BLACK
6
CONTINUOUS
10
165.989
20
-132.361
11
166.163
21
-132.468
0
LINE
8
BLACK
6
CONTINUOUS
10
166.163
20
-132.468
11
166.313
21
-132.606
0
LINE
8
BLACK
6
CONTINUOUS
10
166.313
20
-132.606
11
166.436
21
-132.768
0
LINE
8
BLACK
6
CONTINUOUS
10
166.436
20
-132.768
11
166.527
21
-132.951
0
LINE
8
BLACK
6
CONTINUOUS
10
166.527
20
-132.951
11
166.583
21
-133.147
0
LINE
8
BLACK
6
CONTINUOUS
10
166.583
20
-133.147
11
166.602
21
-133.35
0
LINE
8
BLACK
6
CONTINUOUS
10
166.602
20
-133.35
11
166.583
21
-133.553
0
LINE
8
BLACK
6
CONTINUOUS
10
166.583
20
-133.553
11
166.527
21
-133.749
0
LINE
8
BLACK
6
CONTINUOUS
10
166.527
20
-133.749
11
166.436
21
-133.932
0
LINE
8
BLACK
6
CONTINUOUS
10
166.436
20
-133.932
11
166.313
21
-134.094
0
LINE
8
BLACK
6
CONTINUOUS
10
166.313
20
-134.094
11
166.163
21
-134.232
0
LINE
8
BLACK
6
CONTINUOUS
10
166.163
20
-134.232
11
165.989
21
-134.339
0
LINE
8
BLACK
6
CONTINUOUS
10
165.989
20
-134.339
11
165.799
21
-134.413
0
LINE
8
BLACK
6
CONTINUOUS
10
165.799
20
-134.413
11
165.599
21
-134.45
0
LINE
8
BLACK
6
CONTINUOUS
10
165.599
20
-134.45
11
165.395
21
-134.45
0
LINE
8
BLACK
6
CONTINUOUS
10
165.395
20
-134.45
11
165.194
21
-134.413
0
LINE
8
BLACK
6
CONTINUOUS
10
165.194
20
-134.413
11
165.004
21
-134.339
0
LINE
8
BLACK
6
CONTINUOUS
10
165.004
20
-134.339
11
164.831
21
-134.232
0
LINE
8
BLACK
6
CONTINUOUS
10
164.831
20
-134.232
11
164.68
21
-134.094
0
LINE
8
BLACK
6
CONTINUOUS
10
164.68
20
-134.094
11
164.557
21
-133.932
0
LINE
8
BLACK
6
CONTINUOUS
10
164.557
20
-133.932
11
164.466
21
-133.749
0
LINE
8
BLACK
6
CONTINUOUS
10
164.466
20
-133.749
11
164.411
21
-133.553
0
LINE
8
BLACK
6
CONTINUOUS
10
164.411
20
-133.553
11
164.392
21
-133.35
0
LINE
8
BLACK
6
CONTINUOUS
10
164.392
20
-133.35
11
164.411
21
-133.147
0
LINE
8
BLACK
6
CONTINUOUS
10
164.411
20
-133.147
11
164.466
21
-132.951
0
LINE
8
BLACK
6
CONTINUOUS
10
164.466
20
-132.951
11
164.557
21
-132.768
0
LINE
8
BLACK
6
CONTINUOUS
10
164.557
20
-132.768
11
164.68
21
-132.606
0
LINE
8
BLACK
6
CONTINUOUS
10
164.68
20
-132.606
11
164.831
21
-132.468
0
LINE
8
BLACK
6
CONTINUOUS
10
164.831
20
-132.468
11
165.004
21
-132.361
0
LINE
8
BLACK
6
CONTINUOUS
10
165.004
20
-132.361
11
165.194
21
-132.287
0
LINE
8
BLACK
6
CONTINUOUS
10
165.194
20
-132.287
11
165.395
21
-132.25
0
LINE
8
BLACK
6
CONTINUOUS
10
165.395
20
-132.25
11
165.599
21
-132.25
0
LINE
8
BLACK
6
CONTINUOUS
10
165.599
20
-132.25
11
165.799
21
-132.287
0
LINE
8
BLACK
6
CONTINUOUS
10
164.416
20
-133.552
11
164.471
21
-133.747
0
LINE
8
BLACK
6
CONTINUOUS
10
164.471
20
-133.747
11
164.562
21
-133.929
0
LINE
8
BLACK
6
CONTINUOUS
10
164.562
20
-133.929
11
164.684
21
-134.091
0
LINE
8
BLACK
6
CONTINUOUS
10
164.684
20
-134.091
11
164.834
21
-134.228
0
LINE
8
BLACK
6
CONTINUOUS
10
164.834
20
-134.228
11
165.007
21
-134.334
0
LINE
8
BLACK
6
CONTINUOUS
10
165.007
20
-134.334
11
165.196
21
-134.408
0
LINE
8
BLACK
6
CONTINUOUS
10
165.196
20
-134.408
11
165.395
21
-134.445
0
LINE
8
BLACK
6
CONTINUOUS
10
165.395
20
-134.445
11
165.598
21
-134.445
0
LINE
8
BLACK
6
CONTINUOUS
10
165.598
20
-134.445
11
165.798
21
-134.408
0
LINE
8
BLACK
6
CONTINUOUS
10
165.798
20
-134.408
11
165.987
21
-134.334
0
LINE
8
BLACK
6
CONTINUOUS
10
165.987
20
-134.334
11
166.16
21
-134.228
0
LINE
8
BLACK
6
CONTINUOUS
10
166.16
20
-134.228
11
166.31
21
-134.091
0
LINE
8
BLACK
6
CONTINUOUS
10
166.31
20
-134.091
11
166.432
21
-133.929
0
LINE
8
BLACK
6
CONTINUOUS
10
166.432
20
-133.929
11
166.522
21
-133.747
0
LINE
8
BLACK
6
CONTINUOUS
10
166.522
20
-133.747
11
166.578
21
-133.552
0
LINE
8
BLACK
6
CONTINUOUS
10
166.578
20
-133.552
11
166.597
21
-133.35
0
LINE
8
BLACK
6
CONTINUOUS
10
166.597
20
-133.35
11
166.578
21
-133.148
0
LINE
8
BLACK
6
CONTINUOUS
10
166.578
20
-133.148
11
166.522
21
-132.953
0
LINE
8
BLACK
6
CONTINUOUS
10
166.522
20
-132.953
11
166.432
21
-132.771
0
LINE
8
BLACK
6
CONTINUOUS
10
166.432
20
-132.771
11
166.31
21
-132.609
0
LINE
8
BLACK
6
CONTINUOUS
10
166.31
20
-132.609
11
166.16
21
-132.472
0
LINE
8
BLACK
6
CONTINUOUS
10
166.16
20
-132.472
11
165.987
21
-132.366
0
LINE
8
BLACK
6
CONTINUOUS
10
165.987
20
-132.366
11
165.798
21
-132.292
0
LINE
8
BLACK
6
CONTINUOUS
10
165.798
20
-132.292
11
165.598
21
-132.255
0
LINE
8
BLACK
6
CONTINUOUS
10
165.598
20
-132.255
11
165.395
21
-132.255
0
LINE
8
BLACK
6
CONTINUOUS
10
165.395
20
-132.255
11
165.196
21
-132.292
0
LINE
8
BLACK
6
CONTINUOUS
10
165.196
20
-132.292
11
165.007
21
-132.366
0
LINE
8
BLACK
6
CONTINUOUS
10
165.007
20
-132.366
11
164.834
21
-132.472
0
LINE
8
BLACK
6
CONTINUOUS
10
164.834
20
-132.472
11
164.684
21
-132.609
0
LINE
8
BLACK
6
CONTINUOUS
10
164.684
20
-132.609
11
164.562
21
-132.771
0
LINE
8
BLACK
6
CONTINUOUS
10
164.562
20
-132.771
11
164.471
21
-132.953
0
LINE
8
BLACK
6
CONTINUOUS
10
164.471
20
-132.953
11
164.416
21
-133.148
0
LINE
8
BLACK
6
CONTINUOUS
10
164.416
20
-133.148
11
164.397
21
-133.35
0
LINE
8
BLACK
6
CONTINUOUS
10
164.397
20
-133.35
11
164.416
21
-133.552
0
LINE
8
BLACK
6
CONTINUOUS
10
66.9774
20
-103.712
11
67.1675
21
-103.786
0
LINE
8
BLACK
6
CONTINUOUS
10
67.1675
20
-103.786
11
67.3409
21
-103.893
0
LINE
8
BLACK
6
CONTINUOUS
10
67.3409
20
-103.893
11
67.4916
21
-104.031
0
LINE
8
BLACK
6
CONTINUOUS
10
67.4916
20
-104.031
11
67.6145
21
-104.193
0
LINE
8
BLACK
6
CONTINUOUS
10
67.6145
20
-104.193
11
67.7054
21
-104.376
0
LINE
8
BLACK
6
CONTINUOUS
10
67.7054
20
-104.376
11
67.7612
21
-104.572
0
LINE
8
BLACK
6
CONTINUOUS
10
67.7612
20
-104.572
11
67.78
21
-104.775
0
LINE
8
BLACK
6
CONTINUOUS
10
67.78
20
-104.775
11
67.7612
21
-104.978
0
LINE
8
BLACK
6
CONTINUOUS
10
67.7612
20
-104.978
11
67.7054
21
-105.174
0
LINE
8
BLACK
6
CONTINUOUS
10
67.7054
20
-105.174
11
67.6145
21
-105.357
0
LINE
8
BLACK
6
CONTINUOUS
10
67.6145
20
-105.357
11
67.4916
21
-105.519
0
LINE
8
BLACK
6
CONTINUOUS
10
67.4916
20
-105.519
11
67.3409
21
-105.657
0
LINE
8
BLACK
6
CONTINUOUS
10
67.3409
20
-105.657
11
67.1675
21
-105.764
0
LINE
8
BLACK
6
CONTINUOUS
10
67.1675
20
-105.764
11
66.9774
21
-105.838
0
LINE
8
BLACK
6
CONTINUOUS
10
66.9774
20
-105.838
11
66.777
21
-105.875
0
LINE
8
BLACK
6
CONTINUOUS
10
66.777
20
-105.875
11
66.573
21
-105.875
0
LINE
8
BLACK
6
CONTINUOUS
10
66.573
20
-105.875
11
66.3726
21
-105.838
0
LINE
8
BLACK
6
CONTINUOUS
10
66.3726
20
-105.838
11
66.1825
21
-105.764
0
LINE
8
BLACK
6
CONTINUOUS
10
66.1825
20
-105.764
11
66.0091
21
-105.657
0
LINE
8
BLACK
6
CONTINUOUS
10
66.0091
20
-105.657
11
65.8584
21
-105.519
0
LINE
8
BLACK
6
CONTINUOUS
10
65.8584
20
-105.519
11
65.7355
21
-105.357
0
LINE
8
BLACK
6
CONTINUOUS
10
65.7355
20
-105.357
11
65.6446
21
-105.174
0
LINE
8
BLACK
6
CONTINUOUS
10
65.6446
20
-105.174
11
65.5888
21
-104.978
0
LINE
8
BLACK
6
CONTINUOUS
10
65.5888
20
-104.978
11
65.57
21
-104.775
0
LINE
8
BLACK
6
CONTINUOUS
10
65.57
20
-104.775
11
65.5888
21
-104.572
0
LINE
8
BLACK
6
CONTINUOUS
10
65.5888
20
-104.572
11
65.6446
21
-104.376
0
LINE
8
BLACK
6
CONTINUOUS
10
65.6446
20
-104.376
11
65.7355
21
-104.193
0
LINE
8
BLACK
6
CONTINUOUS
10
65.7355
20
-104.193
11
65.8584
21
-104.031
0
LINE
8
BLACK
6
CONTINUOUS
10
65.8584
20
-104.031
11
66.0091
21
-103.893
0
LINE
8
BLACK
6
CONTINUOUS
10
66.0091
20
-103.893
11
66.1825
21
-103.786
0
LINE
8
BLACK
6
CONTINUOUS
10
66.1825
20
-103.786
11
66.3726
21
-103.712
0
LINE
8
BLACK
6
CONTINUOUS
10
66.3726
20
-103.712
11
66.573
21
-103.675
0
LINE
8
BLACK
6
CONTINUOUS
10
66.573
20
-103.675
11
66.777
21
-103.675
0
LINE
8
BLACK
6
CONTINUOUS
10
66.777
20
-103.675
11
66.9774
21
-103.712
0
LINE
8
BLACK
6
CONTINUOUS
10
65.594
20
-104.977
11
65.6496
21
-105.172
0
LINE
8
BLACK
6
CONTINUOUS
10
65.6496
20
-105.172
11
65.74
21
-105.354
0
LINE
8
BLACK
6
CONTINUOUS
10
65.74
20
-105.354
11
65.8623
21
-105.516
0
LINE
8
BLACK
6
CONTINUOUS
10
65.8623
20
-105.516
11
66.0123
21
-105.653
0
LINE
8
BLACK
6
CONTINUOUS
10
66.0123
20
-105.653
11
66.1848
21
-105.759
0
LINE
8
BLACK
6
CONTINUOUS
10
66.1848
20
-105.759
11
66.3741
21
-105.833
0
LINE
8
BLACK
6
CONTINUOUS
10
66.3741
20
-105.833
11
66.5735
21
-105.87
0
LINE
8
BLACK
6
CONTINUOUS
10
66.5735
20
-105.87
11
66.7765
21
-105.87
0
LINE
8
BLACK
6
CONTINUOUS
10
66.7765
20
-105.87
11
66.9759
21
-105.833
0
LINE
8
BLACK
6
CONTINUOUS
10
66.9759
20
-105.833
11
67.1652
21
-105.759
0
LINE
8
BLACK
6
CONTINUOUS
10
67.1652
20
-105.759
11
67.3377
21
-105.653
0
LINE
8
BLACK
6
CONTINUOUS
10
67.3377
20
-105.653
11
67.4877
21
-105.516
0
LINE
8
BLACK
6
CONTINUOUS
10
67.4877
20
-105.516
11
67.61
21
-105.354
0
LINE
8
BLACK
6
CONTINUOUS
10
67.61
20
-105.354
11
67.7004
21
-105.172
0
LINE
8
BLACK
6
CONTINUOUS
10
67.7004
20
-105.172
11
67.756
21
-104.977
0
LINE
8
BLACK
6
CONTINUOUS
10
67.756
20
-104.977
11
67.7747
21
-104.775
0
LINE
8
BLACK
6
CONTINUOUS
10
67.7747
20
-104.775
11
67.756
21
-104.573
0
LINE
8
BLACK
6
CONTINUOUS
10
67.756
20
-104.573
11
67.7004
21
-104.378
0
LINE
8
BLACK
6
CONTINUOUS
10
67.7004
20
-104.378
11
67.61
21
-104.196
0
LINE
8
BLACK
6
CONTINUOUS
10
67.61
20
-104.196
11
67.4877
21
-104.034
0
LINE
8
BLACK
6
CONTINUOUS
10
67.4877
20
-104.034
11
67.3377
21
-103.897
0
LINE
8
BLACK
6
CONTINUOUS
10
67.3377
20
-103.897
11
67.1652
21
-103.791
0
LINE
8
BLACK
6
CONTINUOUS
10
67.1652
20
-103.791
11
66.9759
21
-103.717
0
LINE
8
BLACK
6
CONTINUOUS
10
66.9759
20
-103.717
11
66.7765
21
-103.68
0
LINE
8
BLACK
6
CONTINUOUS
10
66.7765
20
-103.68
11
66.5735
21
-103.68
0
LINE
8
BLACK
6
CONTINUOUS
10
66.5735
20
-103.68
11
66.3741
21
-103.717
0
LINE
8
BLACK
6
CONTINUOUS
10
66.3741
20
-103.717
11
66.1848
21
-103.791
0
LINE
8
BLACK
6
CONTINUOUS
10
66.1848
20
-103.791
11
66.0123
21
-103.897
0
LINE
8
BLACK
6
CONTINUOUS
10
66.0123
20
-103.897
11
65.8623
21
-104.034
0
LINE
8
BLACK
6
CONTINUOUS
10
65.8623
20
-104.034
11
65.74
21
-104.196
0
LINE
8
BLACK
6
CONTINUOUS
10
65.74
20
-104.196
11
65.6496
21
-104.378
0
LINE
8
BLACK
6
CONTINUOUS
10
65.6496
20
-104.378
11
65.594
21
-104.573
0
LINE
8
BLACK
6
CONTINUOUS
10
65.594
20
-104.573
11
65.5753
21
-104.775
0
LINE
8
BLACK
6
CONTINUOUS
10
65.5753
20
-104.775
11
65.594
21
-104.977
0
LINE
8
BLACK
6
CONTINUOUS
10
105.077
20
-103.712
11
105.268
21
-103.786
0
LINE
8
BLACK
6
CONTINUOUS
10
105.268
20
-103.786
11
105.441
21
-103.893
0
LINE
8
BLACK
6
CONTINUOUS
10
105.441
20
-103.893
11
105.592
21
-104.031
0
LINE
8
BLACK
6
CONTINUOUS
10
105.592
20
-104.031
11
105.714
21
-104.193
0
LINE
8
BLACK
6
CONTINUOUS
10
105.714
20
-104.193
11
105.805
21
-104.376
0
LINE
8
BLACK
6
CONTINUOUS
10
105.805
20
-104.376
11
105.861
21
-104.572
0
LINE
8
BLACK
6
CONTINUOUS
10
105.861
20
-104.572
11
105.88
21
-104.775
0
LINE
8
BLACK
6
CONTINUOUS
10
105.88
20
-104.775
11
105.861
21
-104.978
0
LINE
8
BLACK
6
CONTINUOUS
10
105.861
20
-104.978
11
105.805
21
-105.174
0
LINE
8
BLACK
6
CONTINUOUS
10
105.805
20
-105.174
11
105.714
21
-105.357
0
LINE
8
BLACK
6
CONTINUOUS
10
105.714
20
-105.357
11
105.592
21
-105.519
0
LINE
8
BLACK
6
CONTINUOUS
10
105.592
20
-105.519
11
105.441
21
-105.657
0
LINE
8
BLACK
6
CONTINUOUS
10
105.441
20
-105.657
11
105.268
21
-105.764
0
LINE
8
BLACK
6
CONTINUOUS
10
105.268
20
-105.764
11
105.077
21
-105.838
0
LINE
8
BLACK
6
CONTINUOUS
10
105.077
20
-105.838
11
104.877
21
-105.875
0
LINE
8
BLACK
6
CONTINUOUS
10
104.877
20
-105.875
11
104.673
21
-105.875
0
LINE
8
BLACK
6
CONTINUOUS
10
104.673
20
-105.875
11
104.473
21
-105.838
0
LINE
8
BLACK
6
CONTINUOUS
10
104.473
20
-105.838
11
104.282
21
-105.764
0
LINE
8
BLACK
6
CONTINUOUS
10
104.282
20
-105.764
11
104.109
21
-105.657
0
LINE
8
BLACK
6
CONTINUOUS
10
104.109
20
-105.657
11
103.958
21
-105.519
0
LINE
8
BLACK
6
CONTINUOUS
10
103.958
20
-105.519
11
103.836
21
-105.357
0
LINE
8
BLACK
6
CONTINUOUS
10
103.836
20
-105.357
11
103.745
21
-105.174
0
LINE
8
BLACK
6
CONTINUOUS
10
103.745
20
-105.174
11
103.689
21
-104.978
0
LINE
8
BLACK
6
CONTINUOUS
10
103.689
20
-104.978
11
103.67
21
-104.775
0
LINE
8
BLACK
6
CONTINUOUS
10
103.67
20
-104.775
11
103.689
21
-104.572
0
LINE
8
BLACK
6
CONTINUOUS
10
103.689
20
-104.572
11
103.745
21
-104.376
0
LINE
8
BLACK
6
CONTINUOUS
10
103.745
20
-104.376
11
103.836
21
-104.193
0
LINE
8
BLACK
6
CONTINUOUS
10
103.836
20
-104.193
11
103.958
21
-104.031
0
LINE
8
BLACK
6
CONTINUOUS
10
103.958
20
-104.031
11
104.109
21
-103.893
0
LINE
8
BLACK
6
CONTINUOUS
10
104.109
20
-103.893
11
104.282
21
-103.786
0
LINE
8
BLACK
6
CONTINUOUS
10
104.282
20
-103.786
11
104.473
21
-103.712
0
LINE
8
BLACK
6
CONTINUOUS
10
104.473
20
-103.712
11
104.673
21
-103.675
0
LINE
8
BLACK
6
CONTINUOUS
10
104.673
20
-103.675
11
104.877
21
-103.675
0
LINE
8
BLACK
6
CONTINUOUS
10
104.877
20
-103.675
11
105.077
21
-103.712
0
LINE
8
BLACK
6
CONTINUOUS
10
103.694
20
-104.977
11
103.75
21
-105.172
0
LINE
8
BLACK
6
CONTINUOUS
10
103.75
20
-105.172
11
103.84
21
-105.354
0
LINE
8
BLACK
6
CONTINUOUS
10
103.84
20
-105.354
11
103.962
21
-105.516
0
LINE
8
BLACK
6
CONTINUOUS
10
103.962
20
-105.516
11
104.112
21
-105.653
0
LINE
8
BLACK
6
CONTINUOUS
10
104.112
20
-105.653
11
104.285
21
-105.759
0
LINE
8
BLACK
6
CONTINUOUS
10
104.285
20
-105.759
11
104.474
21
-105.833
0
LINE
8
BLACK
6
CONTINUOUS
10
104.474
20
-105.833
11
104.674
21
-105.87
0
LINE
8
BLACK
6
CONTINUOUS
10
104.674
20
-105.87
11
104.876
21
-105.87
0
LINE
8
BLACK
6
CONTINUOUS
10
104.876
20
-105.87
11
105.076
21
-105.833
0
LINE
8
BLACK
6
CONTINUOUS
10
105.076
20
-105.833
11
105.265
21
-105.759
0
LINE
8
BLACK
6
CONTINUOUS
10
105.265
20
-105.759
11
105.438
21
-105.653
0
LINE
8
BLACK
6
CONTINUOUS
10
105.438
20
-105.653
11
105.588
21
-105.516
0
LINE
8
BLACK
6
CONTINUOUS
10
105.588
20
-105.516
11
105.71
21
-105.354
0
LINE
8
BLACK
6
CONTINUOUS
10
105.71
20
-105.354
11
105.8
21
-105.172
0
LINE
8
BLACK
6
CONTINUOUS
10
105.8
20
-105.172
11
105.856
21
-104.977
0
LINE
8
BLACK
6
CONTINUOUS
10
105.856
20
-104.977
11
105.875
21
-104.775
0
LINE
8
BLACK
6
CONTINUOUS
10
105.875
20
-104.775
11
105.856
21
-104.573
0
LINE
8
BLACK
6
CONTINUOUS
10
105.856
20
-104.573
11
105.8
21
-104.378
0
LINE
8
BLACK
6
CONTINUOUS
10
105.8
20
-104.378
11
105.71
21
-104.196
0
LINE
8
BLACK
6
CONTINUOUS
10
105.71
20
-104.196
11
105.588
21
-104.034
0
LINE
8
BLACK
6
CONTINUOUS
10
105.588
20
-104.034
11
105.438
21
-103.897
0
LINE
8
BLACK
6
CONTINUOUS
10
105.438
20
-103.897
11
105.265
21
-103.791
0
LINE
8
BLACK
6
CONTINUOUS
10
105.265
20
-103.791
11
105.076
21
-103.717
0
LINE
8
BLACK
6
CONTINUOUS
10
105.076
20
-103.717
11
104.876
21
-103.68
0
LINE
8
BLACK
6
CONTINUOUS
10
104.876
20
-103.68
11
104.674
21
-103.68
0
LINE
8
BLACK
6
CONTINUOUS
10
104.674
20
-103.68
11
104.474
21
-103.717
0
LINE
8
BLACK
6
CONTINUOUS
10
104.474
20
-103.717
11
104.285
21
-103.791
0
LINE
8
BLACK
6
CONTINUOUS
10
104.285
20
-103.791
11
104.112
21
-103.897
0
LINE
8
BLACK
6
CONTINUOUS
10
104.112
20
-103.897
11
103.962
21
-104.034
0
LINE
8
BLACK
6
CONTINUOUS
10
103.962
20
-104.034
11
103.84
21
-104.196
0
LINE
8
BLACK
6
CONTINUOUS
10
103.84
20
-104.196
11
103.75
21
-104.378
0
LINE
8
BLACK
6
CONTINUOUS
10
103.75
20
-104.378
11
103.694
21
-104.573
0
LINE
8
BLACK
6
CONTINUOUS
10
103.694
20
-104.573
11
103.675
21
-104.775
0
LINE
8
BLACK
6
CONTINUOUS
10
103.675
20
-104.775
11
103.694
21
-104.977
0
LINE
8
BLACK
6
CONTINUOUS
10
162.227
20
-103.712
11
162.418
21
-103.786
0
LINE
8
BLACK
6
CONTINUOUS
10
162.418
20
-103.786
11
162.591
21
-103.893
0
LINE
8
BLACK
6
CONTINUOUS
10
162.591
20
-103.893
11
162.742
21
-104.031
0
LINE
8
BLACK
6
CONTINUOUS
10
162.742
20
-104.031
11
162.864
21
-104.193
0
LINE
8
BLACK
6
CONTINUOUS
10
162.864
20
-104.193
11
162.955
21
-104.376
0
LINE
8
BLACK
6
CONTINUOUS
10
162.955
20
-104.376
11
163.011
21
-104.572
0
LINE
8
BLACK
6
CONTINUOUS
10
163.011
20
-104.572
11
163.03
21
-104.775
0
LINE
8
BLACK
6
CONTINUOUS
10
163.03
20
-104.775
11
163.011
21
-104.978
0
LINE
8
BLACK
6
CONTINUOUS
10
163.011
20
-104.978
11
162.955
21
-105.174
0
LINE
8
BLACK
6
CONTINUOUS
10
162.955
20
-105.174
11
162.864
21
-105.357
0
LINE
8
BLACK
6
CONTINUOUS
10
162.864
20
-105.357
11
162.742
21
-105.519
0
LINE
8
BLACK
6
CONTINUOUS
10
162.742
20
-105.519
11
162.591
21
-105.657
0
LINE
8
BLACK
6
CONTINUOUS
10
162.591
20
-105.657
11
162.418
21
-105.764
0
LINE
8
BLACK
6
CONTINUOUS
10
162.418
20
-105.764
11
162.227
21
-105.838
0
LINE
8
BLACK
6
CONTINUOUS
10
162.227
20
-105.838
11
162.027
21
-105.875
0
LINE
8
BLACK
6
CONTINUOUS
10
162.027
20
-105.875
11
161.823
21
-105.875
0
LINE
8
BLACK
6
CONTINUOUS
10
161.823
20
-105.875
11
161.623
21
-105.838
0
LINE
8
BLACK
6
CONTINUOUS
10
161.623
20
-105.838
11
161.432
21
-105.764
0
LINE
8
BLACK
6
CONTINUOUS
10
161.432
20
-105.764
11
161.259
21
-105.657
0
LINE
8
BLACK
6
CONTINUOUS
10
161.259
20
-105.657
11
161.108
21
-105.519
0
LINE
8
BLACK
6
CONTINUOUS
10
161.108
20
-105.519
11
160.986
21
-105.357
0
LINE
8
BLACK
6
CONTINUOUS
10
160.986
20
-105.357
11
160.895
21
-105.174
0
LINE
8
BLACK
6
CONTINUOUS
10
160.895
20
-105.174
11
160.839
21
-104.978
0
LINE
8
BLACK
6
CONTINUOUS
10
160.839
20
-104.978
11
160.82
21
-104.775
0
LINE
8
BLACK
6
CONTINUOUS
10
160.82
20
-104.775
11
160.839
21
-104.572
0
LINE
8
BLACK
6
CONTINUOUS
10
160.839
20
-104.572
11
160.895
21
-104.376
0
LINE
8
BLACK
6
CONTINUOUS
10
160.895
20
-104.376
11
160.986
21
-104.193
0
LINE
8
BLACK
6
CONTINUOUS
10
160.986
20
-104.193
11
161.108
21
-104.031
0
LINE
8
BLACK
6
CONTINUOUS
10
161.108
20
-104.031
11
161.259
21
-103.893
0
LINE
8
BLACK
6
CONTINUOUS
10
161.259
20
-103.893
11
161.432
21
-103.786
0
LINE
8
BLACK
6
CONTINUOUS
10
161.432
20
-103.786
11
161.623
21
-103.712
0
LINE
8
BLACK
6
CONTINUOUS
10
161.623
20
-103.712
11
161.823
21
-103.675
0
LINE
8
BLACK
6
CONTINUOUS
10
161.823
20
-103.675
11
162.027
21
-103.675
0
LINE
8
BLACK
6
CONTINUOUS
10
162.027
20
-103.675
11
162.227
21
-103.712
0
LINE
8
BLACK
6
CONTINUOUS
10
160.844
20
-104.977
11
160.9
21
-105.172
0
LINE
8
BLACK
6
CONTINUOUS
10
160.9
20
-105.172
11
160.99
21
-105.354
0
LINE
8
BLACK
6
CONTINUOUS
10
160.99
20
-105.354
11
161.112
21
-105.516
0
LINE
8
BLACK
6
CONTINUOUS
10
161.112
20
-105.516
11
161.262
21
-105.653
0
LINE
8
BLACK
6
CONTINUOUS
10
161.262
20
-105.653
11
161.435
21
-105.759
0
LINE
8
BLACK
6
CONTINUOUS
10
161.435
20
-105.759
11
161.624
21
-105.833
0
LINE
8
BLACK
6
CONTINUOUS
10
161.624
20
-105.833
11
161.824
21
-105.87
0
LINE
8
BLACK
6
CONTINUOUS
10
161.824
20
-105.87
11
162.026
21
-105.87
0
LINE
8
BLACK
6
CONTINUOUS
10
162.026
20
-105.87
11
162.226
21
-105.833
0
LINE
8
BLACK
6
CONTINUOUS
10
162.226
20
-105.833
11
162.415
21
-105.759
0
LINE
8
BLACK
6
CONTINUOUS
10
162.415
20
-105.759
11
162.588
21
-105.653
0
LINE
8
BLACK
6
CONTINUOUS
10
162.588
20
-105.653
11
162.738
21
-105.516
0
LINE
8
BLACK
6
CONTINUOUS
10
162.738
20
-105.516
11
162.86
21
-105.354
0
LINE
8
BLACK
6
CONTINUOUS
10
162.86
20
-105.354
11
162.95
21
-105.172
0
LINE
8
BLACK
6
CONTINUOUS
10
162.95
20
-105.172
11
163.006
21
-104.977
0
LINE
8
BLACK
6
CONTINUOUS
10
163.006
20
-104.977
11
163.025
21
-104.775
0
LINE
8
BLACK
6
CONTINUOUS
10
163.025
20
-104.775
11
163.006
21
-104.573
0
LINE
8
BLACK
6
CONTINUOUS
10
163.006
20
-104.573
11
162.95
21
-104.378
0
LINE
8
BLACK
6
CONTINUOUS
10
162.95
20
-104.378
11
162.86
21
-104.196
0
LINE
8
BLACK
6
CONTINUOUS
10
162.86
20
-104.196
11
162.738
21
-104.034
0
LINE
8
BLACK
6
CONTINUOUS
10
162.738
20
-104.034
11
162.588
21
-103.897
0
LINE
8
BLACK
6
CONTINUOUS
10
162.588
20
-103.897
11
162.415
21
-103.791
0
LINE
8
BLACK
6
CONTINUOUS
10
162.415
20
-103.791
11
162.226
21
-103.717
0
LINE
8
BLACK
6
CONTINUOUS
10
162.226
20
-103.717
11
162.026
21
-103.68
0
LINE
8
BLACK
6
CONTINUOUS
10
162.026
20
-103.68
11
161.824
21
-103.68
0
LINE
8
BLACK
6
CONTINUOUS
10
161.824
20
-103.68
11
161.624
21
-103.717
0
LINE
8
BLACK
6
CONTINUOUS
10
161.624
20
-103.717
11
161.435
21
-103.791
0
LINE
8
BLACK
6
CONTINUOUS
10
161.435
20
-103.791
11
161.262
21
-103.897
0
LINE
8
BLACK
6
CONTINUOUS
10
161.262
20
-103.897
11
161.112
21
-104.034
0
LINE
8
BLACK
6
CONTINUOUS
10
161.112
20
-104.034
11
160.99
21
-104.196
0
LINE
8
BLACK
6
CONTINUOUS
10
160.99
20
-104.196
11
160.9
21
-104.378
0
LINE
8
BLACK
6
CONTINUOUS
10
160.9
20
-104.378
11
160.844
21
-104.573
0
LINE
8
BLACK
6
CONTINUOUS
10
160.844
20
-104.573
11
160.825
21
-104.775
0
LINE
8
BLACK
6
CONTINUOUS
10
160.825
20
-104.775
11
160.844
21
-104.977
0
LINE
8
BLACK
6
CONTINUOUS
10
200.327
20
-103.712
11
200.518
21
-103.786
0
LINE
8
BLACK
6
CONTINUOUS
10
200.518
20
-103.786
11
200.691
21
-103.893
0
LINE
8
BLACK
6
CONTINUOUS
10
200.691
20
-103.893
11
200.842
21
-104.031
0
LINE
8
BLACK
6
CONTINUOUS
10
200.842
20
-104.031
11
200.964
21
-104.193
0
LINE
8
BLACK
6
CONTINUOUS
10
200.964
20
-104.193
11
201.055
21
-104.376
0
LINE
8
BLACK
6
CONTINUOUS
10
201.055
20
-104.376
11
201.111
21
-104.572
0
LINE
8
BLACK
6
CONTINUOUS
10
201.111
20
-104.572
11
201.13
21
-104.775
0
LINE
8
BLACK
6
CONTINUOUS
10
201.13
20
-104.775
11
201.111
21
-104.978
0
LINE
8
BLACK
6
CONTINUOUS
10
201.111
20
-104.978
11
201.055
21
-105.174
0
LINE
8
BLACK
6
CONTINUOUS
10
201.055
20
-105.174
11
200.964
21
-105.357
0
LINE
8
BLACK
6
CONTINUOUS
10
200.964
20
-105.357
11
200.842
21
-105.519
0
LINE
8
BLACK
6
CONTINUOUS
10
200.842
20
-105.519
11
200.691
21
-105.657
0
LINE
8
BLACK
6
CONTINUOUS
10
200.691
20
-105.657
11
200.518
21
-105.764
0
LINE
8
BLACK
6
CONTINUOUS
10
200.518
20
-105.764
11
200.327
21
-105.838
0
LINE
8
BLACK
6
CONTINUOUS
10
200.327
20
-105.838
11
200.127
21
-105.875
0
LINE
8
BLACK
6
CONTINUOUS
10
200.127
20
-105.875
11
199.923
21
-105.875
0
LINE
8
BLACK
6
CONTINUOUS
10
199.923
20
-105.875
11
199.723
21
-105.838
0
LINE
8
BLACK
6
CONTINUOUS
10
199.723
20
-105.838
11
199.532
21
-105.764
0
LINE
8
BLACK
6
CONTINUOUS
10
199.532
20
-105.764
11
199.359
21
-105.657
0
LINE
8
BLACK
6
CONTINUOUS
10
199.359
20
-105.657
11
199.208
21
-105.519
0
LINE
8
BLACK
6
CONTINUOUS
10
199.208
20
-105.519
11
199.086
21
-105.357
0
LINE
8
BLACK
6
CONTINUOUS
10
199.086
20
-105.357
11
198.995
21
-105.174
0
LINE
8
BLACK
6
CONTINUOUS
10
198.995
20
-105.174
11
198.939
21
-104.978
0
LINE
8
BLACK
6
CONTINUOUS
10
198.939
20
-104.978
11
198.92
21
-104.775
0
LINE
8
BLACK
6
CONTINUOUS
10
198.92
20
-104.775
11
198.939
21
-104.572
0
LINE
8
BLACK
6
CONTINUOUS
10
198.939
20
-104.572
11
198.995
21
-104.376
0
LINE
8
BLACK
6
CONTINUOUS
10
198.995
20
-104.376
11
199.086
21
-104.193
0
LINE
8
BLACK
6
CONTINUOUS
10
199.086
20
-104.193
11
199.208
21
-104.031
0
LINE
8
BLACK
6
CONTINUOUS
10
199.208
20
-104.031
11
199.359
21
-103.893
0
LINE
8
BLACK
6
CONTINUOUS
10
199.359
20
-103.893
11
199.532
21
-103.786
0
LINE
8
BLACK
6
CONTINUOUS
10
199.532
20
-103.786
11
199.723
21
-103.712
0
LINE
8
BLACK
6
CONTINUOUS
10
199.723
20
-103.712
11
199.923
21
-103.675
0
LINE
8
BLACK
6
CONTINUOUS
10
199.923
20
-103.675
11
200.127
21
-103.675
0
LINE
8
BLACK
6
CONTINUOUS
10
200.127
20
-103.675
11
200.327
21
-103.712
0
LINE
8
BLACK
6
CONTINUOUS
10
198.944
20
-104.977
11
199
21
-105.172
0
LINE
8
BLACK
6
CONTINUOUS
10
199
20
-105.172
11
199.09
21
-105.354
0
LINE
8
BLACK
6
CONTINUOUS
10
199.09
20
-105.354
11
199.212
21
-105.516
0
LINE
8
BLACK
6
CONTINUOUS
10
199.212
20
-105.516
11
199.362
21
-105.653
0
LINE
8
BLACK
6
CONTINUOUS
10
199.362
20
-105.653
11
199.535
21
-105.759
0
LINE
8
BLACK
6
CONTINUOUS
10
199.535
20
-105.759
11
199.724
21
-105.833
0
LINE
8
BLACK
6
CONTINUOUS
10
199.724
20
-105.833
11
199.924
21
-105.87
0
LINE
8
BLACK
6
CONTINUOUS
10
199.924
20
-105.87
11
200.126
21
-105.87
0
LINE
8
BLACK
6
CONTINUOUS
10
200.126
20
-105.87
11
200.326
21
-105.833
0
LINE
8
BLACK
6
CONTINUOUS
10
200.326
20
-105.833
11
200.515
21
-105.759
0
LINE
8
BLACK
6
CONTINUOUS
10
200.515
20
-105.759
11
200.688
21
-105.653
0
LINE
8
BLACK
6
CONTINUOUS
10
200.688
20
-105.653
11
200.838
21
-105.516
0
LINE
8
BLACK
6
CONTINUOUS
10
200.838
20
-105.516
11
200.96
21
-105.354
0
LINE
8
BLACK
6
CONTINUOUS
10
200.96
20
-105.354
11
201.05
21
-105.172
0
LINE
8
BLACK
6
CONTINUOUS
10
201.05
20
-105.172
11
201.106
21
-104.977
0
LINE
8
BLACK
6
CONTINUOUS
10
201.106
20
-104.977
11
201.125
21
-104.775
0
LINE
8
BLACK
6
CONTINUOUS
10
201.125
20
-104.775
11
201.106
21
-104.573
0
LINE
8
BLACK
6
CONTINUOUS
10
201.106
20
-104.573
11
201.05
21
-104.378
0
LINE
8
BLACK
6
CONTINUOUS
10
201.05
20
-104.378
11
200.96
21
-104.196
0
LINE
8
BLACK
6
CONTINUOUS
10
200.96
20
-104.196
11
200.838
21
-104.034
0
LINE
8
BLACK
6
CONTINUOUS
10
200.838
20
-104.034
11
200.688
21
-103.897
0
LINE
8
BLACK
6
CONTINUOUS
10
200.688
20
-103.897
11
200.515
21
-103.791
0
LINE
8
BLACK
6
CONTINUOUS
10
200.515
20
-103.791
11
200.326
21
-103.717
0
LINE
8
BLACK
6
CONTINUOUS
10
200.326
20
-103.717
11
200.126
21
-103.68
0
LINE
8
BLACK
6
CONTINUOUS
10
200.126
20
-103.68
11
199.924
21
-103.68
0
LINE
8
BLACK
6
CONTINUOUS
10
199.924
20
-103.68
11
199.724
21
-103.717
0
LINE
8
BLACK
6
CONTINUOUS
10
199.724
20
-103.717
11
199.535
21
-103.791
0
LINE
8
BLACK
6
CONTINUOUS
10
199.535
20
-103.791
11
199.362
21
-103.897
0
LINE
8
BLACK
6
CONTINUOUS
10
199.362
20
-103.897
11
199.212
21
-104.034
0
LINE
8
BLACK
6
CONTINUOUS
10
199.212
20
-104.034
11
199.09
21
-104.196
0
LINE
8
BLACK
6
CONTINUOUS
10
199.09
20
-104.196
11
199
21
-104.378
0
LINE
8
BLACK
6
CONTINUOUS
10
199
20
-104.378
11
198.944
21
-104.573
0
LINE
8
BLACK
6
CONTINUOUS
10
198.944
20
-104.573
11
198.925
21
-104.775
0
LINE
8
BLACK
6
CONTINUOUS
10
198.925
20
-104.775
11
198.944
21
-104.977
0
LINE
8
BLACK
6
CONTINUOUS
10
47.9274
20
-65.6122
11
48.1175
21
-65.6858
0
LINE
8
BLACK
6
CONTINUOUS
10
48.1175
20
-65.6858
11
48.2909
21
-65.7932
0
LINE
8
BLACK
6
CONTINUOUS
10
48.2909
20
-65.7932
11
48.4416
21
-65.9306
0
LINE
8
BLACK
6
CONTINUOUS
10
48.4416
20
-65.9306
11
48.5645
21
-66.0933
0
LINE
8
BLACK
6
CONTINUOUS
10
48.5645
20
-66.0933
11
48.6554
21
-66.2758
0
LINE
8
BLACK
6
CONTINUOUS
10
48.6554
20
-66.2758
11
48.7112
21
-66.472
0
LINE
8
BLACK
6
CONTINUOUS
10
48.7112
20
-66.472
11
48.73
21
-66.675
0
LINE
8
BLACK
6
CONTINUOUS
10
48.73
20
-66.675
11
48.7112
21
-66.878
0
LINE
8
BLACK
6
CONTINUOUS
10
48.7112
20
-66.878
11
48.6554
21
-67.0742
0
LINE
8
BLACK
6
CONTINUOUS
10
48.6554
20
-67.0742
11
48.5645
21
-67.2567
0
LINE
8
BLACK
6
CONTINUOUS
10
48.5645
20
-67.2567
11
48.4416
21
-67.4194
0
LINE
8
BLACK
6
CONTINUOUS
10
48.4416
20
-67.4194
11
48.2909
21
-67.5568
0
LINE
8
BLACK
6
CONTINUOUS
10
48.2909
20
-67.5568
11
48.1175
21
-67.6642
0
LINE
8
BLACK
6
CONTINUOUS
10
48.1175
20
-67.6642
11
47.9274
21
-67.7378
0
LINE
8
BLACK
6
CONTINUOUS
10
47.9274
20
-67.7378
11
47.727
21
-67.7753
0
LINE
8
BLACK
6
CONTINUOUS
10
47.727
20
-67.7753
11
47.523
21
-67.7753
0
LINE
8
BLACK
6
CONTINUOUS
10
47.523
20
-67.7753
11
47.3226
21
-67.7378
0
LINE
8
BLACK
6
CONTINUOUS
10
47.3226
20
-67.7378
11
47.1325
21
-67.6642
0
LINE
8
BLACK
6
CONTINUOUS
10
47.1325
20
-67.6642
11
46.9591
21
-67.5568
0
LINE
8
BLACK
6
CONTINUOUS
10
46.9591
20
-67.5568
11
46.8084
21
-67.4194
0
LINE
8
BLACK
6
CONTINUOUS
10
46.8084
20
-67.4194
11
46.6855
21
-67.2567
0
LINE
8
BLACK
6
CONTINUOUS
10
46.6855
20
-67.2567
11
46.5946
21
-67.0742
0
LINE
8
BLACK
6
CONTINUOUS
10
46.5946
20
-67.0742
11
46.5388
21
-66.878
0
LINE
8
BLACK
6
CONTINUOUS
10
46.5388
20
-66.878
11
46.52
21
-66.675
0
LINE
8
BLACK
6
CONTINUOUS
10
46.52
20
-66.675
11
46.5388
21
-66.472
0
LINE
8
BLACK
6
CONTINUOUS
10
46.5388
20
-66.472
11
46.5946
21
-66.2758
0
LINE
8
BLACK
6
CONTINUOUS
10
46.5946
20
-66.2758
11
46.6855
21
-66.0933
0
LINE
8
BLACK
6
CONTINUOUS
10
46.6855
20
-66.0933
11
46.8084
21
-65.9306
0
LINE
8
BLACK
6
CONTINUOUS
10
46.8084
20
-65.9306
11
46.9591
21
-65.7932
0
LINE
8
BLACK
6
CONTINUOUS
10
46.9591
20
-65.7932
11
47.1325
21
-65.6858
0
LINE
8
BLACK
6
CONTINUOUS
10
47.1325
20
-65.6858
11
47.3226
21
-65.6122
0
LINE
8
BLACK
6
CONTINUOUS
10
47.3226
20
-65.6122
11
47.523
21
-65.5747
0
LINE
8
BLACK
6
CONTINUOUS
10
47.523
20
-65.5747
11
47.727
21
-65.5747
0
LINE
8
BLACK
6
CONTINUOUS
10
47.727
20
-65.5747
11
47.9274
21
-65.6122
0
LINE
8
BLACK
6
CONTINUOUS
10
46.544
20
-66.8771
11
46.5996
21
-67.0723
0
LINE
8
BLACK
6
CONTINUOUS
10
46.5996
20
-67.0723
11
46.69
21
-67.2539
0
LINE
8
BLACK
6
CONTINUOUS
10
46.69
20
-67.2539
11
46.8123
21
-67.4159
0
LINE
8
BLACK
6
CONTINUOUS
10
46.8123
20
-67.4159
11
46.9623
21
-67.5526
0
LINE
8
BLACK
6
CONTINUOUS
10
46.9623
20
-67.5526
11
47.1348
21
-67.6594
0
LINE
8
BLACK
6
CONTINUOUS
10
47.1348
20
-67.6594
11
47.3241
21
-67.7327
0
LINE
8
BLACK
6
CONTINUOUS
10
47.3241
20
-67.7327
11
47.5235
21
-67.77
0
LINE
8
BLACK
6
CONTINUOUS
10
47.5235
20
-67.77
11
47.7265
21
-67.77
0
LINE
8
BLACK
6
CONTINUOUS
10
47.7265
20
-67.77
11
47.9259
21
-67.7327
0
LINE
8
BLACK
6
CONTINUOUS
10
47.9259
20
-67.7327
11
48.1152
21
-67.6594
0
LINE
8
BLACK
6
CONTINUOUS
10
48.1152
20
-67.6594
11
48.2877
21
-67.5526
0
LINE
8
BLACK
6
CONTINUOUS
10
48.2877
20
-67.5526
11
48.4377
21
-67.4159
0
LINE
8
BLACK
6
CONTINUOUS
10
48.4377
20
-67.4159
11
48.56
21
-67.2539
0
LINE
8
BLACK
6
CONTINUOUS
10
48.56
20
-67.2539
11
48.6504
21
-67.0723
0
LINE
8
BLACK
6
CONTINUOUS
10
48.6504
20
-67.0723
11
48.706
21
-66.8771
0
LINE
8
BLACK
6
CONTINUOUS
10
48.706
20
-66.8771
11
48.7247
21
-66.675
0
LINE
8
BLACK
6
CONTINUOUS
10
48.7247
20
-66.675
11
48.706
21
-66.4729
0
LINE
8
BLACK
6
CONTINUOUS
10
48.706
20
-66.4729
11
48.6504
21
-66.2777
0
LINE
8
BLACK
6
CONTINUOUS
10
48.6504
20
-66.2777
11
48.56
21
-66.0961
0
LINE
8
BLACK
6
CONTINUOUS
10
48.56
20
-66.0961
11
48.4377
21
-65.9341
0
LINE
8
BLACK
6
CONTINUOUS
10
48.4377
20
-65.9341
11
48.2877
21
-65.7974
0
LINE
8
BLACK
6
CONTINUOUS
10
48.2877
20
-65.7974
11
48.1152
21
-65.6906
0
LINE
8
BLACK
6
CONTINUOUS
10
48.1152
20
-65.6906
11
47.9259
21
-65.6173
0
LINE
8
BLACK
6
CONTINUOUS
10
47.9259
20
-65.6173
11
47.7265
21
-65.58
0
LINE
8
BLACK
6
CONTINUOUS
10
47.7265
20
-65.58
11
47.5235
21
-65.58
0
LINE
8
BLACK
6
CONTINUOUS
10
47.5235
20
-65.58
11
47.3241
21
-65.6173
0
LINE
8
BLACK
6
CONTINUOUS
10
47.3241
20
-65.6173
11
47.1348
21
-65.6906
0
LINE
8
BLACK
6
CONTINUOUS
10
47.1348
20
-65.6906
11
46.9623
21
-65.7974
0
LINE
8
BLACK
6
CONTINUOUS
10
46.9623
20
-65.7974
11
46.8123
21
-65.9341
0
LINE
8
BLACK
6
CONTINUOUS
10
46.8123
20
-65.9341
11
46.69
21
-66.0961
0
LINE
8
BLACK
6
CONTINUOUS
10
46.69
20
-66.0961
11
46.5996
21
-66.2777
0
LINE
8
BLACK
6
CONTINUOUS
10
46.5996
20
-66.2777
11
46.544
21
-66.4729
0
LINE
8
BLACK
6
CONTINUOUS
10
46.544
20
-66.4729
11
46.5253
21
-66.675
0
LINE
8
BLACK
6
CONTINUOUS
10
46.5253
20
-66.675
11
46.544
21
-66.8771
0
LINE
8
BLACK
6
CONTINUOUS
10
105.077
20
-65.6122
11
105.268
21
-65.6858
0
LINE
8
BLACK
6
CONTINUOUS
10
105.268
20
-65.6858
11
105.441
21
-65.7932
0
LINE
8
BLACK
6
CONTINUOUS
10
105.441
20
-65.7932
11
105.592
21
-65.9306
0
LINE
8
BLACK
6
CONTINUOUS
10
105.592
20
-65.9306
11
105.714
21
-66.0933
0
LINE
8
BLACK
6
CONTINUOUS
10
105.714
20
-66.0933
11
105.805
21
-66.2758
0
LINE
8
BLACK
6
CONTINUOUS
10
105.805
20
-66.2758
11
105.861
21
-66.472
0
LINE
8
BLACK
6
CONTINUOUS
10
105.861
20
-66.472
11
105.88
21
-66.675
0
LINE
8
BLACK
6
CONTINUOUS
10
105.88
20
-66.675
11
105.861
21
-66.878
0
LINE
8
BLACK
6
CONTINUOUS
10
105.861
20
-66.878
11
105.805
21
-67.0742
0
LINE
8
BLACK
6
CONTINUOUS
10
105.805
20
-67.0742
11
105.714
21
-67.2567
0
LINE
8
BLACK
6
CONTINUOUS
10
105.714
20
-67.2567
11
105.592
21
-67.4194
0
LINE
8
BLACK
6
CONTINUOUS
10
105.592
20
-67.4194
11
105.441
21
-67.5568
0
LINE
8
BLACK
6
CONTINUOUS
10
105.441
20
-67.5568
11
105.268
21
-67.6642
0
LINE
8
BLACK
6
CONTINUOUS
10
105.268
20
-67.6642
11
105.077
21
-67.7378
0
LINE
8
BLACK
6
CONTINUOUS
10
105.077
20
-67.7378
11
104.877
21
-67.7753
0
LINE
8
BLACK
6
CONTINUOUS
10
104.877
20
-67.7753
11
104.673
21
-67.7753
0
LINE
8
BLACK
6
CONTINUOUS
10
104.673
20
-67.7753
11
104.473
21
-67.7378
0
LINE
8
BLACK
6
CONTINUOUS
10
104.473
20
-67.7378
11
104.282
21
-67.6642
0
LINE
8
BLACK
6
CONTINUOUS
10
104.282
20
-67.6642
11
104.109
21
-67.5568
0
LINE
8
BLACK
6
CONTINUOUS
10
104.109
20
-67.5568
11
103.958
21
-67.4194
0
LINE
8
BLACK
6
CONTINUOUS
10
103.958
20
-67.4194
11
103.836
21
-67.2567
0
LINE
8
BLACK
6
CONTINUOUS
10
103.836
20
-67.2567
11
103.745
21
-67.0742
0
LINE
8
BLACK
6
CONTINUOUS
10
103.745
20
-67.0742
11
103.689
21
-66.878
0
LINE
8
BLACK
6
CONTINUOUS
10
103.689
20
-66.878
11
103.67
21
-66.675
0
LINE
8
BLACK
6
CONTINUOUS
10
103.67
20
-66.675
11
103.689
21
-66.472
0
LINE
8
BLACK
6
CONTINUOUS
10
103.689
20
-66.472
11
103.745
21
-66.2758
0
LINE
8
BLACK
6
CONTINUOUS
10
103.745
20
-66.2758
11
103.836
21
-66.0933
0
LINE
8
BLACK
6
CONTINUOUS
10
103.836
20
-66.0933
11
103.958
21
-65.9306
0
LINE
8
BLACK
6
CONTINUOUS
10
103.958
20
-65.9306
11
104.109
21
-65.7932
0
LINE
8
BLACK
6
CONTINUOUS
10
104.109
20
-65.7932
11
104.282
21
-65.6858
0
LINE
8
BLACK
6
CONTINUOUS
10
104.282
20
-65.6858
11
104.473
21
-65.6122
0
LINE
8
BLACK
6
CONTINUOUS
10
104.473
20
-65.6122
11
104.673
21
-65.5747
0
LINE
8
BLACK
6
CONTINUOUS
10
104.673
20
-65.5747
11
104.877
21
-65.5747
0
LINE
8
BLACK
6
CONTINUOUS
10
104.877
20
-65.5747
11
105.077
21
-65.6122
0
LINE
8
BLACK
6
CONTINUOUS
10
103.694
20
-66.8771
11
103.75
21
-67.0723
0
LINE
8
BLACK
6
CONTINUOUS
10
103.75
20
-67.0723
11
103.84
21
-67.2539
0
LINE
8
BLACK
6
CONTINUOUS
10
103.84
20
-67.2539
11
103.962
21
-67.4159
0
LINE
8
BLACK
6
CONTINUOUS
10
103.962
20
-67.4159
11
104.112
21
-67.5526
0
LINE
8
BLACK
6
CONTINUOUS
10
104.112
20
-67.5526
11
104.285
21
-67.6594
0
LINE
8
BLACK
6
CONTINUOUS
10
104.285
20
-67.6594
11
104.474
21
-67.7327
0
LINE
8
BLACK
6
CONTINUOUS
10
104.474
20
-67.7327
11
104.674
21
-67.77
0
LINE
8
BLACK
6
CONTINUOUS
10
104.674
20
-67.77
11
104.876
21
-67.77
0
LINE
8
BLACK
6
CONTINUOUS
10
104.876
20
-67.77
11
105.076
21
-67.7327
0
LINE
8
BLACK
6
CONTINUOUS
10
105.076
20
-67.7327
11
105.265
21
-67.6594
0
LINE
8
BLACK
6
CONTINUOUS
10
105.265
20
-67.6594
11
105.438
21
-67.5526
0
LINE
8
BLACK
6
CONTINUOUS
10
105.438
20
-67.5526
11
105.588
21
-67.4159
0
LINE
8
BLACK
6
CONTINUOUS
10
105.588
20
-67.4159
11
105.71
21
-67.2539
0
LINE
8
BLACK
6
CONTINUOUS
10
105.71
20
-67.2539
11
105.8
21
-67.0723
0
LINE
8
BLACK
6
CONTINUOUS
10
105.8
20
-67.0723
11
105.856
21
-66.8771
0
LINE
8
BLACK
6
CONTINUOUS
10
105.856
20
-66.8771
11
105.875
21
-66.675
0
LINE
8
BLACK
6
CONTINUOUS
10
105.875
20
-66.675
11
105.856
21
-66.4729
0
LINE
8
BLACK
6
CONTINUOUS
10
105.856
20
-66.4729
11
105.8
21
-66.2777
0
LINE
8
BLACK
6
CONTINUOUS
10
105.8
20
-66.2777
11
105.71
21
-66.0961
0
LINE
8
BLACK
6
CONTINUOUS
10
105.71
20
-66.0961
11
105.588
21
-65.9341
0
LINE
8
BLACK
6
CONTINUOUS
10
105.588
20
-65.9341
11
105.438
21
-65.7974
0
LINE
8
BLACK
6
CONTINUOUS
10
105.438
20
-65.7974
11
105.265
21
-65.6906
0
LINE
8
BLACK
6
CONTINUOUS
10
105.265
20
-65.6906
11
105.076
21
-65.6173
0
LINE
8
BLACK
6
CONTINUOUS
10
105.076
20
-65.6173
11
104.876
21
-65.58
0
LINE
8
BLACK
6
CONTINUOUS
10
104.876
20
-65.58
11
104.674
21
-65.58
0
LINE
8
BLACK
6
CONTINUOUS
10
104.674
20
-65.58
11
104.474
21
-65.6173
0
LINE
8
BLACK
6
CONTINUOUS
10
104.474
20
-65.6173
11
104.285
21
-65.6906
0
LINE
8
BLACK
6
CONTINUOUS
10
104.285
20
-65.6906
11
104.112
21
-65.7974
0
LINE
8
BLACK
6
CONTINUOUS
10
104.112
20
-65.7974
11
103.962
21
-65.9341
0
LINE
8
BLACK
6
CONTINUOUS
10
103.962
20
-65.9341
11
103.84
21
-66.0961
0
LINE
8
BLACK
6
CONTINUOUS
10
103.84
20
-66.0961
11
103.75
21
-66.2777
0
LINE
8
BLACK
6
CONTINUOUS
10
103.75
20
-66.2777
11
103.694
21
-66.4729
0
LINE
8
BLACK
6
CONTINUOUS
10
103.694
20
-66.4729
11
103.675
21
-66.675
0
LINE
8
BLACK
6
CONTINUOUS
10
103.675
20
-66.675
11
103.694
21
-66.8771
0
LINE
8
BLACK
6
CONTINUOUS
10
162.227
20
-65.6122
11
162.418
21
-65.6858
0
LINE
8
BLACK
6
CONTINUOUS
10
162.418
20
-65.6858
11
162.591
21
-65.7932
0
LINE
8
BLACK
6
CONTINUOUS
10
162.591
20
-65.7932
11
162.742
21
-65.9306
0
LINE
8
BLACK
6
CONTINUOUS
10
162.742
20
-65.9306
11
162.864
21
-66.0933
0
LINE
8
BLACK
6
CONTINUOUS
10
162.864
20
-66.0933
11
162.955
21
-66.2758
0
LINE
8
BLACK
6
CONTINUOUS
10
162.955
20
-66.2758
11
163.011
21
-66.472
0
LINE
8
BLACK
6
CONTINUOUS
10
163.011
20
-66.472
11
163.03
21
-66.675
0
LINE
8
BLACK
6
CONTINUOUS
10
163.03
20
-66.675
11
163.011
21
-66.878
0
LINE
8
BLACK
6
CONTINUOUS
10
163.011
20
-66.878
11
162.955
21
-67.0742
0
LINE
8
BLACK
6
CONTINUOUS
10
162.955
20
-67.0742
11
162.864
21
-67.2567
0
LINE
8
BLACK
6
CONTINUOUS
10
162.864
20
-67.2567
11
162.742
21
-67.4194
0
LINE
8
BLACK
6
CONTINUOUS
10
162.742
20
-67.4194
11
162.591
21
-67.5568
0
LINE
8
BLACK
6
CONTINUOUS
10
162.591
20
-67.5568
11
162.418
21
-67.6642
0
LINE
8
BLACK
6
CONTINUOUS
10
162.418
20
-67.6642
11
162.227
21
-67.7378
0
LINE
8
BLACK
6
CONTINUOUS
10
162.227
20
-67.7378
11
162.027
21
-67.7753
0
LINE
8
BLACK
6
CONTINUOUS
10
162.027
20
-67.7753
11
161.823
21
-67.7753
0
LINE
8
BLACK
6
CONTINUOUS
10
161.823
20
-67.7753
11
161.623
21
-67.7378
0
LINE
8
BLACK
6
CONTINUOUS
10
161.623
20
-67.7378
11
161.432
21
-67.6642
0
LINE
8
BLACK
6
CONTINUOUS
10
161.432
20
-67.6642
11
161.259
21
-67.5568
0
LINE
8
BLACK
6
CONTINUOUS
10
161.259
20
-67.5568
11
161.108
21
-67.4194
0
LINE
8
BLACK
6
CONTINUOUS
10
161.108
20
-67.4194
11
160.986
21
-67.2567
0
LINE
8
BLACK
6
CONTINUOUS
10
160.986
20
-67.2567
11
160.895
21
-67.0742
0
LINE
8
BLACK
6
CONTINUOUS
10
160.895
20
-67.0742
11
160.839
21
-66.878
0
LINE
8
BLACK
6
CONTINUOUS
10
160.839
20
-66.878
11
160.82
21
-66.675
0
LINE
8
BLACK
6
CONTINUOUS
10
160.82
20
-66.675
11
160.839
21
-66.472
0
LINE
8
BLACK
6
CONTINUOUS
10
160.839
20
-66.472
11
160.895
21
-66.2758
0
LINE
8
BLACK
6
CONTINUOUS
10
160.895
20
-66.2758
11
160.986
21
-66.0933
0
LINE
8
BLACK
6
CONTINUOUS
10
160.986
20
-66.0933
11
161.108
21
-65.9306
0
LINE
8
BLACK
6
CONTINUOUS
10
161.108
20
-65.9306
11
161.259
21
-65.7932
0
LINE
8
BLACK
6
CONTINUOUS
10
161.259
20
-65.7932
11
161.432
21
-65.6858
0
LINE
8
BLACK
6
CONTINUOUS
10
161.432
20
-65.6858
11
161.623
21
-65.6122
0
LINE
8
BLACK
6
CONTINUOUS
10
161.623
20
-65.6122
11
161.823
21
-65.5747
0
LINE
8
BLACK
6
CONTINUOUS
10
161.823
20
-65.5747
11
162.027
21
-65.5747
0
LINE
8
BLACK
6
CONTINUOUS
10
162.027
20
-65.5747
11
162.227
21
-65.6122
0
LINE
8
BLACK
6
CONTINUOUS
10
160.844
20
-66.8771
11
160.9
21
-67.0723
0
LINE
8
BLACK
6
CONTINUOUS
10
160.9
20
-67.0723
11
160.99
21
-67.2539
0
LINE
8
BLACK
6
CONTINUOUS
10
160.99
20
-67.2539
11
161.112
21
-67.4159
0
LINE
8
BLACK
6
CONTINUOUS
10
161.112
20
-67.4159
11
161.262
21
-67.5526
0
LINE
8
BLACK
6
CONTINUOUS
10
161.262
20
-67.5526
11
161.435
21
-67.6594
0
LINE
8
BLACK
6
CONTINUOUS
10
161.435
20
-67.6594
11
161.624
21
-67.7327
0
LINE
8
BLACK
6
CONTINUOUS
10
161.624
20
-67.7327
11
161.824
21
-67.77
0
LINE
8
BLACK
6
CONTINUOUS
10
161.824
20
-67.77
11
162.026
21
-67.77
0
LINE
8
BLACK
6
CONTINUOUS
10
162.026
20
-67.77
11
162.226
21
-67.7327
0
LINE
8
BLACK
6
CONTINUOUS
10
162.226
20
-67.7327
11
162.415
21
-67.6594
0
LINE
8
BLACK
6
CONTINUOUS
10
162.415
20
-67.6594
11
162.588
21
-67.5526
0
LINE
8
BLACK
6
CONTINUOUS
10
162.588
20
-67.5526
11
162.738
21
-67.4159
0
LINE
8
BLACK
6
CONTINUOUS
10
162.738
20
-67.4159
11
162.86
21
-67.2539
0
LINE
8
BLACK
6
CONTINUOUS
10
162.86
20
-67.2539
11
162.95
21
-67.0723
0
LINE
8
BLACK
6
CONTINUOUS
10
162.95
20
-67.0723
11
163.006
21
-66.8771
0
LINE
8
BLACK
6
CONTINUOUS
10
163.006
20
-66.8771
11
163.025
21
-66.675
0
LINE
8
BLACK
6
CONTINUOUS
10
163.025
20
-66.675
11
163.006
21
-66.4729
0
LINE
8
BLACK
6
CONTINUOUS
10
163.006
20
-66.4729
11
162.95
21
-66.2777
0
LINE
8
BLACK
6
CONTINUOUS
10
162.95
20
-66.2777
11
162.86
21
-66.0961
0
LINE
8
BLACK
6
CONTINUOUS
10
162.86
20
-66.0961
11
162.738
21
-65.9341
0
LINE
8
BLACK
6
CONTINUOUS
10
162.738
20
-65.9341
11
162.588
21
-65.7974
0
LINE
8
BLACK
6
CONTINUOUS
10
162.588
20
-65.7974
11
162.415
21
-65.6906
0
LINE
8
BLACK
6
CONTINUOUS
10
162.415
20
-65.6906
11
162.226
21
-65.6173
0
LINE
8
BLACK
6
CONTINUOUS
10
162.226
20
-65.6173
11
162.026
21
-65.58
0
LINE
8
BLACK
6
CONTINUOUS
10
162.026
20
-65.58
11
161.824
21
-65.58
0
LINE
8
BLACK
6
CONTINUOUS
10
161.824
20
-65.58
11
161.624
21
-65.6173
0
LINE
8
BLACK
6
CONTINUOUS
10
161.624
20
-65.6173
11
161.435
21
-65.6906
0
LINE
8
BLACK
6
CONTINUOUS
10
161.435
20
-65.6906
11
161.262
21
-65.7974
0
LINE
8
BLACK
6
CONTINUOUS
10
161.262
20
-65.7974
11
161.112
21
-65.9341
0
LINE
8
BLACK
6
CONTINUOUS
10
161.112
20
-65.9341
11
160.99
21
-66.0961
0
LINE
8
BLACK
6
CONTINUOUS
10
160.99
20
-66.0961
11
160.9
21
-66.2777
0
LINE
8
BLACK
6
CONTINUOUS
10
160.9
20
-66.2777
11
160.844
21
-66.4729
0
LINE
8
BLACK
6
CONTINUOUS
10
160.844
20
-66.4729
11
160.825
21
-66.675
0
LINE
8
BLACK
6
CONTINUOUS
10
160.825
20
-66.675
11
160.844
21
-66.8771
0
LINE
8
BLACK
6
CONTINUOUS
10
219.377
20
-65.6122
11
219.568
21
-65.6858
0
LINE
8
BLACK
6
CONTINUOUS
10
219.568
20
-65.6858
11
219.741
21
-65.7932
0
LINE
8
BLACK
6
CONTINUOUS
10
219.741
20
-65.7932
11
219.892
21
-65.9306
0
LINE
8
BLACK
6
CONTINUOUS
10
219.892
20
-65.9306
11
220.014
21
-66.0933
0
LINE
8
BLACK
6
CONTINUOUS
10
220.014
20
-66.0933
11
220.105
21
-66.2758
0
LINE
8
BLACK
6
CONTINUOUS
10
220.105
20
-66.2758
11
220.161
21
-66.472
0
LINE
8
BLACK
6
CONTINUOUS
10
220.161
20
-66.472
11
220.18
21
-66.675
0
LINE
8
BLACK
6
CONTINUOUS
10
220.18
20
-66.675
11
220.161
21
-66.878
0
LINE
8
BLACK
6
CONTINUOUS
10
220.161
20
-66.878
11
220.105
21
-67.0742
0
LINE
8
BLACK
6
CONTINUOUS
10
220.105
20
-67.0742
11
220.014
21
-67.2567
0
LINE
8
BLACK
6
CONTINUOUS
10
220.014
20
-67.2567
11
219.892
21
-67.4194
0
LINE
8
BLACK
6
CONTINUOUS
10
219.892
20
-67.4194
11
219.741
21
-67.5568
0
LINE
8
BLACK
6
CONTINUOUS
10
219.741
20
-67.5568
11
219.568
21
-67.6642
0
LINE
8
BLACK
6
CONTINUOUS
10
219.568
20
-67.6642
11
219.377
21
-67.7378
0
LINE
8
BLACK
6
CONTINUOUS
10
219.377
20
-67.7378
11
219.177
21
-67.7753
0
LINE
8
BLACK
6
CONTINUOUS
10
219.177
20
-67.7753
11
218.973
21
-67.7753
0
LINE
8
BLACK
6
CONTINUOUS
10
218.973
20
-67.7753
11
218.773
21
-67.7378
0
LINE
8
BLACK
6
CONTINUOUS
10
218.773
20
-67.7378
11
218.582
21
-67.6642
0
LINE
8
BLACK
6
CONTINUOUS
10
218.582
20
-67.6642
11
218.409
21
-67.5568
0
LINE
8
BLACK
6
CONTINUOUS
10
218.409
20
-67.5568
11
218.258
21
-67.4194
0
LINE
8
BLACK
6
CONTINUOUS
10
218.258
20
-67.4194
11
218.136
21
-67.2567
0
LINE
8
BLACK
6
CONTINUOUS
10
218.136
20
-67.2567
11
218.045
21
-67.0742
0
LINE
8
BLACK
6
CONTINUOUS
10
218.045
20
-67.0742
11
217.989
21
-66.878
0
LINE
8
BLACK
6
CONTINUOUS
10
217.989
20
-66.878
11
217.97
21
-66.675
0
LINE
8
BLACK
6
CONTINUOUS
10
217.97
20
-66.675
11
217.989
21
-66.472
0
LINE
8
BLACK
6
CONTINUOUS
10
217.989
20
-66.472
11
218.045
21
-66.2758
0
LINE
8
BLACK
6
CONTINUOUS
10
218.045
20
-66.2758
11
218.136
21
-66.0933
0
LINE
8
BLACK
6
CONTINUOUS
10
218.136
20
-66.0933
11
218.258
21
-65.9306
0
LINE
8
BLACK
6
CONTINUOUS
10
218.258
20
-65.9306
11
218.409
21
-65.7932
0
LINE
8
BLACK
6
CONTINUOUS
10
218.409
20
-65.7932
11
218.582
21
-65.6858
0
LINE
8
BLACK
6
CONTINUOUS
10
218.582
20
-65.6858
11
218.773
21
-65.6122
0
LINE
8
BLACK
6
CONTINUOUS
10
218.773
20
-65.6122
11
218.973
21
-65.5747
0
LINE
8
BLACK
6
CONTINUOUS
10
218.973
20
-65.5747
11
219.177
21
-65.5747
0
LINE
8
BLACK
6
CONTINUOUS
10
219.177
20
-65.5747
11
219.377
21
-65.6122
0
LINE
8
BLACK
6
CONTINUOUS
10
217.994
20
-66.8771
11
218.05
21
-67.0723
0
LINE
8
BLACK
6
CONTINUOUS
10
218.05
20
-67.0723
11
218.14
21
-67.2539
0
LINE
8
BLACK
6
CONTINUOUS
10
218.14
20
-67.2539
11
218.262
21
-67.4159
0
LINE
8
BLACK
6
CONTINUOUS
10
218.262
20
-67.4159
11
218.412
21
-67.5526
0
LINE
8
BLACK
6
CONTINUOUS
10
218.412
20
-67.5526
11
218.585
21
-67.6594
0
LINE
8
BLACK
6
CONTINUOUS
10
218.585
20
-67.6594
11
218.774
21
-67.7327
0
LINE
8
BLACK
6
CONTINUOUS
10
218.774
20
-67.7327
11
218.974
21
-67.77
0
LINE
8
BLACK
6
CONTINUOUS
10
218.974
20
-67.77
11
219.176
21
-67.77
0
LINE
8
BLACK
6
CONTINUOUS
10
219.176
20
-67.77
11
219.376
21
-67.7327
0
LINE
8
BLACK
6
CONTINUOUS
10
219.376
20
-67.7327
11
219.565
21
-67.6594
0
LINE
8
BLACK
6
CONTINUOUS
10
219.565
20
-67.6594
11
219.738
21
-67.5526
0
LINE
8
BLACK
6
CONTINUOUS
10
219.738
20
-67.5526
11
219.888
21
-67.4159
0
LINE
8
BLACK
6
CONTINUOUS
10
219.888
20
-67.4159
11
220.01
21
-67.2539
0
LINE
8
BLACK
6
CONTINUOUS
10
220.01
20
-67.2539
11
220.1
21
-67.0723
0
LINE
8
BLACK
6
CONTINUOUS
10
220.1
20
-67.0723
11
220.156
21
-66.8771
0
LINE
8
BLACK
6
CONTINUOUS
10
220.156
20
-66.8771
11
220.175
21
-66.675
0
LINE
8
BLACK
6
CONTINUOUS
10
220.175
20
-66.675
11
220.156
21
-66.4729
0
LINE
8
BLACK
6
CONTINUOUS
10
220.156
20
-66.4729
11
220.1
21
-66.2777
0
LINE
8
BLACK
6
CONTINUOUS
10
220.1
20
-66.2777
11
220.01
21
-66.0961
0
LINE
8
BLACK
6
CONTINUOUS
10
220.01
20
-66.0961
11
219.888
21
-65.9341
0
LINE
8
BLACK
6
CONTINUOUS
10
219.888
20
-65.9341
11
219.738
21
-65.7974
0
LINE
8
BLACK
6
CONTINUOUS
10
219.738
20
-65.7974
11
219.565
21
-65.6906
0
LINE
8
BLACK
6
CONTINUOUS
10
219.565
20
-65.6906
11
219.376
21
-65.6173
0
LINE
8
BLACK
6
CONTINUOUS
10
219.376
20
-65.6173
11
219.176
21
-65.58
0
LINE
8
BLACK
6
CONTINUOUS
10
219.176
20
-65.58
11
218.974
21
-65.58
0
LINE
8
BLACK
6
CONTINUOUS
10
218.974
20
-65.58
11
218.774
21
-65.6173
0
LINE
8
BLACK
6
CONTINUOUS
10
218.774
20
-65.6173
11
218.585
21
-65.6906
0
LINE
8
BLACK
6
CONTINUOUS
10
218.585
20
-65.6906
11
218.412
21
-65.7974
0
LINE
8
BLACK
6
CONTINUOUS
10
218.412
20
-65.7974
11
218.262
21
-65.9341
0
LINE
8
BLACK
6
CONTINUOUS
10
218.262
20
-65.9341
11
218.14
21
-66.0961
0
LINE
8
BLACK
6
CONTINUOUS
10
218.14
20
-66.0961
11
218.05
21
-66.2777
0
LINE
8
BLACK
6
CONTINUOUS
10
218.05
20
-66.2777
11
217.994
21
-66.4729
0
LINE
8
BLACK
6
CONTINUOUS
10
217.994
20
-66.4729
11
217.975
21
-66.675
0
LINE
8
BLACK
6
CONTINUOUS
10
217.975
20
-66.675
11
217.994
21
-66.8771
0
LINE
8
BLACK
6
CONTINUOUS
10
235.744
20
-47.575
11
235.744
21
-47.575
0
LINE
8
BLACK
6
CONTINUOUS
10
235.744
20
-47.575
11
236.037
21
-47.5927
0
LINE
8
BLACK
6
CONTINUOUS
10
236.037
20
-47.5927
11
236.326
21
-47.6457
0
LINE
8
BLACK
6
CONTINUOUS
10
236.326
20
-47.6457
11
236.606
21
-47.733
0
LINE
8
BLACK
6
CONTINUOUS
10
236.606
20
-47.733
11
236.874
21
-47.8535
0
LINE
8
BLACK
6
CONTINUOUS
10
236.874
20
-47.8535
11
237.125
21
-48.0054
0
LINE
8
BLACK
6
CONTINUOUS
10
237.125
20
-48.0054
11
237.356
21
-48.1864
0
LINE
8
BLACK
6
CONTINUOUS
10
237.356
20
-48.1864
11
237.564
21
-48.394
0
LINE
8
BLACK
6
CONTINUOUS
10
237.564
20
-48.394
11
237.745
21
-48.6252
0
LINE
8
BLACK
6
CONTINUOUS
10
237.745
20
-48.6252
11
237.897
21
-48.8764
0
LINE
8
BLACK
6
CONTINUOUS
10
237.897
20
-48.8764
11
238.017
21
-49.1441
0
LINE
8
BLACK
6
CONTINUOUS
10
238.017
20
-49.1441
11
238.104
21
-49.4244
0
LINE
8
BLACK
6
CONTINUOUS
10
238.104
20
-49.4244
11
238.157
21
-49.7132
0
LINE
8
BLACK
6
CONTINUOUS
10
238.157
20
-49.7132
11
238.175
21
-50.0062
0
LINE
8
BLACK
6
CONTINUOUS
10
238.175
20
-50.0062
11
238.175
21
-50.0062
0
LINE
8
BLACK
6
CONTINUOUS
10
238.175
20
-50.0062
11
238.175
21
-102.394
0
LINE
8
BLACK
6
CONTINUOUS
10
238.175
20
-102.394
11
238.175
21
-102.394
0
LINE
8
BLACK
6
CONTINUOUS
10
238.175
20
-102.394
11
238.157
21
-102.687
0
LINE
8
BLACK
6
CONTINUOUS
10
238.157
20
-102.687
11
238.104
21
-102.976
0
LINE
8
BLACK
6
CONTINUOUS
10
238.104
20
-102.976
11
238.017
21
-103.256
0
LINE
8
BLACK
6
CONTINUOUS
10
238.017
20
-103.256
11
237.897
21
-103.524
0
LINE
8
BLACK
6
CONTINUOUS
10
237.897
20
-103.524
11
237.745
21
-103.775
0
LINE
8
BLACK
6
CONTINUOUS
10
237.745
20
-103.775
11
237.564
21
-104.006
0
LINE
8
BLACK
6
CONTINUOUS
10
237.564
20
-104.006
11
237.356
21
-104.214
0
LINE
8
BLACK
6
CONTINUOUS
10
237.356
20
-104.214
11
237.125
21
-104.395
0
LINE
8
BLACK
6
CONTINUOUS
10
237.125
20
-104.395
11
236.874
21
-104.546
0
LINE
8
BLACK
6
CONTINUOUS
10
236.874
20
-104.546
11
236.606
21
-104.667
0
LINE
8
BLACK
6
CONTINUOUS
10
236.606
20
-104.667
11
236.326
21
-104.754
0
LINE
8
BLACK
6
CONTINUOUS
10
236.326
20
-104.754
11
236.037
21
-104.807
0
LINE
8
BLACK
6
CONTINUOUS
10
236.037
20
-104.807
11
235.744
21
-104.825
0
LINE
8
BLACK
6
CONTINUOUS
10
235.744
20
-104.825
11
235.744
21
-104.825
0
LINE
8
BLACK
6
CONTINUOUS
10
235.744
20
-104.825
11
235.744
21
-104.825
0
LINE
8
BLACK
6
CONTINUOUS
10
235.744
20
-104.825
11
223.837
21
-104.825
0
LINE
8
BLACK
6
CONTINUOUS
10
223.837
20
-104.825
11
223.837
21
-104.825
0
LINE
8
BLACK
6
CONTINUOUS
10
223.837
20
-104.825
11
223.573
21
-104.825
0
LINE
8
BLACK
6
CONTINUOUS
10
223.573
20
-104.825
11
223.045
21
-104.86
0
LINE
8
BLACK
6
CONTINUOUS
10
223.045
20
-104.86
11
222.521
21
-104.929
0
LINE
8
BLACK
6
CONTINUOUS
10
222.521
20
-104.929
11
222.002
21
-105.032
0
LINE
8
BLACK
6
CONTINUOUS
10
222.002
20
-105.032
11
221.491
21
-105.169
0
LINE
8
BLACK
6
CONTINUOUS
10
221.491
20
-105.169
11
220.99
21
-105.339
0
LINE
8
BLACK
6
CONTINUOUS
10
220.99
20
-105.339
11
220.501
21
-105.541
0
LINE
8
BLACK
6
CONTINUOUS
10
220.501
20
-105.541
11
220.027
21
-105.775
0
LINE
8
BLACK
6
CONTINUOUS
10
220.027
20
-105.775
11
219.568
21
-106.04
0
LINE
8
BLACK
6
CONTINUOUS
10
219.568
20
-106.04
11
219.129
21
-106.334
0
LINE
8
BLACK
6
CONTINUOUS
10
219.129
20
-106.334
11
218.709
21
-106.656
0
LINE
8
BLACK
6
CONTINUOUS
10
218.709
20
-106.656
11
218.311
21
-107.005
0
LINE
8
BLACK
6
CONTINUOUS
10
218.311
20
-107.005
11
218.124
21
-107.192
0
LINE
8
BLACK
6
CONTINUOUS
10
218.124
20
-107.192
11
218.124
21
-107.192
0
LINE
8
BLACK
6
CONTINUOUS
10
218.124
20
-107.192
11
218.124
21
-107.192
0
LINE
8
BLACK
6
CONTINUOUS
10
218.124
20
-107.192
11
203.427
21
-121.48
0
LINE
8
BLACK
6
CONTINUOUS
10
203.427
20
-121.48
11
203.427
21
-121.48
0
LINE
8
BLACK
6
CONTINUOUS
10
203.427
20
-121.48
11
203.037
21
-121.845
0
LINE
8
BLACK
6
CONTINUOUS
10
203.037
20
-121.845
11
202.623
21
-122.185
0
LINE
8
BLACK
6
CONTINUOUS
10
202.623
20
-122.185
11
202.188
21
-122.496
0
LINE
8
BLACK
6
CONTINUOUS
10
202.188
20
-122.496
11
201.734
21
-122.779
0
LINE
8
BLACK
6
CONTINUOUS
10
201.734
20
-122.779
11
201.262
21
-123.031
0
LINE
8
BLACK
6
CONTINUOUS
10
201.262
20
-123.031
11
200.774
21
-123.252
0
LINE
8
BLACK
6
CONTINUOUS
10
200.774
20
-123.252
11
200.273
21
-123.441
0
LINE
8
BLACK
6
CONTINUOUS
10
200.273
20
-123.441
11
199.761
21
-123.596
0
LINE
8
BLACK
6
CONTINUOUS
10
199.761
20
-123.596
11
199.24
21
-123.718
0
LINE
8
BLACK
6
CONTINUOUS
10
199.24
20
-123.718
11
198.711
21
-123.805
0
LINE
8
BLACK
6
CONTINUOUS
10
198.711
20
-123.805
11
198.179
21
-123.858
0
LINE
8
BLACK
6
CONTINUOUS
10
198.179
20
-123.858
11
197.644
21
-123.875
0
LINE
8
BLACK
6
CONTINUOUS
10
197.644
20
-123.875
11
197.644
21
-123.875
0
LINE
8
BLACK
6
CONTINUOUS
10
197.644
20
-123.875
11
185.737
21
-123.875
0
LINE
8
BLACK
6
CONTINUOUS
10
185.737
20
-123.875
11
185.737
21
-123.875
0
LINE
8
BLACK
6
CONTINUOUS
10
185.737
20
-123.875
11
185.737
21
-123.875
0
LINE
8
BLACK
6
CONTINUOUS
10
185.737
20
-123.875
11
185.737
21
-123.875
0
LINE
8
BLACK
6
CONTINUOUS
10
185.737
20
-123.875
11
185.473
21
-123.875
0
LINE
8
BLACK
6
CONTINUOUS
10
185.473
20
-123.875
11
184.945
21
-123.91
0
LINE
8
BLACK
6
CONTINUOUS
10
184.945
20
-123.91
11
184.421
21
-123.979
0
LINE
8
BLACK
6
CONTINUOUS
10
184.421
20
-123.979
11
183.902
21
-124.082
0
LINE
8
BLACK
6
CONTINUOUS
10
183.902
20
-124.082
11
183.391
21
-124.219
0
LINE
8
BLACK
6
CONTINUOUS
10
183.391
20
-124.219
11
182.89
21
-124.389
0
LINE
8
BLACK
6
CONTINUOUS
10
182.89
20
-124.389
11
182.401
21
-124.591
0
LINE
8
BLACK
6
CONTINUOUS
10
182.401
20
-124.591
11
181.927
21
-124.825
0
LINE
8
BLACK
6
CONTINUOUS
10
181.927
20
-124.825
11
181.468
21
-125.09
0
LINE
8
BLACK
6
CONTINUOUS
10
181.468
20
-125.09
11
181.029
21
-125.384
0
LINE
8
BLACK
6
CONTINUOUS
10
181.029
20
-125.384
11
180.609
21
-125.706
0
LINE
8
BLACK
6
CONTINUOUS
10
180.609
20
-125.706
11
180.211
21
-126.055
0
LINE
8
BLACK
6
CONTINUOUS
10
180.211
20
-126.055
11
180.024
21
-126.242
0
LINE
8
BLACK
6
CONTINUOUS
10
180.024
20
-126.242
11
180.024
21
-126.242
0
LINE
8
BLACK
6
CONTINUOUS
10
180.024
20
-126.242
11
180.022
21
-126.243
0
LINE
8
BLACK
6
CONTINUOUS
10
180.022
20
-126.243
11
180.021
21
-126.245
0
LINE
8
BLACK
6
CONTINUOUS
10
180.021
20
-126.245
11
162.944
21
-140.532
0
LINE
8
BLACK
6
CONTINUOUS
10
162.944
20
-140.532
11
162.556
21
-140.895
0
LINE
8
BLACK
6
CONTINUOUS
10
162.556
20
-140.895
11
162.142
21
-141.235
0
LINE
8
BLACK
6
CONTINUOUS
10
162.142
20
-141.235
11
161.707
21
-141.546
0
LINE
8
BLACK
6
CONTINUOUS
10
161.707
20
-141.546
11
161.253
21
-141.829
0
LINE
8
BLACK
6
CONTINUOUS
10
161.253
20
-141.829
11
160.78
21
-142.081
0
LINE
8
BLACK
6
CONTINUOUS
10
160.78
20
-142.081
11
160.293
21
-142.302
0
LINE
8
BLACK
6
CONTINUOUS
10
160.293
20
-142.302
11
159.792
21
-142.491
0
LINE
8
BLACK
6
CONTINUOUS
10
159.792
20
-142.491
11
159.28
21
-142.646
0
LINE
8
BLACK
6
CONTINUOUS
10
159.28
20
-142.646
11
158.758
21
-142.768
0
LINE
8
BLACK
6
CONTINUOUS
10
158.758
20
-142.768
11
158.23
21
-142.855
0
LINE
8
BLACK
6
CONTINUOUS
10
158.23
20
-142.855
11
157.698
21
-142.908
0
LINE
8
BLACK
6
CONTINUOUS
10
157.698
20
-142.908
11
157.163
21
-142.925
0
LINE
8
BLACK
6
CONTINUOUS
10
157.163
20
-142.925
11
157.163
21
-142.925
0
LINE
8
BLACK
6
CONTINUOUS
10
157.163
20
-142.925
11
157.162
21
-142.925
0
LINE
8
BLACK
6
CONTINUOUS
10
157.162
20
-142.925
11
157.162
21
-142.925
0
LINE
8
BLACK
6
CONTINUOUS
10
157.162
20
-142.925
11
109.537
21
-142.925
0
LINE
8
BLACK
6
CONTINUOUS
10
109.537
20
-142.925
11
109.002
21
-142.907
0
LINE
8
BLACK
6
CONTINUOUS
10
109.002
20
-142.907
11
108.47
21
-142.855
0
LINE
8
BLACK
6
CONTINUOUS
10
108.47
20
-142.855
11
107.942
21
-142.768
0
LINE
8
BLACK
6
CONTINUOUS
10
107.942
20
-142.768
11
107.42
21
-142.646
0
LINE
8
BLACK
6
CONTINUOUS
10
107.42
20
-142.646
11
106.908
21
-142.491
0
LINE
8
BLACK
6
CONTINUOUS
10
106.908
20
-142.491
11
106.407
21
-142.302
0
LINE
8
BLACK
6
CONTINUOUS
10
106.407
20
-142.302
11
105.92
21
-142.081
0
LINE
8
BLACK
6
CONTINUOUS
10
105.92
20
-142.081
11
105.447
21
-141.829
0
LINE
8
BLACK
6
CONTINUOUS
10
105.447
20
-141.829
11
104.993
21
-141.546
0
LINE
8
BLACK
6
CONTINUOUS
10
104.993
20
-141.546
11
104.558
21
-141.235
0
LINE
8
BLACK
6
CONTINUOUS
10
104.558
20
-141.235
11
104.144
21
-140.895
0
LINE
8
BLACK
6
CONTINUOUS
10
104.144
20
-140.895
11
103.756
21
-140.531
0
LINE
8
BLACK
6
CONTINUOUS
10
103.756
20
-140.531
11
86.6793
21
-126.245
0
LINE
8
BLACK
6
CONTINUOUS
10
86.6793
20
-126.245
11
86.6783
21
-126.243
0
LINE
8
BLACK
6
CONTINUOUS
10
86.6783
20
-126.243
11
86.676
21
-126.242
0
LINE
8
BLACK
6
CONTINUOUS
10
86.676
20
-126.242
11
86.676
21
-126.242
0
LINE
8
BLACK
6
CONTINUOUS
10
86.676
20
-126.242
11
86.489
21
-126.055
0
LINE
8
BLACK
6
CONTINUOUS
10
86.489
20
-126.055
11
86.0912
21
-125.706
0
LINE
8
BLACK
6
CONTINUOUS
10
86.0912
20
-125.706
11
85.6715
21
-125.384
0
LINE
8
BLACK
6
CONTINUOUS
10
85.6715
20
-125.384
11
85.2316
21
-125.09
0
LINE
8
BLACK
6
CONTINUOUS
10
85.2316
20
-125.09
11
84.7735
21
-124.825
0
LINE
8
BLACK
6
CONTINUOUS
10
84.7735
20
-124.825
11
84.299
21
-124.591
0
LINE
8
BLACK
6
CONTINUOUS
10
84.299
20
-124.591
11
83.8102
21
-124.389
0
LINE
8
BLACK
6
CONTINUOUS
10
83.8102
20
-124.389
11
83.3093
21
-124.219
0
LINE
8
BLACK
6
CONTINUOUS
10
83.3093
20
-124.219
11
82.7983
21
-124.082
0
LINE
8
BLACK
6
CONTINUOUS
10
82.7983
20
-124.082
11
82.2794
21
-123.979
0
LINE
8
BLACK
6
CONTINUOUS
10
82.2794
20
-123.979
11
81.7549
21
-123.91
0
LINE
8
BLACK
6
CONTINUOUS
10
81.7549
20
-123.91
11
81.227
21
-123.875
0
LINE
8
BLACK
6
CONTINUOUS
10
81.227
20
-123.875
11
80.9625
21
-123.875
0
LINE
8
BLACK
6
CONTINUOUS
10
80.9625
20
-123.875
11
69.0562
21
-123.875
0
LINE
8
BLACK
6
CONTINUOUS
10
69.0562
20
-123.875
11
68.5212
21
-123.857
0
LINE
8
BLACK
6
CONTINUOUS
10
68.5212
20
-123.857
11
67.9885
21
-123.805
0
LINE
8
BLACK
6
CONTINUOUS
10
67.9885
20
-123.805
11
67.4604
21
-123.718
0
LINE
8
BLACK
6
CONTINUOUS
10
67.4604
20
-123.718
11
66.9391
21
-123.596
0
LINE
8
BLACK
6
CONTINUOUS
10
66.9391
20
-123.596
11
66.4268
21
-123.441
0
LINE
8
BLACK
6
CONTINUOUS
10
66.4268
20
-123.441
11
65.9259
21
-123.252
0
LINE
8
BLACK
6
CONTINUOUS
10
65.9259
20
-123.252
11
65.4383
21
-123.031
0
LINE
8
BLACK
6
CONTINUOUS
10
65.4383
20
-123.031
11
64.9662
21
-122.779
0
LINE
8
BLACK
6
CONTINUOUS
10
64.9662
20
-122.779
11
64.5116
21
-122.496
0
LINE
8
BLACK
6
CONTINUOUS
10
64.5116
20
-122.496
11
64.0765
21
-122.185
0
LINE
8
BLACK
6
CONTINUOUS
10
64.0765
20
-122.185
11
63.6627
21
-121.845
0
LINE
8
BLACK
6
CONTINUOUS
10
63.6627
20
-121.845
11
63.272
21
-121.479
0
LINE
8
BLACK
6
CONTINUOUS
10
63.272
20
-121.479
11
63.272
21
-121.479
0
LINE
8
BLACK
6
CONTINUOUS
10
63.272
20
-121.479
11
48.5765
21
-107.192
0
LINE
8
BLACK
6
CONTINUOUS
10
48.5765
20
-107.192
11
48.5764
21
-107.192
0
LINE
8
BLACK
6
CONTINUOUS
10
48.5764
20
-107.192
11
48.576
21
-107.192
0
LINE
8
BLACK
6
CONTINUOUS
10
48.576
20
-107.192
11
48.576
21
-107.192
0
LINE
8
BLACK
6
CONTINUOUS
10
48.576
20
-107.192
11
48.389
21
-107.005
0
LINE
8
BLACK
6
CONTINUOUS
10
48.389
20
-107.005
11
47.9912
21
-106.656
0
LINE
8
BLACK
6
CONTINUOUS
10
47.9912
20
-106.656
11
47.5715
21
-106.334
0
LINE
8
BLACK
6
CONTINUOUS
10
47.5715
20
-106.334
11
47.1316
21
-106.04
0
LINE
8
BLACK
6
CONTINUOUS
10
47.1316
20
-106.04
11
46.6735
21
-105.775
0
LINE
8
BLACK
6
CONTINUOUS
10
46.6735
20
-105.775
11
46.199
21
-105.541
0
LINE
8
BLACK
6
CONTINUOUS
10
46.199
20
-105.541
11
45.7102
21
-105.339
0
LINE
8
BLACK
6
CONTINUOUS
10
45.7102
20
-105.339
11
45.2093
21
-105.169
0
LINE
8
BLACK
6
CONTINUOUS
10
45.2093
20
-105.169
11
44.6983
21
-105.032
0
LINE
8
BLACK
6
CONTINUOUS
10
44.6983
20
-105.032
11
44.1794
21
-104.929
0
LINE
8
BLACK
6
CONTINUOUS
10
44.1794
20
-104.929
11
43.6549
21
-104.86
0
LINE
8
BLACK
6
CONTINUOUS
10
43.6549
20
-104.86
11
43.127
21
-104.825
0
LINE
8
BLACK
6
CONTINUOUS
10
43.127
20
-104.825
11
42.8625
21
-104.825
0
LINE
8
BLACK
6
CONTINUOUS
10
42.8625
20
-104.825
11
30.9562
21
-104.825
0
LINE
8
BLACK
6
CONTINUOUS
10
30.9562
20
-104.825
11
30.6632
21
-104.807
0
LINE
8
BLACK
6
CONTINUOUS
10
30.6632
20
-104.807
11
30.3744
21
-104.754
0
LINE
8
BLACK
6
CONTINUOUS
10
30.3744
20
-104.754
11
30.0941
21
-104.667
0
LINE
8
BLACK
6
CONTINUOUS
10
30.0941
20
-104.667
11
29.8264
21
-104.547
0
LINE
8
BLACK
6
CONTINUOUS
10
29.8264
20
-104.547
11
29.5751
21
-104.395
0
LINE
8
BLACK
6
CONTINUOUS
10
29.5751
20
-104.395
11
29.344
21
-104.214
0
LINE
8
BLACK
6
CONTINUOUS
10
29.344
20
-104.214
11
29.1364
21
-104.006
0
LINE
8
BLACK
6
CONTINUOUS
10
29.1364
20
-104.006
11
28.9554
21
-103.775
0
LINE
8
BLACK
6
CONTINUOUS
10
28.9554
20
-103.775
11
28.8035
21
-103.524
0
LINE
8
BLACK
6
CONTINUOUS
10
28.8035
20
-103.524
11
28.683
21
-103.256
0
LINE
8
BLACK
6
CONTINUOUS
10
28.683
20
-103.256
11
28.5956
21
-102.976
0
LINE
8
BLACK
6
CONTINUOUS
10
28.5956
20
-102.976
11
28.5427
21
-102.687
0
LINE
8
BLACK
6
CONTINUOUS
10
28.5427
20
-102.687
11
28.525
21
-102.394
0
LINE
8
BLACK
6
CONTINUOUS
10
28.525
20
-102.394
11
28.525
21
-102.394
0
LINE
8
BLACK
6
CONTINUOUS
10
28.525
20
-102.394
11
28.525
21
-50.0062
0
LINE
8
BLACK
6
CONTINUOUS
10
28.525
20
-50.0062
11
28.525
21
-50.0062
0
LINE
8
BLACK
6
CONTINUOUS
10
28.525
20
-50.0062
11
28.5427
21
-49.7132
0
LINE
8
BLACK
6
CONTINUOUS
10
28.5427
20
-49.7132
11
28.5956
21
-49.4244
0
LINE
8
BLACK
6
CONTINUOUS
10
28.5956
20
-49.4244
11
28.683
21
-49.1441
0
LINE
8
BLACK
6
CONTINUOUS
10
28.683
20
-49.1441
11
28.8035
21
-48.8764
0
LINE
8
BLACK
6
CONTINUOUS
10
28.8035
20
-48.8764
11
28.9554
21
-48.6251
0
LINE
8
BLACK
6
CONTINUOUS
10
28.9554
20
-48.6251
11
29.1364
21
-48.394
0
LINE
8
BLACK
6
CONTINUOUS
10
29.1364
20
-48.394
11
29.344
21
-48.1864
0
LINE
8
BLACK
6
CONTINUOUS
10
29.344
20
-48.1864
11
29.5751
21
-48.0054
0
LINE
8
BLACK
6
CONTINUOUS
10
29.5751
20
-48.0054
11
29.8264
21
-47.8535
0
LINE
8
BLACK
6
CONTINUOUS
10
29.8264
20
-47.8535
11
30.0941
21
-47.733
0
LINE
8
BLACK
6
CONTINUOUS
10
30.0941
20
-47.733
11
30.3744
21
-47.6456
0
LINE
8
BLACK
6
CONTINUOUS
10
30.3744
20
-47.6456
11
30.6632
21
-47.5927
0
LINE
8
BLACK
6
CONTINUOUS
10
30.6632
20
-47.5927
11
30.9562
21
-47.575
0
LINE
8
BLACK
6
CONTINUOUS
10
30.9562
20
-47.575
11
235.744
21
-47.575
0
LINE
8
BLACK
6
CONTINUOUS
10
30.9562
20
-47.675
11
30.8152
21
-47.675
0
LINE
8
BLACK
6
CONTINUOUS
10
30.8152
20
-47.675
11
30.5353
21
-47.709
0
LINE
8
BLACK
6
CONTINUOUS
10
30.5353
20
-47.709
11
30.2614
21
-47.7765
0
LINE
8
BLACK
6
CONTINUOUS
10
30.2614
20
-47.7765
11
29.9977
21
-47.8765
0
LINE
8
BLACK
6
CONTINUOUS
10
29.9977
20
-47.8765
11
29.748
21
-48.0076
0
LINE
8
BLACK
6
CONTINUOUS
10
29.748
20
-48.0076
11
29.5159
21
-48.1678
0
LINE
8
BLACK
6
CONTINUOUS
10
29.5159
20
-48.1678
11
29.3048
21
-48.3548
0
LINE
8
BLACK
6
CONTINUOUS
10
29.3048
20
-48.3548
11
29.1178
21
-48.5659
0
LINE
8
BLACK
6
CONTINUOUS
10
29.1178
20
-48.5659
11
28.9576
21
-48.798
0
LINE
8
BLACK
6
CONTINUOUS
10
28.9576
20
-48.798
11
28.8265
21
-49.0477
0
LINE
8
BLACK
6
CONTINUOUS
10
28.8265
20
-49.0477
11
28.7265
21
-49.3114
0
LINE
8
BLACK
6
CONTINUOUS
10
28.7265
20
-49.3114
11
28.659
21
-49.5853
0
LINE
8
BLACK
6
CONTINUOUS
10
28.659
20
-49.5853
11
28.625
21
-49.8652
0
LINE
8
BLACK
6
CONTINUOUS
10
28.625
20
-49.8652
11
28.625
21
-50.0062
0
LINE
8
BLACK
6
CONTINUOUS
10
28.625
20
-50.0062
11
28.625
21
-50.0062
0
LINE
8
BLACK
6
CONTINUOUS
10
28.625
20
-50.0062
11
28.625
21
-102.394
0
LINE
8
BLACK
6
CONTINUOUS
10
28.625
20
-102.394
11
28.625
21
-102.394
0
LINE
8
BLACK
6
CONTINUOUS
10
28.625
20
-102.394
11
28.625
21
-102.535
0
LINE
8
BLACK
6
CONTINUOUS
10
28.625
20
-102.535
11
28.659
21
-102.815
0
LINE
8
BLACK
6
CONTINUOUS
10
28.659
20
-102.815
11
28.7265
21
-103.089
0
LINE
8
BLACK
6
CONTINUOUS
10
28.7265
20
-103.089
11
28.8265
21
-103.352
0
LINE
8
BLACK
6
CONTINUOUS
10
28.8265
20
-103.352
11
28.9576
21
-103.602
0
LINE
8
BLACK
6
CONTINUOUS
10
28.9576
20
-103.602
11
29.1178
21
-103.834
0
LINE
8
BLACK
6
CONTINUOUS
10
29.1178
20
-103.834
11
29.3048
21
-104.045
0
LINE
8
BLACK
6
CONTINUOUS
10
29.3048
20
-104.045
11
29.5159
21
-104.232
0
LINE
8
BLACK
6
CONTINUOUS
10
29.5159
20
-104.232
11
29.748
21
-104.392
0
LINE
8
BLACK
6
CONTINUOUS
10
29.748
20
-104.392
11
29.9977
21
-104.524
0
LINE
8
BLACK
6
CONTINUOUS
10
29.9977
20
-104.524
11
30.2614
21
-104.624
0
LINE
8
BLACK
6
CONTINUOUS
10
30.2614
20
-104.624
11
30.5353
21
-104.691
0
LINE
8
BLACK
6
CONTINUOUS
10
30.5353
20
-104.691
11
30.8152
21
-104.725
0
LINE
8
BLACK
6
CONTINUOUS
10
30.8152
20
-104.725
11
30.9562
21
-104.725
0
LINE
8
BLACK
6
CONTINUOUS
10
30.9562
20
-104.725
11
42.8625
21
-104.725
0
LINE
8
BLACK
6
CONTINUOUS
10
42.8625
20
-104.725
11
43.3975
21
-104.743
0
LINE
8
BLACK
6
CONTINUOUS
10
43.3975
20
-104.743
11
43.9302
21
-104.795
0
LINE
8
BLACK
6
CONTINUOUS
10
43.9302
20
-104.795
11
44.4584
21
-104.882
0
LINE
8
BLACK
6
CONTINUOUS
10
44.4584
20
-104.882
11
44.9797
21
-105.004
0
LINE
8
BLACK
6
CONTINUOUS
10
44.9797
20
-105.004
11
45.4919
21
-105.159
0
LINE
8
BLACK
6
CONTINUOUS
10
45.4919
20
-105.159
11
45.9929
21
-105.348
0
LINE
8
BLACK
6
CONTINUOUS
10
45.9929
20
-105.348
11
46.4805
21
-105.569
0
LINE
8
BLACK
6
CONTINUOUS
10
46.4805
20
-105.569
11
46.9525
21
-105.821
0
LINE
8
BLACK
6
CONTINUOUS
10
46.9525
20
-105.821
11
47.4071
21
-106.104
0
LINE
8
BLACK
6
CONTINUOUS
10
47.4071
20
-106.104
11
47.8422
21
-106.415
0
LINE
8
BLACK
6
CONTINUOUS
10
47.8422
20
-106.415
11
48.256
21
-106.755
0
LINE
8
BLACK
6
CONTINUOUS
10
48.256
20
-106.755
11
48.6462
21
-107.12
0
LINE
8
BLACK
6
CONTINUOUS
10
48.6462
20
-107.12
11
48.6462
21
-107.12
0
LINE
8
BLACK
6
CONTINUOUS
10
48.6462
20
-107.12
11
63.3423
21
-121.408
0
LINE
8
BLACK
6
CONTINUOUS
10
63.3423
20
-121.408
11
63.3424
21
-121.408
0
LINE
8
BLACK
6
CONTINUOUS
10
63.3424
20
-121.408
11
63.3428
21
-121.408
0
LINE
8
BLACK
6
CONTINUOUS
10
63.3428
20
-121.408
11
63.3427
21
-121.408
0
LINE
8
BLACK
6
CONTINUOUS
10
63.3427
20
-121.408
11
63.5298
21
-121.595
0
LINE
8
BLACK
6
CONTINUOUS
10
63.5298
20
-121.595
11
63.9275
21
-121.944
0
LINE
8
BLACK
6
CONTINUOUS
10
63.9275
20
-121.944
11
64.3472
21
-122.266
0
LINE
8
BLACK
6
CONTINUOUS
10
64.3472
20
-122.266
11
64.7871
21
-122.56
0
LINE
8
BLACK
6
CONTINUOUS
10
64.7871
20
-122.56
11
65.2453
21
-122.825
0
LINE
8
BLACK
6
CONTINUOUS
10
65.2453
20
-122.825
11
65.7197
21
-123.059
0
LINE
8
BLACK
6
CONTINUOUS
10
65.7197
20
-123.059
11
66.2085
21
-123.261
0
LINE
8
BLACK
6
CONTINUOUS
10
66.2085
20
-123.261
11
66.7095
21
-123.431
0
LINE
8
BLACK
6
CONTINUOUS
10
66.7095
20
-123.431
11
67.2205
21
-123.568
0
LINE
8
BLACK
6
CONTINUOUS
10
67.2205
20
-123.568
11
67.7393
21
-123.671
0
LINE
8
BLACK
6
CONTINUOUS
10
67.7393
20
-123.671
11
68.2638
21
-123.74
0
LINE
8
BLACK
6
CONTINUOUS
10
68.2638
20
-123.74
11
68.7917
21
-123.775
0
LINE
8
BLACK
6
CONTINUOUS
10
68.7917
20
-123.775
11
69.0562
21
-123.775
0
LINE
8
BLACK
6
CONTINUOUS
10
69.0562
20
-123.775
11
80.9625
21
-123.775
0
LINE
8
BLACK
6
CONTINUOUS
10
80.9625
20
-123.775
11
81.4975
21
-123.793
0
LINE
8
BLACK
6
CONTINUOUS
10
81.4975
20
-123.793
11
82.0302
21
-123.845
0
LINE
8
BLACK
6
CONTINUOUS
10
82.0302
20
-123.845
11
82.5584
21
-123.932
0
LINE
8
BLACK
6
CONTINUOUS
10
82.5584
20
-123.932
11
83.0797
21
-124.054
0
LINE
8
BLACK
6
CONTINUOUS
10
83.0797
20
-124.054
11
83.5919
21
-124.209
0
LINE
8
BLACK
6
CONTINUOUS
10
83.5919
20
-124.209
11
84.0929
21
-124.398
0
LINE
8
BLACK
6
CONTINUOUS
10
84.0929
20
-124.398
11
84.5805
21
-124.619
0
LINE
8
BLACK
6
CONTINUOUS
10
84.5805
20
-124.619
11
85.0525
21
-124.871
0
LINE
8
BLACK
6
CONTINUOUS
10
85.0525
20
-124.871
11
85.5071
21
-125.154
0
LINE
8
BLACK
6
CONTINUOUS
10
85.5071
20
-125.154
11
85.9422
21
-125.465
0
LINE
8
BLACK
6
CONTINUOUS
10
85.9422
20
-125.465
11
86.356
21
-125.805
0
LINE
8
BLACK
6
CONTINUOUS
10
86.356
20
-125.805
11
86.7442
21
-126.169
0
LINE
8
BLACK
6
CONTINUOUS
10
86.7442
20
-126.169
11
103.821
21
-140.455
0
LINE
8
BLACK
6
CONTINUOUS
10
103.821
20
-140.455
11
103.822
21
-140.457
0
LINE
8
BLACK
6
CONTINUOUS
10
103.822
20
-140.457
11
103.824
21
-140.458
0
LINE
8
BLACK
6
CONTINUOUS
10
103.824
20
-140.458
11
103.824
21
-140.458
0
LINE
8
BLACK
6
CONTINUOUS
10
103.824
20
-140.458
11
104.011
21
-140.645
0
LINE
8
BLACK
6
CONTINUOUS
10
104.011
20
-140.645
11
104.409
21
-140.994
0
LINE
8
BLACK
6
CONTINUOUS
10
104.409
20
-140.994
11
104.829
21
-141.316
0
LINE
8
BLACK
6
CONTINUOUS
10
104.829
20
-141.316
11
105.268
21
-141.61
0
LINE
8
BLACK
6
CONTINUOUS
10
105.268
20
-141.61
11
105.727
21
-141.875
0
LINE
8
BLACK
6
CONTINUOUS
10
105.727
20
-141.875
11
106.201
21
-142.109
0
LINE
8
BLACK
6
CONTINUOUS
10
106.201
20
-142.109
11
106.69
21
-142.311
0
LINE
8
BLACK
6
CONTINUOUS
10
106.69
20
-142.311
11
107.191
21
-142.481
0
LINE
8
BLACK
6
CONTINUOUS
10
107.191
20
-142.481
11
107.702
21
-142.618
0
LINE
8
BLACK
6
CONTINUOUS
10
107.702
20
-142.618
11
108.221
21
-142.721
0
LINE
8
BLACK
6
CONTINUOUS
10
108.221
20
-142.721
11
108.745
21
-142.79
0
LINE
8
BLACK
6
CONTINUOUS
10
108.745
20
-142.79
11
109.273
21
-142.825
0
LINE
8
BLACK
6
CONTINUOUS
10
109.273
20
-142.825
11
109.537
21
-142.825
0
LINE
8
BLACK
6
CONTINUOUS
10
109.537
20
-142.825
11
157.162
21
-142.825
0
LINE
8
BLACK
6
CONTINUOUS
10
157.162
20
-142.825
11
157.163
21
-142.825
0
LINE
8
BLACK
6
CONTINUOUS
10
157.163
20
-142.825
11
157.427
21
-142.825
0
LINE
8
BLACK
6
CONTINUOUS
10
157.427
20
-142.825
11
157.955
21
-142.79
0
LINE
8
BLACK
6
CONTINUOUS
10
157.955
20
-142.79
11
158.479
21
-142.721
0
LINE
8
BLACK
6
CONTINUOUS
10
158.479
20
-142.721
11
158.998
21
-142.618
0
LINE
8
BLACK
6
CONTINUOUS
10
158.998
20
-142.618
11
159.509
21
-142.481
0
LINE
8
BLACK
6
CONTINUOUS
10
159.509
20
-142.481
11
160.01
21
-142.311
0
LINE
8
BLACK
6
CONTINUOUS
10
160.01
20
-142.311
11
160.499
21
-142.109
0
LINE
8
BLACK
6
CONTINUOUS
10
160.499
20
-142.109
11
160.973
21
-141.875
0
LINE
8
BLACK
6
CONTINUOUS
10
160.973
20
-141.875
11
161.432
21
-141.61
0
LINE
8
BLACK
6
CONTINUOUS
10
161.432
20
-141.61
11
161.871
21
-141.316
0
LINE
8
BLACK
6
CONTINUOUS
10
161.871
20
-141.316
11
162.291
21
-140.994
0
LINE
8
BLACK
6
CONTINUOUS
10
162.291
20
-140.994
11
162.689
21
-140.645
0
LINE
8
BLACK
6
CONTINUOUS
10
162.689
20
-140.645
11
162.876
21
-140.458
0
LINE
8
BLACK
6
CONTINUOUS
10
162.876
20
-140.458
11
162.876
21
-140.458
0
LINE
8
BLACK
6
CONTINUOUS
10
162.876
20
-140.458
11
162.878
21
-140.457
0
LINE
8
BLACK
6
CONTINUOUS
10
162.878
20
-140.457
11
162.879
21
-140.455
0
LINE
8
BLACK
6
CONTINUOUS
10
162.879
20
-140.455
11
179.956
21
-126.168
0
LINE
8
BLACK
6
CONTINUOUS
10
179.956
20
-126.168
11
180.344
21
-125.805
0
LINE
8
BLACK
6
CONTINUOUS
10
180.344
20
-125.805
11
180.758
21
-125.465
0
LINE
8
BLACK
6
CONTINUOUS
10
180.758
20
-125.465
11
181.193
21
-125.154
0
LINE
8
BLACK
6
CONTINUOUS
10
181.193
20
-125.154
11
181.647
21
-124.871
0
LINE
8
BLACK
6
CONTINUOUS
10
181.647
20
-124.871
11
182.12
21
-124.619
0
LINE
8
BLACK
6
CONTINUOUS
10
182.12
20
-124.619
11
182.607
21
-124.398
0
LINE
8
BLACK
6
CONTINUOUS
10
182.607
20
-124.398
11
183.108
21
-124.209
0
LINE
8
BLACK
6
CONTINUOUS
10
183.108
20
-124.209
11
183.62
21
-124.054
0
LINE
8
BLACK
6
CONTINUOUS
10
183.62
20
-124.054
11
184.142
21
-123.932
0
LINE
8
BLACK
6
CONTINUOUS
10
184.142
20
-123.932
11
184.67
21
-123.845
0
LINE
8
BLACK
6
CONTINUOUS
10
184.67
20
-123.845
11
185.202
21
-123.793
0
LINE
8
BLACK
6
CONTINUOUS
10
185.202
20
-123.793
11
185.737
21
-123.775
0
LINE
8
BLACK
6
CONTINUOUS
10
185.737
20
-123.775
11
185.737
21
-123.775
0
LINE
8
BLACK
6
CONTINUOUS
10
185.737
20
-123.775
11
197.644
21
-123.775
0
LINE
8
BLACK
6
CONTINUOUS
10
197.644
20
-123.775
11
197.644
21
-123.775
0
LINE
8
BLACK
6
CONTINUOUS
10
197.644
20
-123.775
11
197.644
21
-123.775
0
LINE
8
BLACK
6
CONTINUOUS
10
197.644
20
-123.775
11
197.908
21
-123.775
0
LINE
8
BLACK
6
CONTINUOUS
10
197.908
20
-123.775
11
198.436
21
-123.74
0
LINE
8
BLACK
6
CONTINUOUS
10
198.436
20
-123.74
11
198.961
21
-123.671
0
LINE
8
BLACK
6
CONTINUOUS
10
198.961
20
-123.671
11
199.48
21
-123.568
0
LINE
8
BLACK
6
CONTINUOUS
10
199.48
20
-123.568
11
199.991
21
-123.431
0
LINE
8
BLACK
6
CONTINUOUS
10
199.991
20
-123.431
11
200.492
21
-123.261
0
LINE
8
BLACK
6
CONTINUOUS
10
200.492
20
-123.261
11
200.98
21
-123.059
0
LINE
8
BLACK
6
CONTINUOUS
10
200.98
20
-123.059
11
201.455
21
-122.825
0
LINE
8
BLACK
6
CONTINUOUS
10
201.455
20
-122.825
11
201.913
21
-122.56
0
LINE
8
BLACK
6
CONTINUOUS
10
201.913
20
-122.56
11
202.353
21
-122.266
0
LINE
8
BLACK
6
CONTINUOUS
10
202.353
20
-122.266
11
202.772
21
-121.944
0
LINE
8
BLACK
6
CONTINUOUS
10
202.772
20
-121.944
11
203.17
21
-121.595
0
LINE
8
BLACK
6
CONTINUOUS
10
203.17
20
-121.595
11
203.357
21
-121.408
0
LINE
8
BLACK
6
CONTINUOUS
10
203.357
20
-121.408
11
203.358
21
-121.408
0
LINE
8
BLACK
6
CONTINUOUS
10
203.358
20
-121.408
11
203.358
21
-121.408
0
LINE
8
BLACK
6
CONTINUOUS
10
203.358
20
-121.408
11
218.054
21
-107.12
0
LINE
8
BLACK
6
CONTINUOUS
10
218.054
20
-107.12
11
218.054
21
-107.12
0
LINE
8
BLACK
6
CONTINUOUS
10
218.054
20
-107.12
11
218.444
21
-106.755
0
LINE
8
BLACK
6
CONTINUOUS
10
218.444
20
-106.755
11
218.858
21
-106.415
0
LINE
8
BLACK
6
CONTINUOUS
10
218.858
20
-106.415
11
219.293
21
-106.104
0
LINE
8
BLACK
6
CONTINUOUS
10
219.293
20
-106.104
11
219.747
21
-105.821
0
LINE
8
BLACK
6
CONTINUOUS
10
219.747
20
-105.821
11
220.22
21
-105.569
0
LINE
8
BLACK
6
CONTINUOUS
10
220.22
20
-105.569
11
220.707
21
-105.348
0
LINE
8
BLACK
6
CONTINUOUS
10
220.707
20
-105.348
11
221.208
21
-105.159
0
LINE
8
BLACK
6
CONTINUOUS
10
221.208
20
-105.159
11
221.72
21
-105.004
0
LINE
8
BLACK
6
CONTINUOUS
10
221.72
20
-105.004
11
222.242
21
-104.882
0
LINE
8
BLACK
6
CONTINUOUS
10
222.242
20
-104.882
11
222.77
21
-104.795
0
LINE
8
BLACK
6
CONTINUOUS
10
222.77
20
-104.795
11
223.302
21
-104.743
0
LINE
8
BLACK
6
CONTINUOUS
10
223.302
20
-104.743
11
223.837
21
-104.725
0
LINE
8
BLACK
6
CONTINUOUS
10
223.837
20
-104.725
11
223.837
21
-104.725
0
LINE
8
BLACK
6
CONTINUOUS
10
223.837
20
-104.725
11
235.744
21
-104.725
0
LINE
8
BLACK
6
CONTINUOUS
10
235.744
20
-104.725
11
235.885
21
-104.725
0
LINE
8
BLACK
6
CONTINUOUS
10
235.885
20
-104.725
11
236.165
21
-104.691
0
LINE
8
BLACK
6
CONTINUOUS
10
236.165
20
-104.691
11
236.439
21
-104.623
0
LINE
8
BLACK
6
CONTINUOUS
10
236.439
20
-104.623
11
236.702
21
-104.523
0
LINE
8
BLACK
6
CONTINUOUS
10
236.702
20
-104.523
11
236.952
21
-104.392
0
LINE
8
BLACK
6
CONTINUOUS
10
236.952
20
-104.392
11
237.184
21
-104.232
0
LINE
8
BLACK
6
CONTINUOUS
10
237.184
20
-104.232
11
237.395
21
-104.045
0
LINE
8
BLACK
6
CONTINUOUS
10
237.395
20
-104.045
11
237.582
21
-103.834
0
LINE
8
BLACK
6
CONTINUOUS
10
237.582
20
-103.834
11
237.742
21
-103.602
0
LINE
8
BLACK
6
CONTINUOUS
10
237.742
20
-103.602
11
237.873
21
-103.352
0
LINE
8
BLACK
6
CONTINUOUS
10
237.873
20
-103.352
11
237.974
21
-103.089
0
LINE
8
BLACK
6
CONTINUOUS
10
237.974
20
-103.089
11
238.041
21
-102.815
0
LINE
8
BLACK
6
CONTINUOUS
10
238.041
20
-102.815
11
238.075
21
-102.535
0
LINE
8
BLACK
6
CONTINUOUS
10
238.075
20
-102.535
11
238.075
21
-102.394
0
LINE
8
BLACK
6
CONTINUOUS
10
238.075
20
-102.394
11
238.075
21
-50.0062
0
LINE
8
BLACK
6
CONTINUOUS
10
238.075
20
-50.0062
11
238.075
21
-50.0062
0
LINE
8
BLACK
6
CONTINUOUS
10
238.075
20
-50.0062
11
238.075
21
-49.8652
0
LINE
8
BLACK
6
CONTINUOUS
10
238.075
20
-49.8652
11
238.041
21
-49.5853
0
LINE
8
BLACK
6
CONTINUOUS
10
238.041
20
-49.5853
11
237.974
21
-49.3114
0
LINE
8
BLACK
6
CONTINUOUS
10
237.974
20
-49.3114
11
237.873
21
-49.0477
0
LINE
8
BLACK
6
CONTINUOUS
10
237.873
20
-49.0477
11
237.742
21
-48.798
0
LINE
8
BLACK
6
CONTINUOUS
10
237.742
20
-48.798
11
237.582
21
-48.5659
0
LINE
8
BLACK
6
CONTINUOUS
10
237.582
20
-48.5659
11
237.395
21
-48.3548
0
LINE
8
BLACK
6
CONTINUOUS
10
237.395
20
-48.3548
11
237.184
21
-48.1678
0
LINE
8
BLACK
6
CONTINUOUS
10
237.184
20
-48.1678
11
236.952
21
-48.0076
0
LINE
8
BLACK
6
CONTINUOUS
10
236.952
20
-48.0076
11
236.702
21
-47.8765
0
LINE
8
BLACK
6
CONTINUOUS
10
236.702
20
-47.8765
11
236.439
21
-47.7765
0
LINE
8
BLACK
6
CONTINUOUS
10
236.439
20
-47.7765
11
236.165
21
-47.709
0
LINE
8
BLACK
6
CONTINUOUS
10
236.165
20
-47.709
11
235.885
21
-47.675
0
LINE
8
BLACK
6
CONTINUOUS
10
235.885
20
-47.675
11
235.744
21
-47.675
0
LINE
8
BLACK
6
CONTINUOUS
10
235.744
20
-47.675
11
30.9562
21
-47.675
  0
ENDSEC
  0
EOF
